<?xml version="1.0" standalone="no"?>
<!DOCTYPE svg PUBLIC "-//W3C//DTD SVG 1.1//EN" "http://www.w3.org/Graphics/SVG/1.1/DTD/svg11.dtd" >
<svg>
<metadata>
Created by FontForge 20090914 at Tue Jun 24 18:14:31 2014
 By www-data
Copyright (c) 2001, 2008 by Robert Allgeyer. SIL Open Font License.
</metadata>
<defs>
<font id="MusiQwik" horiz-adv-x="480" >
  <font-face 
    font-family="MusiQwik"
    font-weight="400"
    font-stretch="normal"
    units-per-em="2048"
    panose-1="2 0 0 0 0 0 0 0 0 0"
    ascent="1638"
    descent="-410"
    x-height="1638"
    cap-height="1638"
    bbox="-168 -1251 3056 2726"
    underline-thickness="102"
    underline-position="-154"
    unicode-range="U+0020-U+2122"
  />
<missing-glyph 
 />
    <glyph glyph-name=".notdef" 
 />
    <glyph glyph-name="space" unicode=" " 
 />
    <glyph glyph-name="exclam" unicode="!" 
d="M-16 1229h461v358h-461v51h512v-1689h-512v51h461v358h-461v52h461v358h-461v51h461v359h-461v51z" />
    <glyph glyph-name="quotedbl" unicode="&#x22;" 
d="M496 1638v-1689h-512v51h205v358h-205v52h205v358h-205v51h205v359h-205v51h205v358h-205v51h512zM445 0v358h-205v-358h205zM445 768h-205v-358h205v358zM240 1587v-358h205v358h-205zM445 1178h-205v-359h205v359z" />
    <glyph glyph-name="numbersign" unicode="#" horiz-adv-x="20" 
d="M35 -51h-51v51h51v-51zM35 768h-51v51h51v-51zM35 1178h-51v51h51v-51zM35 1587h-51v51h51v-51zM35 358h-51v52h51v-52zM-16 1726c12 52 38.167 93 78.5 123s99.5 45 177.5 45s137.167 -15 177.5 -45s66.5 -71 78.5 -123h-51c0 16.667 -8.16699 29.5 -24.5 38.5
s-35.833 15.5 -58.5 19.5s-45.667 6.33301 -69 7s-41 1 -53 1s-29.667 -0.333008 -53 -1s-46.333 -3 -69 -7s-42.167 -10.5 -58.5 -19.5s-24.5 -21.833 -24.5 -38.5h-51z" />
    <glyph glyph-name="dollar" unicode="$" horiz-adv-x="20" 
d="M35 -51h-51v51h51v-51zM35 768h-51v51h51v-51zM35 1178h-51v51h51v-51zM35 1587h-51v51h51v-51zM35 358h-51v52h51v-52zM537 2099c40.667 0 88.335 -6.50098 143.002 -19.501s106.334 -34.167 155.001 -63.5s89.667 -67.5 123 -114.5s50 -105.5 50 -175.5h-51
c-20.667 36 -41.5 70.333 -62.5 103s-48 61.334 -81 86.001s-74.333 44.5 -124 59.5s-112.834 22.5 -189.501 22.5c-82 0 -147.167 -6.5 -195.5 -19.5s-87.833 -31.5 -118.5 -55.5s-56.334 -52.667 -77.001 -86s-44.667 -70 -72 -110h-53c0 66 16.667 122.5 50 169.5
s74.666 85.5 123.999 115.5s101 52.167 155 66.5s101.333 21.5 142 21.5h82z" />
    <glyph glyph-name="percent" unicode="%" horiz-adv-x="20" 
d="M793 2220c94 0 181.997 -14.333 263.997 -43s167.333 -74.334 256 -137c-1.33301 0 2.83398 -6.5 12.501 -19.5s21.334 -29.833 35.001 -50.5l46 -66.5c17 -23.667 33 -47.167 48 -70.5s27.333 -43.833 37 -61.5s14.5 -29.834 14.5 -36.501c0 -6 -2 -9 -6 -9
c-2 0 -4 0.833008 -6 2.5s-4.33301 3.16699 -7 4.5c-20 12 -40.667 29.333 -62 52s-41.166 45.834 -59.499 69.501l-49 63.5c-14.333 18.667 -25.833 30 -34.5 34c-86 57.333 -172.333 99 -259 125s-175 39 -265 39c-94 0 -187.5 -11.667 -280.5 -35
s-184.5 -67.666 -274.5 -132.999c-8 -6 -18.833 -17.833 -32.5 -35.5l-47 -59c-17.667 -21.667 -37.167 -43.834 -58.5 -66.501s-43 -40.667 -65 -54c-4 -4.66699 -7.33301 -7 -10 -7c-1.33301 0 -2 1.66699 -2 5c0 5.33301 4.5 16.5 13.5 33.5l33 60.5
c13 23.333 27.333 47.5 43 72.5l45 69.5l36.5 52.5c10 13.667 17.333 20.5 22 20.5c90 62.667 177.333 108.334 262 137c84.667 28.667 174 43 268 43h82zM34.9971 358h-51v52h51v-52zM34.9971 768h-51v51h51v-51zM34.9971 1178h-51v51h51v-51zM34.9971 1587h-51v51h51v-51z
M34.9971 -51h-51v51h51v-51z" />
    <glyph glyph-name="ampersand" unicode="&#x26;" horiz-adv-x="992" 
d="M1008 -51l-282.998 0.00585938l2 -15c11.333 -34 20.333 -72.167 27 -114.5s12 -85.166 16 -128.499v-23c0 -40.667 -7.83301 -78.834 -23.5 -114.501s-36.834 -66.5 -63.501 -92.5s-57.667 -46.5 -93 -61.5s-72.666 -22.5 -111.999 -22.5c-37.333 0 -75 7.66699 -113 23
c-48 18 -87.667 45 -119 81s-47 80.667 -47 134c0 32.667 9.5 66.167 28.5 100.5s44.167 58.833 75.5 73.5c24.667 12 47.334 18 68.001 18s39.5 -5 56.5 -15s31.667 -23.167 44 -39.5s21.5 -34.833 27.5 -55.5s9 -41.334 9 -62.001c0 -35.333 -10.833 -67.333 -32.5 -96
s-57.834 -43 -108.501 -43h-14c13.333 -26 30.333 -43.667 51 -53s43 -14 67 -14c41.333 0 82.833 10.833 124.5 32.5s72.834 45.5 93.501 71.5c12 19.333 20.667 44.666 26 75.999s8 62.666 8 93.999c0 23.333 -1 45.166 -3 65.499s-5.66699 38.166 -11 53.499
c0 23.333 -4.16699 44.833 -12.5 64.5s-15.833 40.5 -22.5 62.5h-690v51h473c-22 1.33301 -41.667 6.66602 -59 15.999c-87.333 23.333 -162.833 65.833 -226.5 127.5s-111.167 133.167 -142.5 214.5h-45v52h27c-16.667 54.667 -25 112 -25 172
c0 62.667 10.333 124.667 31 186h-33v51h55c34 67.333 72.167 130.666 114.5 189.999s88.833 115.666 139.5 168.999h-309v51h360c11.333 9.33301 22.166 18.833 32.499 28.5l31.5 28.5c-14 52 -26 102.167 -36 150.5s-16.333 98.5 -19 150.5h-369v51h369
c0 42.667 3 90 9 142s17.167 101.833 33.5 149.5s39.166 91 68.499 130s67.333 67.167 114 84.5c2.66699 1.33301 6 2 10 2c9.33301 0 19.166 -5 29.499 -15s19.666 -21.5 27.999 -34.5s15.5 -25.667 21.5 -38l13 -26.5c23.333 -45.333 40.833 -93.666 52.5 -144.999
s18.167 -102 19.5 -152c0 -8.66699 0.333008 -17 1 -25s1 -16 1 -24c0 -8.66699 -0.333008 -17 -1 -25s-1 -15.667 -1 -23h256v-51h-258c-4 -52 -12.5 -102.5 -25.5 -151.5s-31.833 -97.5 -56.5 -145.5l-37 -61h377v-51h-412c-1.33301 -1.33301 -3 -3.5 -5 -6.5
s-4.33301 -5.83301 -7 -8.5l-19.5 -19.5l-28.5 -27.5c-10 -9.33301 -18.833 -18.5 -26.5 -27.5s-11.5 -14.167 -11.5 -15.5c12 -56 20.333 -101 25 -135c6.66699 -20.667 11.667 -40.834 15 -60.501s7 -39.167 11 -58.5h459v-51h-254
c66.667 -36.667 118.167 -87.167 154.5 -151.5s54.5 -133.166 54.5 -206.499h45v-52h-47c-4 -27.333 -10.333 -53.666 -19 -78.999c-17.333 -48 -40.666 -89.5 -69.999 -124.5s-64 -63.833 -104 -86.5c-8 -6 -19.5 -11.667 -34.5 -17s-22.5 -14 -22.5 -26v-7l2 -18h295v-51z
M381.002 358.006c4 -28.667 15 -55.167 33 -79.5s43.333 -45.5 76 -63.5c14.667 0 22 -5.33301 22 -16c0 -7.33301 -4.66699 -11 -14 -11c-43.333 8.66699 -81 26.667 -113 54c-40.667 32.667 -69.334 71.334 -86.001 116.001h-196
c10.667 -44.667 29.334 -86.5 56.001 -125.5s58.5 -72.5 95.5 -100.5s77.667 -49.833 122 -65.5s89.5 -23.5 135.5 -23.5c1.33301 0 9.5 1 24.5 3s30.833 4.33301 47.5 7s31.834 5.83398 45.501 9.50098s20.5 6.83398 20.5 9.50098c-6 9.33301 -9 21.666 -9 36.999
c-6.66699 31.333 -12.334 61.666 -17.001 90.999s-12 59.666 -22 90.999l-12 67h-209zM285.002 410.006c-1.33301 1.33301 -2.00098 10.6689 -2.00098 28.002c-1.33301 7.33301 -2 17.666 -2 30.999c0 34 5.5 67 16.5 99s25.167 61.667 42.5 89
c12.667 15.333 25.834 30.166 39.501 44.499s28.5 27.5 44.5 39.5c1.33301 1.33301 6.83301 4.5 16.5 9.5s19.834 10.833 30.501 17.5h-270c-32.667 -49.333 -58.834 -101 -78.501 -155s-29.5 -109.667 -29.5 -167v-36h192zM666.001 1638.01
c2.66699 7.33301 4.66699 13.667 6 19s3.33301 10.666 6 15.999c5.33301 16.667 10.166 34.834 14.499 54.501s6.5 39.167 6.5 58.5c0 28.667 -6.33301 54.667 -19 78c-13.333 27.333 -32.333 41 -57 41c-23.333 0 -46.166 -8.66699 -68.499 -26
s-39.166 -33.333 -50.499 -48c-32.667 -54.667 -57.334 -119 -74.001 -193h236zM639.001 358.01c10 -44.667 19.333 -89.834 28 -135.501s18.667 -90.5 30 -134.5c52 19.333 89.833 49.833 113.5 91.5s35.5 87.5 35.5 137.5v21c0 6.66699 -0.666992 13.334 -2 20.001h-205z
M449.001 1327.01c42 22 79.833 58.168 113.5 108.501s61.5 100.833 83.5 151.5h-224c-4 -28.667 -6 -57.334 -6 -86.001c0 -66.667 11 -124.667 33 -174zM588.001 616.011l20.5 -104l20.5 -102h205c-15.333 57.333 -43.833 106 -85.5 146s-95.167 60 -160.5 60z
M496.001 819.011c-9.33301 36.667 -16.833 72.166 -22.5 106.499s-12.5 69.833 -20.5 106.5c-36.667 -31.333 -73.5 -64.666 -110.5 -99.999s-71.167 -73 -102.5 -113h256zM543.001 610.01c-48 -14.667 -86.3311 -40.833 -114.998 -78.5s-45 -78.167 -49 -121.5h201
c-6.66699 32.667 -12.834 65.667 -18.501 99s-11.834 67 -18.501 101zM658.003 2.01074c-6.66699 8 -15.002 12.001 -25.002 12.001c-8 0 -16.167 -1.33301 -24.5 -4s-15.166 -5.33398 -20.499 -8.00098c-1.33301 -1.33301 -2.66602 -2 -3.99902 -2h74v2z" />
    <glyph glyph-name="quotesingle" unicode="'" 
d="M496 1638v-51h-461v-358h461v-51h-461v-359h461v-51h-461v-358h461v-52h-461v-358h461v-51h-512v1689h512z" />
    <glyph glyph-name="parenleft" unicode="(" horiz-adv-x="992" 
d="M-16 1638h1024v-51h-563v-358h563v-51h-563v-359h563v-51h-563v-358h563v-52h-563v-358h563v-51h-1024v1689zM394 1229v358h-205v-358h205zM189 1178v-359h205v359h-205zM189 0h205v358h-205v-358zM189 768v-358h205v358h-205zM803 999
c1.33301 -27.333 -9.16699 -51.166 -31.5 -71.499s-45.833 -30.5 -70.5 -30.5c-23.333 0 -46.333 9.16699 -69 27.5s-34 43.166 -34 74.499c0 26 9.33301 49.667 28 71s43.667 32 75 32c32.667 0 58.5 -11 77.5 -33s27.167 -45.333 24.5 -70zM803 590
c1.33301 -27.333 -9.16699 -51.332 -31.5 -71.999s-45.833 -31 -70.5 -31c-23.333 0 -46.333 9.33301 -69 28s-34 43.667 -34 75c0 26 9.33301 49.5 28 70.5s43.667 31.5 75 31.5c32.667 0 58.5 -10.833 77.5 -32.5s27.167 -44.834 24.5 -69.501z" />
    <glyph glyph-name="parenright" unicode=")" horiz-adv-x="992" 
d="M1008 1638v-1689h-1024v51h512v358h-512v52h512v358h-512v51h512v359h-512v51h512v358h-512v51h1024zM803 1587h-205v-358h205v358zM803 768h-205v-358h205v358zM803 1178h-205v-359h205v359zM803 0v358h-205v-358h205zM291 999
c1.33301 -27.333 -9.16699 -51.166 -31.5 -71.499s-45.833 -30.5 -70.5 -30.5c-23.333 0 -46.333 9.16699 -69 27.5s-34 43.166 -34 74.499c0 26 9.33301 49.667 28 71s43.667 32 75 32c32.667 0 58.5 -11 77.5 -33s27.167 -45.333 24.5 -70zM291 592
c1.33301 -27.333 -9.16699 -51.332 -31.5 -71.999s-45.833 -31 -70.5 -31c-23.333 0 -46.333 9.33301 -69 28s-34 43.667 -34 75c0 26 9.33301 49.5 28 70.5s43.667 31.5 75 31.5c32.667 0 58.5 -10.833 77.5 -32.5s27.167 -44.834 24.5 -69.501z" />
    <glyph glyph-name="asterisk" unicode="*" horiz-adv-x="20" 
d="M35 -51h-51v51h51v-51zM35 1587h-51v51h51v-51zM35 1178h-51v51h51v-51zM35 768h-51v51h51v-51zM35 358h-51v52h51v-52zM35 -139c0 -16.667 8.16699 -29.334 24.5 -38.001s35.833 -15.167 58.5 -19.5s45.667 -6.83301 69 -7.5s41 -1 53 -1s29.667 0.333008 53 1
s46.333 3.16699 69 7.5s42.167 10.833 58.5 19.5s24.5 21.334 24.5 38.001h51c-12 -52 -38.167 -93 -78.5 -123s-99.5 -45 -177.5 -45s-137.167 15 -177.5 45s-66.5 71 -78.5 123h51z" />
    <glyph glyph-name="plus" unicode="+" horiz-adv-x="20" 
d="M35 -51h-51v51h51v-51zM35 768h-51v51h51v-51zM35 1178h-51v51h51v-51zM35 1587h-51v51h51v-51zM35 358h-51v52h51v-52zM455 -512c-40.667 0 -88.001 7.16602 -142.001 21.499s-105.667 36.5 -155 66.5s-90.666 68.5 -123.999 115.5s-50 103.5 -50 169.5h51
c27.333 -40 51.333 -76.667 72 -110s46.334 -62 77.001 -86s70.5 -42.5 119.5 -55.5s114.5 -19.5 196.5 -19.5c76.667 0 139.834 7.5 189.501 22.5s91 34.833 124 59.5s60 53.334 81 86.001s41.833 67 62.5 103h51c0 -70 -16.667 -128.5 -50 -175.5
s-74.333 -85.167 -123 -114.5s-100.334 -50.5 -155.001 -63.5s-102.334 -19.5 -143.001 -19.5h-82z" />
    <glyph glyph-name="comma" unicode="," horiz-adv-x="20" 
d="M705 -633c-94 0 -183.331 14.333 -267.998 43s-172.334 74.334 -263.001 137.001c-5.33301 0 -18.166 14 -38.499 42s-41.833 59.5 -64.5 94.5s-42.834 68.5 -60.501 100.5s-26.5 52 -26.5 60c0 1.33301 3 4.5 9 9.5s9.66699 7.5 11 7.5c23.333 0 44.333 -9 63 -27
s35.5 -39.167 50.5 -63.5s29 -48.833 42 -73.5s25.5 -43.667 37.5 -57c90 -66 181.5 -110.5 274.5 -133.5s186.5 -34.5 280.5 -34.5c90 0 178.333 12.833 265 38.5s173 67.167 259 124.5c10 12.667 23.167 31.667 39.5 57s34.333 50.5 54 75.5s40.5 46.833 62.5 65.5
s43.667 28 65 28c3.33301 0 8 -3.5 14 -10.5s9 -11.833 9 -14.5c0 -10.667 -11.333 -31.667 -34 -63s-47.667 -63.833 -75 -97.5l-73.5 -89.5c-21.667 -26 -31.834 -39 -30.501 -39c-88.667 -62.667 -174 -108.334 -256 -137.001s-170 -43 -264 -43h-82zM35.002 -51h-51v51
h51v-51zM35.002 768h-51v51h51v-51zM35.002 1178h-51v51h51v-51zM35.002 1587h-51v51h51v-51zM35.002 358h-51v52h51v-52z" />
    <glyph glyph-name="hyphen" unicode="-" horiz-adv-x="20" 
d="M36 358h-52v52h52v-52zM36 1587h-52v51h52v-51zM36 1178h-52v51h52v-51zM36 768h-52v51h52v-51zM36 -51h-52v51h52v-51z" />
    <glyph glyph-name="period" unicode="." 
d="M496 -51h-512v51h102v358h-102v52h102v358h-102v51h102v359h-102v51h102v358h-102v51h512v-1689zM138 1178v-359h151v359h-151zM138 1587v-358h151v358h-151zM138 768v-358h151v358h-151zM289 358h-151v-358h151v358z" />
    <glyph glyph-name="slash" unicode="/" horiz-adv-x="1536" 
d="M0 1794h1419v-2177h-1419v2177zM51 434h230v338h-230v-338zM51 823h230v338h-230v-338zM877 434h227v338h-227v-338zM877 823h227v338h-227v-338zM332 772v-338h221v338h-221zM51 1212h230v324h-230v-324zM332 823h221v338h-221v-338zM825 434v338h-221v-338h221z
M877 1212h227v324h-227v-324zM604 1161v-338h221v338h-221zM332 1212h221v324h-221v-324zM604 1212h221v324h-221v-324zM1155 434h213v338h-213v-338zM1368 823v338h-213v-338h213zM1155 1536v-324h213v324h-213zM51 51h230v332h-230v-332zM877 51h227v332h-227v-332z
M332 51h221v332h-221v-332zM825 383h-221v-332h221v332zM1155 51h213v332h-213v-332zM51 -332h230v332h-230v-332zM877 -332h227v332h-227v-332zM332 -332h221v332h-221v-332zM825 0h-221v-332h221v332zM1155 -332h213v332h-213v-332z" />
    <glyph glyph-name="zero" unicode="0" horiz-adv-x="992" 
d="M1008 358l-1024 -0.00195312v52h215c-13.333 6.66699 -25.666 15.334 -36.999 26.001c-54.667 41.333 -95.667 96 -123 164c-10.667 26 -19.5 53.667 -26.5 83s-11.833 57.666 -14.5 84.999h-14v51h12c2.66699 60 20.667 116.667 54 170
c30 57.333 75 106.666 135 147.999c13.333 8 26.5 15.333 39.5 22s27.167 13 42.5 19h-283v51h1024v-51h-545c10 -4.66699 17.333 -8 22 -10s11.667 -4.33301 21 -7c22 -10.667 42.5 -22.5 61.5 -35.5s36.167 -29.167 51.5 -48.5c31.333 -35.333 47 -76.333 47 -123
c0 -39.333 -13 -74 -39 -104c-16.667 -15.333 -33 -25.666 -49 -30.999h430v-51h-805c0 -108 4.66699 -170.667 14 -188c24.667 -101.333 85 -152 181 -152c73.333 0 134 41 182 123c10.667 23.333 20.167 46.833 28.5 70.5s14.5 48.5 18.5 74.5h47
c-4 -47.333 -14.167 -90.166 -30.5 -128.499s-38.166 -73.166 -65.499 -104.499c-20.667 -22 -44 -39.667 -70 -53h500v-52zM468.998 818.998c-34 16.667 -56.333 51 -67 103c0 34 11 62 33 84c20 25.333 45.667 41.666 77 48.999l17 2l16 6l6 12
c-5.33301 22 -24.333 38.333 -57 49c-26 14 -55.333 21 -88 21s-62.667 -9.66699 -90 -29c-12.667 -5.33301 -26.334 -15.666 -41.001 -30.999c-11.333 -10.667 -21.666 -22.667 -30.999 -36c-27.333 -52 -41 -128.667 -41 -230h266zM1008 1587h-1024v51h1024v-51z
M1008 -51.002h-1024v51h1024v-51z" />
    <glyph glyph-name="one" unicode="1" horiz-adv-x="992" 
d="M1008 -51h-1024v65l172 189c23.333 27.333 47.333 53.5 72 78.5s47.667 50.5 69 76.5h-313v52h354c15.333 21.333 27.833 42.333 37.5 63s14.5 40.334 14.5 59.001c0 49.333 -16.833 89 -50.5 119s-79.167 45 -136.5 45c-23.333 0 -42.5 -2 -57.5 -6
s-28.667 -11.5 -41 -22.5s-23.833 -26 -34.5 -45s-23 -42.833 -37 -71.5h-49c10.667 42 22.5 73.667 35.5 95s29.833 42.333 50.5 63c34 30 67.333 49.667 100 59h-186v63l172 189c23.333 27.333 47.666 54 72.999 80s48.666 52 69.999 78h-315v51h356
c33.333 42 50 81.667 50 119c0 50 -16.833 90 -50.5 120s-79.167 45 -136.5 45c-23.333 0 -42.5 -2 -57.5 -6s-28.667 -11.833 -41 -23.5s-23.833 -26.667 -34.5 -45s-23 -41.833 -37 -70.5h-49c10.667 42.667 22.5 74.167 35.5 94.5s29.833 41.5 50.5 63.5
c31.333 28.667 67.666 49 108.999 61h-195v51h1024v-51h-672c49.333 -13.333 89.666 -37.5 120.999 -72.5s47 -74.833 47 -119.5c0 -28.667 -5.16699 -56.334 -15.5 -83.001s-25.5 -54.334 -45.5 -83.001h565v-51h-606c-11.333 -11.333 -22.333 -23.166 -33 -35.499
s-23 -24.5 -37 -36.5l-201 -201h420v-86h457v-51h-664c48 -15.333 86.667 -40 116 -74s44 -72.667 44 -116c0 -57.333 -21 -113.333 -63 -168h567v-52h-610c-7.33301 -10.667 -29.333 -33 -66 -67l-201 -201h420v-90h457v-51z" />
    <glyph glyph-name="two" unicode="2" horiz-adv-x="992" 
d="M1008 358l-553 0.00195312v-94h135v-76h-135v-188h553v-51h-1024v51h369v188h-369v76l76 94h-76v52h117l286 358h-403v51h53v10l170 189c23.333 27.333 48 54 74 80s50 52.667 72 80h-369v51h410c14.667 20.667 26.5 40.5 35.5 59.5s13.5 38.167 13.5 57.5
c0 50 -17.167 90 -51.5 120s-80.166 45 -137.499 45c-21.333 0 -39.5 -2 -54.5 -6s-28.667 -11.833 -41 -23.5s-24 -26.667 -35 -45s-23.5 -41.833 -37.5 -70.5h-49c11.333 42.667 23 74.167 35 94.5s28.333 41.5 49 63.5c34 30 73 51 117 63h-254v51h1024v-51h-629
c52 -12 94.333 -35.833 127 -71.5s49 -76.5 49 -122.5c0 -54.667 -19 -109.334 -57 -164.001h510v-51h-551c-10.667 -12.667 -21.834 -24.834 -33.501 -36.501l-38.5 -37.5l-202 -201h419v-84h406v-51h-553v-358h553v-52zM62 264.002h291v94h-213zM181 410.002h172v208z" />
    <glyph glyph-name="three" unicode="3" horiz-adv-x="992" 
d="M1008 358l-552.997 0.00195312v-94h135v-76h-135v-188h553v-51h-1024v51h369v188h-369v76l76 94h-76v52h117l289 358h-406v51h184c-47.333 8 -71 25.667 -71 53c0 14 4 22.667 12 26s21.667 5 41 5h10c9.33301 0 18.833 -1 28.5 -3s23.5 -7.66699 41.5 -17
c16 -7.33301 30.167 -13 42.5 -17s24.166 -6 35.499 -6c13.333 0 28.333 3.33301 45 10l59 21c18 6.66699 33.167 15.167 45.5 25.5s22.5 23 30.5 38s14 34.833 18 59.5c1.33301 5.33301 2 13.333 2 24c0 30 -8.16699 57 -24.5 81s-38.166 43.667 -65.499 59h-434v51h254v12
c24.667 4 45.167 7.66699 61.5 11s30.666 7.16602 42.999 11.499s23.666 9.5 33.999 15.5s20.833 13 31.5 21c18 15.333 35.833 36 53.5 62s26.5 50.667 26.5 74c0 38 -14.333 65.167 -43 81.5s-65.667 24.5 -111 24.5c-42 0 -76.667 -10.167 -104 -30.5
s-56 -52.5 -86 -96.5h-43c14.667 36.667 27.167 63.667 37.5 81s26.5 34 48.5 50c22 18 48 31.667 78 41h-281v51h1024v-51h-555c38 -12 69 -30.667 93 -56s36 -55 36 -89c0 -32.667 -8.83301 -65.5 -26.5 -98.5s-49.834 -63.167 -96.501 -90.5
c15.333 -6.66699 27.333 -11.667 36 -15s15.667 -6.33301 21 -9h492v-51h-436c10.667 -14 19.5 -28.5 26.5 -43.5s10.5 -34.167 10.5 -57.5c0 -87.333 -35 -153.333 -105 -198c-22 -16.667 -47.333 -29.834 -76 -39.501s-58.667 -16.5 -90 -20.5h670v-51h-553v-358h553v-52z
M62.0029 264.002h291v94h-213zM181.003 410.002h172v208z" />
    <glyph glyph-name="four" unicode="4" horiz-adv-x="992" 
d="M1008 358h-553v-94h135v-76h-135v-188h553v-51h-1024v51h369v188h-369v76l76 94h-76v52h117l289 358h-406v51h369v191h-369v75l74 93h-74v51h115l288 358h-403v51h1024v-51h-553v-358h553v-51h-553v-93h135v-75h-135v-191h553v-51h-553v-358h553v-52zM62 264h291v94h-213
zM62 1085h291v93h-215zM179 1229h174v211zM181 410h172v208z" />
    <glyph glyph-name="five" unicode="5" horiz-adv-x="992" 
d="M1008 -51l-1024 -0.000976562v51h25v14l172 189c22.667 27.333 46.334 53.5 71.001 78.5l72 76.5h-340v52h379c16 21.333 28.833 42 38.5 62s14.5 39.333 14.5 58c0 50.667 -17 91 -51 121s-79.667 45 -137 45c-23.333 0 -42.5 -2 -57.5 -6s-28.667 -11.833 -41 -23.5
s-24 -26.667 -35 -45s-23.167 -41.833 -36.5 -70.5h-49c10.667 42 22.5 73.333 35.5 94s29.833 42 50.5 64c34 30 67.333 49.667 100 59h-211v51h115c-41.333 8 -62 25 -62 51c0 14 4.5 22.667 13.5 26s21.5 5 37.5 5h11c9.33301 0 18.833 -1 28.5 -3
s23.167 -7.66699 40.5 -17c16.667 -8.66699 31.5 -14.334 44.5 -17.001s24.833 -4 35.5 -4c14 0 28.333 2 43 6l60.5 21c18.333 6.66699 34.333 15.167 48 25.5s24.667 23.333 33 39s13.833 35.834 16.5 60.501v14c0 32.667 -9.16699 62.334 -27.5 89.001
s-43.5 47.667 -75.5 63h-362v51h197v8c24 4 44.333 7.66699 61 11s31 7.16602 43 11.499s22.833 9.16602 32.5 14.499s20.167 12.666 31.5 21.999c16 16.667 33.167 37.667 51.5 63s27.5 49.666 27.5 72.999c0 38 -14.333 65.167 -43 81.5s-64.667 24.5 -108 24.5
c-44 0 -80 -10.167 -108 -30.5s-56.333 -52.5 -85 -96.5h-45c15.333 36.667 28.833 63.667 40.5 81s27.5 33.333 47.5 48c24.667 20.667 52.667 36.334 84 47.001h-227v51h1024v-51h-618c39.333 -12 71.333 -30.667 96 -56s37 -55.666 37 -90.999
c0 -32.667 -9.33301 -65.5 -28 -98.5s-49.667 -63.167 -93 -90.5c12 -5.33301 22.167 -9.66602 30.5 -12.999s15.166 -6.33301 20.499 -9h555v-51h-496c12.667 -15.333 22.334 -30.166 29.001 -44.499s10 -33.833 10 -58.5c0 -87.333 -36 -153.333 -108 -198
c-38.667 -30.667 -88.667 -50 -150 -58h715v-51h-639c48 -15.333 86.667 -40 116 -74s44 -72.667 44 -116c0 -57.333 -21.333 -113.333 -64 -168h543v-52h-584l-32.5 -33.5l-34.5 -35.5l-201 -201h420v-88h432v-51z" />
    <glyph glyph-name="six" unicode="6" horiz-adv-x="992" 
d="M1008 819v-50.9951h-586c41.333 -12 71.833 -34.167 91.5 -66.5s29.5 -66.833 29.5 -103.5c0 -19.333 -1 -36.833 -3 -52.5s-7.5 -31 -16.5 -46s-22.333 -29.667 -40 -44s-41.5 -29.5 -71.5 -45.5h596v-52h-524c36.667 -27.333 67.667 -56.666 93 -87.999
s38 -65.333 38 -102c0 -52 -13.667 -90.333 -41 -115s-63.666 -42.334 -108.999 -53.001h543v-51h-1024v51h178c-50.667 13.333 -93 31.666 -127 54.999s-51 61 -51 113c0 18 4.5 36.5 13.5 55.5s20.667 37 35 54s30.666 32.667 48.999 47s37.166 25.5 56.499 33.5h-154v52
h209c-28.667 20 -51.5 37.833 -68.5 53.5s-29.667 30.667 -38 45s-13.833 28.333 -16.5 42s-4 29.5 -4 47.5c0 39.333 10.833 74.166 32.5 104.499s55.834 52.166 102.501 65.499h-217v51h205c-40 11.333 -72.167 27.5 -96.5 48.5s-43.333 45.833 -57 74.5
s-22.667 60 -27 94s-6.5 69.667 -6.5 107v35h-18v51h25c9.33301 42 23.5 83.167 42.5 123.5s43.167 76.166 72.5 107.499s63.5 58.333 102.5 81s83.167 38 132.5 46h-375v51h1024v-51h-522v-71c-109.333 0 -196.166 -26 -260.499 -78s-105.833 -121.667 -124.5 -209
l34.5 27.5c11 9 23.667 16.833 38 23.5s31.666 12.167 51.999 16.5s47.166 6.5 80.499 6.5c35.333 0 63.5 -1.83301 84.5 -5.5s38.667 -8.5 53 -14.5s26.333 -13.5 36 -22.5s19.834 -19.5 30.501 -31.5h498v-51h-463c9.33301 -15.333 17.5 -32.833 24.5 -52.5
s10.5 -39.834 10.5 -60.501c0 -68 -14 -122.5 -42 -163.5s-76 -68.5 -144 -82.5h614zM127 1178c-6.66699 -2.66699 -11.999 -5.83301 -15.999 -9.5s-6.66699 -10.167 -8 -19.5c0 -32.667 2.33301 -64.667 7 -96s14.5 -59.666 29.5 -84.999s35.5 -45.5 61.5 -60.5
s61 -22.5 105 -22.5c58.667 0 102 17.333 130 52s42 76 42 124c0 26 -4.83301 49.167 -14.5 69.5s-19.834 36.166 -30.501 47.499h-306zM285.001 358.006c-43.333 -27.333 -81.167 -57.667 -113.5 -91s-48.5 -69 -48.5 -107c0 -20.667 5.5 -37.5 16.5 -50.5
s25.667 -23.5 44 -31.5s39.166 -13.5 62.499 -16.5s46.666 -4.5 69.999 -4.5c24.667 0 47.834 2.16699 69.501 6.5s41.334 10.833 59.001 19.5s31.667 19.5 42 32.5s15.5 27.833 15.5 44.5c0 31.333 -16 64.333 -48 99s-74.667 67.667 -128 99h-41zM316 455.005l54 32.501
c16 9.66699 29 19.167 39 28.5s17.833 20.5 23.5 33.5s8.5 29.167 8.5 48.5c0 40.667 -13 69.667 -39 87s-55.333 26 -88 26c-44 0 -79 -11 -105 -33s-39 -48.667 -39 -80c0 -16.667 1.5 -30.334 4.5 -41.001s9.16699 -21.167 18.5 -31.5s22.5 -21 39.5 -32
s39.167 -23.833 66.5 -38.5h17z" />
    <glyph glyph-name="seven" unicode="7" horiz-adv-x="992" 
d="M1008 358l-642.998 -0.00195312v-241h-90v241h-291v52h254c-46.667 21.333 -93 57.333 -139 108c-57.333 61.333 -88 144.666 -92 249.999h-23v51h23c5.33301 80.667 31 152.334 77 215.001c27.333 35.333 57.833 65 91.5 89s66.834 41 99.501 51v4h-291v51h291v223h94
v-223h639v-51h-584c11.333 -2.66699 23.166 -6.16699 35.499 -10.5l36.5 -12.5c45.333 -13.333 83.666 -40.666 114.999 -81.999c27.333 -35.333 41 -78.333 41 -129c0 -49.333 -22.667 -87 -68 -113l-49 -12h473v-51h-639v-319c20.667 2.66699 38.167 5.33398 52.5 8.00098
s28.666 6.33398 42.999 11.001s25.5 11 33.5 19c16.667 14 32.167 29.167 46.5 45.5s26.166 34.833 35.499 55.5c26 46 39 85 39 117h39c-12.667 -105.333 -47 -184 -103 -236c-31.333 -28.667 -62.666 -48.334 -93.999 -59.001h547v-52zM1008 1587h-1024v51h1024v-51z
M1008 -51.002h-1024v51h1024v-51zM498.002 818.998c-10.667 2.66699 -19.167 6.49707 -25.5 11.4971s-12.833 13.5 -19.5 25.5c-6.66699 9.33301 -11.334 18.5 -14.001 27.5s-5.66699 21.167 -9 36.5v6c0 14.667 2.5 28.834 7.5 42.501s10.833 26.167 17.5 37.5
c5.33301 10.667 12.833 20.834 22.5 30.501s21.167 15.834 34.5 18.501c20.667 0 31 5.33301 31 16c0 6.66699 -7.33301 16.334 -22 29.001l-58 24c-5.33301 1.33301 -13.5 3.16602 -24.5 5.49902s-21.833 3.5 -32.5 3.5c-15.333 0 -27.666 -1.66699 -36.999 -5v-309h129z
M162.002 683.995c6.66699 -39.333 13.833 -71.668 21.5 -97.001s16 -45.833 25 -61.5s18.833 -27.667 29.5 -36s23 -15.166 37 -20.499v299h-113v-84zM275.001 1103.99c-1.33301 -1.33301 -7.83301 -7.5 -19.5 -18.5s-26.667 -34.167 -45 -69.5s-34.5 -83.333 -48.5 -144
v-53h113v285z" />
    <glyph glyph-name="eight" unicode="8" 
d="M496 1178l-18.001 -0.00390625l-123 -359h141v-51h-160l-125 -358h285v-52h-512v52h174l125 358h-18c-24.667 -19.333 -46.334 -33 -65.001 -41s-45 -13.333 -79 -16c-8 0 -18.167 1.33301 -30.5 4s-24.666 6.33398 -36.999 11.001s-23.666 10.834 -33.999 18.501
s-16.833 15.5 -19.5 23.5h-16v68c0 31.333 10.167 58.833 30.5 82.5s47.166 35.5 80.499 35.5c20 0 43.667 -12 71 -36c16.667 -24.667 25 -52 25 -82l-8 -17h96c5.33301 2.66699 10.333 5.83398 15 9.50098s10 8.16699 16 13.5l114 336h-18
c-24.667 -19.333 -46.167 -33.166 -64.5 -41.499s-44.5 -13.833 -78.5 -16.5c-8.66699 0 -19.167 1.33301 -31.5 4s-24.5 6.5 -36.5 11.5s-23.167 11.167 -33.5 18.5s-16.833 15.333 -19.5 24h-158v51h141v16c0 31.333 10.333 59 31 83s47.334 36 80.001 36
c20.667 0 44.667 -12.333 72 -37c16 -24.667 24 -52 24 -82l-8 -16h172v-51zM495.999 -51.0039h-512v51h512v-51zM495.999 1587h-512v51h512v-51z" />
    <glyph glyph-name="nine" unicode="9" 
d="M140 358l-155.999 0.00390625v52h170l100 358h-270v51h285l47 170c-26 -23.333 -51 -41.5 -75 -54.5s-49 -19.5 -75 -19.5c-20 0 -41 4.5 -63 13.5s-46 23.833 -72 44.5c-16 13.333 -27.833 29.666 -35.5 48.999s-11.5 39 -11.5 59c0 37.333 10.333 69.666 31 96.999h-31
v51h512v-51h-297c20.667 -24.667 31 -56.334 31 -95.001c-2.66699 -10.667 -6.83398 -20.834 -12.501 -30.501s-8.5 -17.834 -8.5 -24.501c0 -8 5.66699 -14 17 -18c4 -1.33301 10.667 -2 20 -2c18 0 35.5 5.33301 52.5 16s32 22.834 45 36.501s27.167 31.5 42.5 53.5h34
c-13.333 -50.667 -26.833 -99.167 -40.5 -145.5l-43.5 -149.5h160v-51h-174l-52.5 -184c-18.333 -61.333 -34.833 -119.333 -49.5 -174h276v-52h-291c-2.66699 -9.33301 -5 -18.5 -7 -27.5s-4.33301 -16.833 -7 -23.5h-66zM496.001 1587h-512v51h512v-51zM496.001 -50.9961
h-512v51h512v-51z" />
    <glyph glyph-name="colon" unicode=":" 
d="M496 358l-341.999 0.000976562l-4 -16c-1.33301 -5.33301 -2 -10.666 -2 -15.999c0 -4.66699 2 -15.5 6 -32.5s9.83301 -35 17.5 -54s16.834 -37.333 27.501 -55s23.667 -29.167 39 -34.5l-25 -48c-14.667 8.66699 -32 21.167 -52 37.5s-40.167 35.666 -60.5 57.999
s-40.333 47.166 -60 74.499s-36.5 56 -50.5 86h-6v52c0 43.333 15 78 45 104s67 39 111 39c20 0 39 -1.33301 57 -4s39 -10.334 63 -23.001l-178 242h-98v51h59l-32 45c65.333 62.667 111.333 116.334 138 161.001s40 86 40 124c0 4 -1.33301 8.33301 -4 13s-4 10 -4 16
h-197v51h174c-8 24.667 -20.167 50.334 -36.5 77.001s-35.5 55.667 -57.5 87h82l133 -164h217v-51h-174l98 -121c-23.333 -24.667 -46.5 -54.5 -69.5 -89.5s-53.833 -84.5 -92.5 -148.5h238v-51h-254c0 -13.333 5.16699 -35.5 15.5 -66.5s23.666 -63.833 39.999 -98.5
s34.666 -68.334 54.999 -101.001s40.833 -58 61.5 -76l-18 -16h100v-52zM496.001 -50.999h-512v51h512v-51zM496.001 1587h-512v51h512v-51zM353.001 410.001c-11.333 6.66699 -25.5 16.167 -42.5 28.5s-39.167 18.5 -66.5 18.5c-14.667 0 -27.5 -5.16699 -38.5 -15.5
s-20.5 -20.833 -28.5 -31.5h176z" />
    <glyph glyph-name="semicolon" unicode=";" horiz-adv-x="992" 
d="M1008 768h-1024v215h717v-164h307v-51zM1008 1587h-1024v51h1024v-51zM1008 1178h-1024v51h1024v-51zM1008 358h-1024v52h1024v-52zM1008 -51h-1024v51h1024v-51z" />
    <glyph glyph-name="less" unicode="&#x3c;" horiz-adv-x="992" 
d="M1008 1178h-307v-164h-717v215h1024v-51zM1008 -51h-1024v51h1024v-51zM1008 768h-1024v51h1024v-51zM1008 358h-1024v52h1024v-52zM1008 1587h-1024v51h1024v-51z" />
    <glyph glyph-name="equal" unicode="=" 
d="M496 410v-52h-512v52h512zM496 1638v-51h-512v51h512zM496 1229v-51h-512v51h512zM496 819v-51h-512v51h512zM496 0v-51h-512v51h512z" />
    <glyph glyph-name="greater" unicode="&#x3e;" horiz-adv-x="20" 
d="M572 1958c0 36.667 -6.16504 71.333 -18.498 104s-29.166 60.667 -50.499 84s-47 41.833 -77 55.5s-62.667 20.5 -98 20.5c-32.667 0 -63.334 -7.16699 -92.001 -21.5s-54.334 -33.833 -77.001 -58.5s-40.5 -53 -53.5 -85s-19.5 -65 -19.5 -99h-102
c0 48 8.5 94.167 25.5 138.5s40.833 83.166 71.5 116.5c30.667 33.333 67.167 60.166 109.5 80.5c42.333 20.333 88.166 30.5 137.499 30.5s95.166 -10.167 137.499 -30.5s78.833 -47.166 109.5 -80.5c30.667 -33.333 54.834 -72.166 72.501 -116.5
c17.667 -44.333 26.5 -90.5 26.5 -138.5h-102zM430.002 2005c0 -32.667 -10.168 -57.168 -30.501 -73.501s-44.166 -24.5 -71.499 -24.5c-68 0 -102 36.667 -102 110c0 31.333 9.83301 54.833 29.5 70.5s43.834 23.5 72.501 23.5c27.333 0 51.166 -9.16699 71.499 -27.5
s30.5 -43.166 30.5 -74.499v-4zM36.001 1587h-52v51h52v-51zM36.001 -51.002h-52v51h52v-51zM36.001 357.998h-52v52h52v-52zM36.001 767.998h-52v51h52v-51zM36.001 1178h-52v51h52v-51z" />
    <glyph glyph-name="question" unicode="?" horiz-adv-x="20" 
d="M572 2359c0 37.333 -6.16504 72.333 -18.498 105s-29.166 60.667 -50.499 84s-47 41.666 -77 55c-30 13.333 -62.667 20 -98 20c-32.667 0 -63.334 -7.16699 -92.001 -21.5s-54.334 -33.666 -77.001 -58c-22.667 -24.333 -40.5 -52.666 -53.5 -85
c-13 -32.333 -19.5 -65.5 -19.5 -99.5h-102c0 48 8.5 94.167 25.5 138.5s40.833 83.166 71.5 116.5c30.667 33.333 67.167 60.333 109.5 81s88.166 31 137.499 31s95.166 -10.333 137.499 -31s78.833 -47.667 109.5 -81s54.834 -72.166 72.501 -116.5
c17.667 -44.333 26.5 -90.5 26.5 -138.5h-102zM430.002 2406c0 -32.667 -10.168 -57.167 -30.501 -73.5s-44.166 -24.5 -71.499 -24.5c-68 0 -102 37 -102 111c0 31.333 9.83301 54.833 29.5 70.5s43.834 23.5 72.501 23.5c27.333 0 51.166 -9.16699 71.499 -27.5
s30.5 -43.5 30.5 -75.5v-4zM36.001 768h-52v51h52v-51zM36.001 1178h-52v51h52v-51zM36.001 1587h-52v51h52v-51zM36.001 358h-52v52h52v-52zM36.001 -51h-52v51h52v-51z" />
    <glyph glyph-name="at" unicode="@" 
d="M496 358l-79.999 -0.000976562c2.66699 -17.333 6.5 -33.166 11.5 -47.499l15.5 -42.5c9.33301 -34 24.333 -65.333 45 -94l35 -43l49 -59l90 -90c68 -89.333 102 -182.333 102 -279c0 -23.333 -2 -49 -6 -77s-12 -57 -24 -87c-10 -23.333 -18 -42.833 -24 -58.5
s-14.667 -32.834 -26 -51.501l-30 -2l35 90l12 36.5c4 12.333 7.33301 25.833 10 40.5l6 56l2 24v41l-8 33l-16 49c-14 42.667 -37.333 81 -70 115c-30 38 -62.667 66 -98 84c-14 2.66699 -24.333 4 -31 4v-51h-86v-359h152v-51h-152v-325c0 -18 -2 -29 -6 -33h158v-51h-175
c-4 -7.33301 -7 -13.666 -9 -18.999s-6.33301 -12 -13 -20c-9.33301 -15.333 -22.666 -30.5 -39.999 -45.5s-38 -27.833 -62 -38.5c-22 -11.333 -44.333 -19.333 -67 -24s-45.667 -7 -69 -7c-42 0 -75.333 10.333 -100 31c-28.667 20 -43 52 -43 96v27h-150v51h162
c2.66699 6.66699 7.16699 14.167 13.5 22.5s11.5 14.5 15.5 18.5c13.333 16 28.666 30.833 45.999 44.5s37.333 26.167 60 37.5c45.333 20 86.333 30 123 30c30 0 52.167 -3 66.5 -9s27.166 -14.333 38.499 -25v239h-525v51h525v359h-375v51h375v358h-375v52h512v-52z
M496.001 1178h-512v51h512v-51zM496.001 767.999h-512v51h512v-51zM496.001 1587h-512v51h512v-51zM490.001 -0.000976562c-15.333 5.33301 -29.832 9.66699 -43.499 13s-25.834 5 -36.501 5v-18h80z" />
    <glyph glyph-name="A" unicode="A" 
d="M496 -51h-85.9971v-359h155v-51h-155v-119c0 -42 -15 -82 -45 -120c-9.33301 -15.333 -22.666 -30.833 -39.999 -46.5s-38 -28.834 -62 -39.501c-42.667 -22 -87.334 -33 -134.001 -33c-42 0 -76 11 -102 33c-15.333 10.667 -26.333 24.5 -33 41.5s-10 35.833 -10 56.5
s3 40.834 9 60.501s16.667 38.5 32 56.5c13.333 16 28.666 31.5 45.999 46.5s37.333 28.167 60 39.5c15.333 9.33301 30.5 15.333 45.5 18s30.167 4.66699 45.5 6h-389v51h526v359h-375v51h375v358h-375v52h375v204h51c2.66699 -27.333 7.16699 -52.166 13.5 -74.499
s12.833 -43.166 19.5 -62.499c2.66699 -13.333 6.33398 -25.5 11.001 -36.5s9.66699 -21.167 15 -30.5h27v-37l27 -33l49 -59l90 -105c68 -88.667 102 -181.334 102 -278.001c0 -23.333 -2 -49 -6 -77s-12 -57 -24 -87c-10 -23.333 -18 -42.833 -24 -58.5
s-14.667 -33.167 -26 -52.5l-30 -2l35 90l12 37.5c4 12.333 7.33301 25.833 10 40.5l6 55l2 25v41c-2.66699 5.33301 -4.33398 10.666 -5.00098 15.999s-1.33398 9.5 -2.00098 12.5s-2.33398 8.5 -5.00098 16.5l-12 37c-14 42 -37.333 80 -70 114
c-30 38.667 -62.667 66.667 -98 84c-19.333 11.333 -39.5 20.333 -60.5 27s-39.833 10 -56.5 10v-227h86v-51zM496.003 1178h-512v51h512v-51zM496.003 768h-512v51h512v-51zM271.003 -461c18.667 -1.33301 35.168 -3.66797 49.501 -7.00098s27.166 -9.66602 38.499 -18.999
v26h-88zM496.004 1587h-512v51h512v-51z" />
    <glyph glyph-name="B" unicode="B" 
d="M496 768l-79.998 -0.00292969c2.66699 -18 6.5 -34.167 11.5 -48.5s10.167 -28.166 15.5 -41.499c10.667 -35.333 25.667 -66.666 45 -93.999l35 -43l49 -60l90 -104c68 -88.667 102 -181.667 102 -279c0 -23.333 -2 -46.833 -6 -70.5s-12 -50.5 -24 -80.5
c-10 -23.333 -18 -42.833 -24 -58.5s-14.667 -33.167 -26 -52.5l-30 -2l35 90l12 37.5c4 12.333 7.33301 25.166 10 38.499l6 45l2 25v41l-8 32l-16 50c-14 42 -37.333 80 -70 114c-28.667 36.667 -61.334 64.667 -98.001 84l-15.5 8c-5 2.66699 -10.167 5.66699 -15.5 9
v-50h-86v-358h86v-51h-86v-346c0 -7.33301 -0.666992 -11.666 -2 -12.999h154v-51h-168c-4.66699 -6.66699 -8.66699 -13 -12 -19s-8.33301 -13.333 -15 -22c-10.667 -12 -24.667 -25.5 -42 -40.5s-38 -28.167 -62 -39.5c-42.667 -21.333 -87.334 -32 -134.001 -32
c-42 0 -76 10.667 -102 32c-28.667 20.667 -43 52.334 -43 95.001v26h-150v51h164c2.66699 7.33301 6.83398 14.666 12.501 21.999s10.5 13 14.5 17c13.333 16.667 28 31.834 44 45.501s35.5 26 58.5 37s42.333 19.167 58 24.5s33.167 8 52.5 8
c57.333 0 97.666 -11.667 120.999 -35v240h-375v51h375v358h-375v52h375v358h-375v51h512v-51zM496.002 1587h-512v51h512v-51zM496.002 1178h-512v51h512v-51zM490.002 409.997c-15.333 5.33301 -29.832 9.66699 -43.499 13s-25.834 5 -36.501 5v-18h80z" />
    <glyph glyph-name="C" unicode="C" 
d="M496 358l-86 0.00292969v-358h86v-51h-86v-119c0 -42 -15 -82.333 -45 -121c-9.33301 -14.667 -22.666 -29.834 -39.999 -45.501s-38 -29.167 -62 -40.5c-42.667 -22 -87.334 -33 -134.001 -33c-42 0 -76 11 -102 33c-15.333 11.333 -26.333 25.5 -33 42.5
s-10 35.5 -10 55.5c0 20.667 3 41 9 61s16.667 38.667 32 56c13.333 16.667 28.666 32.5 45.999 47.5s37.333 27.833 60 38.5c15.333 10 30.5 16.333 45.5 19s30.167 4.66699 45.5 6h-238v51h375v358h-375v52h375v358h-375v51h375v205h51
c2.66699 -27.333 7.16699 -52.333 13.5 -75s12.833 -43.334 19.5 -62.001c2.66699 -14 6.33398 -26.333 11.001 -37s9.66699 -21 15 -31h27v-37l27 -32l49 -60l90 -104c68 -88.667 102 -181.667 102 -279c0 -23.333 -2 -49 -6 -77s-12 -57 -24 -87
c-10 -22.667 -18 -42 -24 -58s-14.667 -33.333 -26 -52l-30 -2l35 90l12 36.5c4 12.333 7.33301 26.166 10 41.499l6 55l2 25v40l-8 33l-16 49c-14 42.667 -37.333 81 -70 115c-30 38 -62.667 66 -98 84c-19.333 10.667 -39.5 19.5 -60.5 26.5s-39.833 10.5 -56.5 10.5v-227
h86v-52zM496 1587h-512v51h512v-51zM496 1178h-512v51h512v-51zM271 -50.9971c18.667 -1.33301 35.168 -3.66699 49.501 -7s27.166 -10 38.499 -20v27h-88z" />
    <glyph glyph-name="D" unicode="D" 
d="M496 358l-85.9951 0.000976562v-333c0 -15.333 -0.666992 -23.666 -2 -24.999h88v-51h-102c-2.66699 -6.66699 -5.83398 -14.167 -9.50098 -22.5s-8.83398 -16.5 -15.501 -24.5c-10.667 -15.333 -23.5 -29.166 -38.5 -41.499s-34.833 -23.833 -59.5 -34.5
c-22 -10.667 -45 -18.5 -69 -23.5s-47.667 -7.5 -71 -7.5c-42 0 -76 11 -102 33c-30 22 -45 54.667 -45 98v74h18l10 16.5c3.33301 5.66699 7.66602 11.167 12.999 16.5c13.333 16 28.666 32.167 45.999 48.5s37.333 30.166 60 41.499c45.333 20.667 86.333 31 123 31
c30 0 52.167 -2.83301 66.5 -8.5s27.166 -13.834 38.499 -24.501v237h-375v52h375v358h-375v51h375v359h-375v51h512v-51h-80c2.66699 -18 6.5 -34.167 11.5 -48.5l15.5 -42.5c9.33301 -34 24.333 -65.333 45 -94l35 -43l49 -59l90 -105
c68 -88.667 102 -181.334 102 -278.001c0 -23.333 -2 -49 -6 -77s-12 -57 -24 -87c-10 -23.333 -18 -42.833 -24 -58.5s-14.667 -33.167 -26 -52.5l-30 -2l35 91l12 36.5c4 12.333 7.33301 25.833 10 40.5l6 56l2 24v41l-8 33l-16 49c-14 42.667 -37.333 81 -70 115
c-30 38 -62.667 66 -98 84l-15.5 8l-15.5 8v-49h-86v-358h86v-52zM496.005 1587h-512v51h512v-51zM490.005 819.001c-15.333 5.33301 -29.832 9.83301 -43.499 13.5s-25.834 5.5 -36.501 5.5v-19h80z" />
    <glyph glyph-name="E" unicode="E" 
d="M496 358l-86 -0.00195312v-125c0 -39.333 -15 -80 -45 -122c-10.667 -15.333 -23.667 -29.833 -39 -43.5s-34.333 -27.167 -57 -40.5c-16.667 -10 -34.5 -16.667 -53.5 -20s-38.167 -5.66602 -57.5 -6.99902h338v-51h-512v51h117c-27.333 1.33301 -52 12.333 -74 33
c-28.667 20 -43 50.667 -43 92c0 20.667 3 40.834 9 60.501s16.667 38.5 32 56.5c13.333 16 28.666 31.5 45.999 46.5s37.333 28.167 60 39.5c18 8 35.5 14.333 52.5 19s33.167 8.33398 48.5 11.001h-248v52h375v358h-375v51h375v359h-375v51h375v205h51
c2.66699 -27.333 7.16699 -52.333 13.5 -75s12.833 -43.667 19.5 -63c2.66699 -13.333 6.33398 -25.5 11.001 -36.5s9.66699 -21.167 15 -30.5h27v-37l27 -33l49 -59l90 -105c68 -88.667 102 -181.334 102 -278.001c0 -23.333 -2 -49 -6 -77s-12 -57 -24 -87
c-10 -23.333 -18 -42.833 -24 -58.5s-14.667 -33.167 -26 -52.5l-30 -2l35 90l12 37.5c4 12.333 7.33301 25.833 10 40.5l6 56l2 24v41l-8 33l-16 49c-14 42 -37.333 80.333 -70 115c-30 38 -62.667 66 -98 84c-19.333 10.667 -39.5 19.5 -60.5 26.5
s-39.833 10.5 -56.5 10.5v-228h86v-51h-86v-358h86v-52zM496 1587h-512v51h512v-51zM267 357.998c38 -4 68.667 -14.667 92 -32v32h-92z" />
    <glyph glyph-name="F" unicode="F" 
d="M496 768h-86v-334c0 -14.667 -0.666992 -22.667 -2 -24h88v-52h-102l-13 -23c-4 -7.33301 -9.33301 -15.333 -16 -24c-10.667 -14.667 -23.167 -28.167 -37.5 -40.5s-33.833 -23.833 -58.5 -34.5c-22 -11.333 -45 -19.333 -69 -24s-47.667 -7 -71 -7
c-42 0 -76 11 -102 33c-28.667 20 -43 49.333 -43 88v84h18l10 16c3.33301 5.33301 7.66602 10.666 12.999 15.999c13.333 16.667 28.333 33.167 45 49.5s36.334 29.833 59.001 40.5c45.333 20.667 86.333 31 123 31c30 0 52.5 -2.66699 67.5 -8
s28.167 -13.666 39.5 -24.999v238h-375v51h375v359h-375v51h375v358h-375v51h512v-51h-80c2.66699 -17.333 6.5 -33.166 11.5 -47.499l15.5 -42.5c9.33301 -34 24.333 -65.333 45 -94l35 -43l49 -60l90 -104c68 -88.667 102 -181.334 102 -278.001c0 -23.333 -2 -49 -6 -77
s-12 -57 -24 -87c-10 -23.333 -18 -42.833 -24 -58.5s-14.667 -33.167 -26 -52.5l-30 -2l35 90l12 37c4 12 7.33301 25.667 10 41l6 55l2 25v41c-4 16 -6.66699 27 -8 33l-16 49c-14 42 -37.333 80 -70 114c-30 38.667 -62.667 66.667 -98 84
c-5.33301 2.66699 -10.5 5.5 -15.5 8.5s-10.167 5.83301 -15.5 8.5v-49h-86v-359h86v-51zM496 -51h-512v51h512v-51zM490 1229c-15.333 5.33301 -29.832 9.66699 -43.499 13s-25.834 5 -36.501 5v-18h80z" />
    <glyph glyph-name="G" unicode="G" 
d="M496 768l-85.998 -0.00195312v-125c0 -42 -15 -82.333 -45 -121c-9.33301 -14.667 -21.5 -29.5 -36.5 -44.5s-35.5 -28.167 -61.5 -39.5c-18 -6.66699 -35.833 -12.667 -53.5 -18s-36.167 -8.66602 -55.5 -9.99902h338v-52h-512v52h117c-27.333 1.33301 -52 12 -74 32
c-28.667 20.667 -43 51.667 -43 93c0 20 2.66699 40 8 60s15.666 38.667 30.999 56c13.333 16.667 27.5 32.167 42.5 46.5s34.833 27.5 59.5 39.5c19.333 10 38.166 17 56.499 21s35.166 7.33301 50.499 10h-248v51h375v359h-375v51h375v358h-375v51h375v205h51
c2.66699 -27.333 7.16699 -52.166 13.5 -74.499s12.833 -43.166 19.5 -62.499c2.66699 -13.333 6.33398 -25.5 11.001 -36.5s9.66699 -21.5 15 -31.5h27v-36l27 -33l49 -60l90 -104c68 -88.667 102 -181.667 102 -279c0 -22.667 -2 -48 -6 -76s-12 -57 -24 -87
c-10 -23.333 -18 -42.833 -24 -58.5s-14.667 -33.167 -26 -52.5l-30 -2l35 90l12 36.5c4 12.333 7.33301 26.166 10 41.499l6 55l2 25v41l-8 32l-16 50c-14 42 -37.333 80 -70 114c-30 38.667 -62.667 66.667 -98 84c-19.333 11.333 -39.5 20.333 -60.5 27
s-39.833 10 -56.5 10v-227h86v-51h-86v-359h86v-51zM496.002 -51.002h-512v51h512v-51zM267.002 767.998c38 -4 68.667 -15 92 -33v33h-92z" />
    <glyph glyph-name="H" unicode="H" 
d="M70 410l0.00292969 358.002h-86v51h106c3.33301 5.33301 6.66602 12.166 9.99902 20.499s8.33301 15.833 15 22.5c12.667 15.333 26.167 29.5 40.5 42.5s33.5 25.5 57.5 37.5c23.333 10.667 46.333 18.5 69 23.5s45.667 7.5 69 7.5c39.333 0 73.333 -12.333 102 -37
c28.667 -20.667 43 -51.334 43 -92.001v-76h-14c-2.66699 -8 -6.83398 -17.167 -12.501 -27.5s-11.834 -18.833 -18.501 -25.5c-15.333 -15.333 -29.333 -28.5 -42 -39.5s-30.667 -21.833 -54 -32.5s-46 -18.167 -68 -22.5s-42.333 -6.5 -61 -6.5
c-30 0 -52.167 2.83301 -66.5 8.5s-27.166 13.834 -38.499 24.501v-237h273c-1.33301 2.66699 -2.83301 6.66699 -4.5 12s-3.83398 11.333 -6.50098 18l-34 90l30 -2c11.333 -18.667 20 -35.834 26 -51.501l23 -58.5l3 -8h65v-52h-47c4 -18.667 6.66699 -37 8 -55
s2 -34.333 2 -49c0 -88.667 -28 -173.334 -84 -254.001h121v-51h-164l-65 -68l-50 -59l-34 -43c-19.333 -27.333 -34.333 -58.666 -45 -93.999c-7.33301 -19.333 -12 -41 -14 -65s-3 -48.333 -3 -73h-51v402h-86v51h86v358h-86v52h86zM121.003 358.002l-0.000976562 -358
h158c6.66699 5.33301 13.5 11.833 20.5 19.5s13.833 16.167 20.5 25.5c32.667 34 56 72.333 70 115l12 36.5c2.66699 8.33301 4.33398 13.833 5.00098 16.5l7 29v41l-2 24l-6 51h-285zM496.002 1229v-51h-512v51h512zM496.002 1638v-51h-512v51h512zM121.002 -69.998
c14 0 29.167 1.5 45.5 4.5s32.5 7.83301 48.5 14.5h-94v-19z" />
    <glyph glyph-name="I" unicode="I" 
d="M70 410l-0.000976562 358.004h-86v51h86v123c0 42.667 15 83 45 121c9.33301 14.667 21.166 28.5 35.499 41.5s34.5 26.5 60.5 40.5c15.333 8 31.833 14.833 49.5 20.5s34.834 9.83398 51.501 12.501h-328v51h512v-51h-117c28.667 -7.33301 53.334 -19 74.001 -35
c28.667 -20.667 43 -51.334 43 -92.001c0 -20.667 -3 -40.834 -9 -60.501s-16.667 -38.5 -32 -56.5c-13.333 -16.667 -28.333 -32.5 -45 -47.5s-36.334 -27.833 -59.001 -38.5c-27.333 -15.333 -56 -25 -86 -29h231v-51h-375v-358h283l2 2v2
c1.33301 5.33301 2.33301 10.666 3 15.999s2.33398 10.666 5.00098 15.999v41l-2 25l-6 55c-2.66699 15.333 -6 29.166 -10 41.499s-8.33301 24.5 -13 36.5l-34 90l30 -2c11.333 -18.667 20 -36 26 -52s13.667 -35.333 23 -58c12.667 -30 21 -59 25 -87s6 -53.667 6 -77v-25
c0 -14.667 -0.666992 -22.667 -2 -24h39v-52h-49c-15.333 -61.333 -45.333 -120.666 -90 -177.999l-90 -104l-50 -60l-12 -16h291v-51h-330c-5.33301 -8 -10 -17.167 -14 -27.5l-14 -36.5c-7.33301 -18.667 -12 -40.334 -14 -65.001s-3 -50 -3 -76h-51v205h-86v51h86v358
h-86v52h86zM120.999 129.004c16.667 0 32.833 3.5 48.5 10.5s33.167 15.833 52.5 26.5c36.667 19.333 69.334 47.333 98.001 84c31.333 35.333 53.666 71.333 66.999 108h-266v-229zM495.998 1638v-51h-512v51h512zM120.998 819.004h68.001
c-28.667 4 -51.334 14.333 -68.001 31v-31z" />
    <glyph glyph-name="J" unicode="J" 
d="M70 410v357.999h-86v51h86v328c0 19.333 0.666992 29.666 2 30.999h-88v51h106l11 17l14 22c9.33301 14.667 22 29.167 38 43.5s36.667 27.166 62 38.499c23.333 10.667 46 18.667 68 24s44.667 8 68 8c40.667 0 74.667 -11.333 102 -34
c28.667 -20.667 43 -51.667 43 -93v-77h-14c-6 -14 -14.333 -27.667 -25 -41c-13.333 -16.667 -29 -32.167 -47 -46.5s-38.333 -26.833 -61 -37.5c-42.667 -19.333 -83.667 -29 -123 -29c-30 0 -52.167 2.33301 -66.5 7s-27.166 12.667 -38.499 24v-236h273
c-1.33301 2.66699 -2.83301 6.83398 -4.5 12.501s-3.83398 11.834 -6.50098 18.501l-34 90l30 -2c11.333 -19.333 20 -36.833 26 -52.5l23 -58.5l4 -8h64v-51h-47c4 -19.333 6.66699 -37.833 8 -55.5s2 -33.834 2 -48.501c0 -89.333 -28 -174 -84 -254h121v-52h-162l-67 -77
l-50 -60l-34 -43c-19.333 -27.333 -34.333 -58.666 -45 -93.999c-4.66699 -14 -8.66699 -28.167 -12 -42.5s-5 -28.166 -5 -41.499h375v-51h-512v51h86v358h-86v52h86zM121 767.999l-0.000976562 -357.999h158c6.66699 5.33301 13.5 11.666 20.5 18.999s13.833 16 20.5 26
c32.667 34 56 72 70 114l12 37c2.66699 8 4.33398 13.5 5.00098 16.5s3 12.5 7 28.5v41l-2 25l-6 51h-285zM495.999 1638v-51h-512v51h512zM120.999 334c30 0 61.333 8 94 24h-94v-24z" />
    <glyph glyph-name="K" unicode="K" 
d="M70 819l-0.00390625 358.994h-86v51h86v123c0 42 15 82.333 45 121c9.33301 14.667 20.833 27.834 34.5 39.501s32.834 24.167 57.501 37.5c15.333 8.66699 32.5 16.334 51.5 23.001s36.833 11.334 53.5 14.001h-328v51h512v-51h-117
c28.667 -6.66699 53.334 -18.334 74.001 -35.001c28.667 -20 43 -50.667 43 -92c0 -20 -2.66699 -40.333 -8 -61s-15.666 -40 -30.999 -58c-13.333 -16 -29 -31.167 -47 -45.5s-38.333 -27.166 -61 -38.499c-28.667 -14.667 -56.667 -24 -84 -28h231v-51h-375v-359h283l2 2
v2c1.33301 5.33301 2.33301 10.833 3 16.5s2.33398 11.167 5.00098 16.5v41l-2 25l-6 55c-2.66699 14.667 -6 28.167 -10 40.5s-8.33301 24.833 -13 37.5l-34 90l30 -2c11.333 -19.333 20 -36.833 26 -52.5l23 -58.5c12.667 -30 21 -59 25 -87s6 -53.667 6 -77v-24
c0 -15.333 -0.666992 -23.666 -2 -24.999h39v-51h-49c-15.333 -61.333 -45.333 -120.666 -90 -177.999l-90 -105l-50 -59l-12 -16h291v-52h-328c-5.33301 -10.667 -10.333 -22.167 -15 -34.5s-9.66699 -23.833 -15 -34.5c-7.33301 -19.333 -12 -40.666 -14 -63.999
s-3 -48.333 -3 -75l-51 2v206h-86v52h86v358h-86v51h86zM120.996 538.994c16.667 0 32.833 3.33203 48.5 9.99902s33.167 15.334 52.5 26.001c36.667 19.333 69.334 47.333 98.001 84c31.333 36 53.666 72.333 66.999 109h-266v-229zM495.995 -0.00683594v-51h-512v51h512z
M120.995 1228.99h68.001c-28.667 4 -51.334 14.333 -68.001 31v-31z" />
    <glyph glyph-name="L" unicode="L" 
d="M70 819v359.005h-86v51h86v327c0 19.333 0.666992 29.666 2 30.999h-88v51h106l10 18c3.33301 6 7.66602 13 12.999 21c19.333 32.667 53.333 60.667 102 84c23.333 11.333 46 19.666 68 24.999s44.667 8 68 8c39.333 0 73.333 -12.333 102 -37
c28.667 -20.667 43 -51.334 43 -92.001v-78h-14c-2.66699 -8 -7.16699 -17.5 -13.5 -28.5s-12.833 -19.833 -19.5 -26.5c-15.333 -15.333 -30.166 -28 -44.499 -38s-32.833 -20.667 -55.5 -32c-45.333 -20 -86.333 -30 -123 -30c-30 0 -52.167 2.66699 -66.5 8
s-27.166 13.333 -38.499 24v-235h273c-1.33301 2.66699 -2.83301 6.66699 -4.5 12s-3.83398 11.666 -6.50098 18.999l-34 90l30 -2c11.333 -19.333 20 -36.833 26 -52.5l23 -58.5l4 -8h64v-51h-47c4 -19.333 6.66699 -37.833 8 -55.5s2 -34.167 2 -49.5
c0 -88.667 -28 -173.334 -84 -254.001h121v-51h-162l-67 -78l-50 -59l-34 -43c-19.333 -27.333 -34.333 -58.666 -45 -93.999c-4.66699 -14 -8.66699 -27.833 -12 -41.5s-5 -27.834 -5 -42.501h375v-52h-512v52h86v358h-86v51h86zM121 1178l-0.000976562 -359h158
c6.66699 5.33301 13.5 11.833 20.5 19.5s13.833 16.167 20.5 25.5c32.667 34 56 72.333 70 115l12 37c2.66699 8 4.33398 13.333 5.00098 16l7 29v41l-2 24l-6 52h-285zM495.999 0.00488281v-51h-512v51h512zM120.999 743.005c30 0 61.333 8.33301 94 25h-94v-25z" />
    <glyph glyph-name="M" unicode="M" 
d="M70 1229v358.004h-86v51h86v123c0 42.667 15 83 45 121c9.33301 15.333 21.166 29.833 35.499 43.5s34.5 26.5 60.5 38.5c46.667 22 93.334 33 140.001 33c39.333 0 73.333 -12.333 102 -37c28.667 -20.667 43 -50.667 43 -90c0 -20.667 -3 -40.834 -9 -60.501
s-16.667 -38.5 -32 -56.5c-13.333 -16 -28.666 -31.667 -45.999 -47s-37.333 -28.333 -60 -39c-28.667 -14.667 -56.667 -24.334 -84 -29.001h231v-51h-375v-358h283c2.66699 6.66699 4.66699 12 6 16s2.66602 11 3.99902 21v41l-2 24l-6 55
c-2.66699 15.333 -6 29.166 -10 41.499s-8.33301 24.5 -13 36.5l-34 90l30 -2c11.333 -18.667 20 -35.834 26 -51.501l23 -58.5c12.667 -30 21 -59 25 -87s6 -53.667 6 -77v-25c0 -14.667 -0.666992 -22.667 -2 -24h39v-51h-49c-15.333 -62 -45.333 -121.667 -90 -179
l-90 -104l-50 -59l-12 -17h291v-51h-328c-5.33301 -10.667 -10.333 -22.167 -15 -34.5s-9.66699 -24.166 -15 -35.499c-7.33301 -18.667 -12 -39.334 -14 -62.001s-3 -47.667 -3 -75h-51v207h-86v51h86v359h-86v51h86zM121 948.004c16.667 0 32.833 3.50098 48.5 10.501
s33.167 15.833 52.5 26.5c36.667 19.333 69.334 47.333 98.001 84c31.333 35.333 53.666 71.666 66.999 108.999h-266v-230zM495.999 0.00488281v-51h-512v51h512zM495.999 410.005v-52h-512v52h512zM120.999 1638h68.001c-28.667 4.66699 -51.334 15 -68.001 31v-31z" />
    <glyph glyph-name="N" unicode="N" 
d="M70 1229l0.000976562 357.999h-86v51h86v328c0 19.333 0.666992 29.666 2 30.999h-151v51h169c3.33301 5.33301 6.33301 11.166 9 17.499s6.66699 13.5 12 21.5c20.667 32.667 54 60 100 82c42.667 22 87.667 33 135 33c40 0 74.333 -12.333 103 -37
c31.333 -22 47 -61 47 -117h152v-51h-166c-7.33301 -19.333 -15 -33.666 -23 -42.999c-10.667 -15.333 -26 -30.166 -46 -44.499s-41.333 -26.833 -64 -37.5c-42.667 -19.333 -83.667 -29 -123 -29c-30 0 -52.167 2.5 -66.5 7.5s-27.166 12.833 -38.499 23.5v-236h273
c-1.33301 2.66699 -2.83301 6.83398 -4.5 12.501s-3.83398 11.834 -6.50098 18.501l-34 90l30 -2c11.333 -18.667 20 -36 26 -52s13.667 -35.333 23 -58c1.33301 -3.33301 2.66602 -6.33301 3.99902 -9h64v-51h-47c4 -18.667 6.66699 -37 8 -55s2 -34.333 2 -49
c0 -88.667 -28 -173.334 -84 -254.001h121v-51h-162l-67 -78l-50 -60l-34 -43c-20.667 -28.667 -35.667 -60 -45 -94c-4.66699 -13.333 -8.66699 -27.5 -12 -42.5s-5 -28.833 -5 -41.5h375v-51h-512v51h86v359h-86v51h86zM121.001 1587l-0.000976562 -358h158
c6.66699 5.33301 13.5 11.833 20.5 19.5s13.833 16.167 20.5 25.5c32.667 34 56 72.333 70 115l12 36.5c2.66699 8.33301 4.33398 13.833 5.00098 16.5l7 28v41l-2 25l-6 51h-285zM496 409.999v-52h-512v52h512zM496 -0.000976562v-51h-512v51h512zM121 1153
c30 0 61.333 8.33301 94 25h-94v-25z" />
    <glyph glyph-name="O" unicode="O" 
d="M496 1178l-85.998 0.00292969v-334c0 -15.333 -0.666992 -23.666 -2 -24.999h88v-51h-102c-4.66699 -8 -9 -15.833 -13 -23.5s-9.33301 -14.834 -16 -21.501c-18 -30 -52 -56.667 -102 -80c-22 -10.667 -44.333 -18.167 -67 -22.5s-45.667 -6.5 -69 -6.5
c-21.333 0 -40 2.16699 -56 6.5s-30.667 11.833 -44 22.5c-28.667 20.667 -43 51.334 -43 92.001v84h18l10 16.5c3.33301 5.66699 7.66602 11.167 12.999 16.5c13.333 16.667 28 32.834 44 48.501s36.667 29.5 62 41.5c45.333 20.667 86.333 31 123 31
c30 0 52.167 -2.83301 66.5 -8.5s27.166 -13.834 38.499 -24.501v238h-375v51h375v358h-375v51h375v406h51c2.66699 -27.333 7.16699 -52.333 13.5 -75s12.833 -43.334 19.5 -62.001c9.33301 -34.667 24.333 -66.334 45 -95.001l35 -43l49 -59l90 -104
c68 -88.667 102 -181.667 102 -279c0 -23.333 -2 -49 -6 -77s-12 -57 -24 -87c-10 -23.333 -18 -42.833 -24 -58.5s-14.667 -32.834 -26 -51.501l-30 -2l35 90l12 36.5c4 12.333 7.33301 26.166 10 41.499l6 55l2 24v41l-8 33l-16 49c-14 42.667 -37.333 81 -70 115
c-30 38 -62.667 66 -98 84l-15.5 8l-15.5 8v-49h-86v-358h86v-51zM496.002 358.003h-512v52h512v-52zM496.002 -50.9971h-512v51h512v-51zM490.002 1638c-15.333 6 -29.832 10.667 -43.499 14s-25.834 5 -36.501 5v-19h80z" />
    <glyph glyph-name="P" unicode="P" 
d="M496 358l-83.9971 -0.00390625v-358h84v-51h-84v-359h152v-51h-152v-332c0 -16 -0.666992 -24.667 -2 -26h154v-51h-172c-3.33301 -7.33301 -6.66602 -13.666 -9.99902 -18.999l-11 -18c-28.667 -37.333 -64.834 -66.166 -108.501 -86.499s-86.5 -30.5 -128.5 -30.5
c-41.333 0 -77 11 -107 33c-28.667 22 -43 51.333 -43 88v33h-150v51h173c2.66699 5.33301 5.66699 10.333 9 15l11 16c13.333 14.667 29.666 29.834 48.999 45.501s40.666 31.167 63.999 46.5c24.667 10.667 47.167 18.334 67.5 23.001s40.166 7 59.499 7
c20 0 36.833 -2.66699 50.5 -8s28.167 -13.333 43.5 -24v237h-527v51h527v359h-377v51h377v358h-377v52h512v-52zM496.003 1178h-512v51h512v-51zM496.003 1587h-512v51h512v-51zM496.003 767.996h-512v51h512v-51z" />
    <glyph glyph-name="Q" unicode="Q" 
d="M496 358l-83.998 0.00195312v-358h84v-51h-84v-359h152v-51h-152v-125c0 -36.667 -13.667 -74.667 -41 -114c-28.667 -37.333 -65.167 -66.5 -109.5 -87.5s-87.833 -31.5 -130.5 -31.5c-38 0 -72.667 11.667 -104 35c-28.667 21.333 -43 50.666 -43 87.999
c0 39.333 14.333 77.333 43 114c13.333 15.333 29.666 30.833 48.999 46.5s40.666 31.167 63.999 46.5c14.667 10.667 28.5 17.667 41.5 21s27.167 5.66602 42.5 6.99902h-390v51h527v359h-377v51h377v358h-377v52h377v204h51v-204h84v-52zM496.002 768.002h-512v51h512v-51
zM496.002 1587h-512v51h512v-51zM496.002 1178h-512v51h512v-51zM283.002 -460.998c23.333 -1.33301 49.333 -12.333 78 -33v33h-78z" />
    <glyph glyph-name="R" unicode="R" 
d="M496 358l-83.9951 0.00195312v-358h84v-51h-84v-359h152v-53h-170c-2.66699 -6.66699 -6.16699 -12.334 -10.5 -17.001s-8.5 -10.667 -12.5 -18c-28.667 -36.667 -65.834 -65.167 -111.501 -85.5s-89.834 -30.5 -132.501 -30.5c-36.667 0 -70 10.667 -100 32
c-28.667 22 -43 51.333 -43 88v33l-150 -2v53h168c3.33301 6 7.33301 11.667 12 17s9 10.666 13 15.999c13.333 15.333 29.666 30.5 48.999 45.5s40.666 29.833 63.999 44.5c24.667 11.333 47.167 19.333 67.5 24s40.166 7 59.499 7c20 0 36.833 -3 50.5 -9
s28.167 -14.667 43.5 -26v240h-377v51h377v358h-377v52h377v358h-377v51h512v-51h-84v-358h84v-52zM496.005 1587h-512v51h512v-51zM496.005 1178h-512v51h512v-51z" />
    <glyph glyph-name="S" unicode="S" 
d="M496 358l-83.998 0.000976562v-358h84v-51h-84v-121c0 -36.667 -13.667 -75 -41 -115c-28.667 -36.667 -65.5 -66.334 -110.5 -89.001s-88.833 -34 -131.5 -34c-38 0 -72 11 -102 33c-15.333 11.333 -26.333 25.166 -33 41.499s-10 33.833 -10 52.5
c0 40 14.333 78.333 43 115c13.333 15.333 29.666 30.833 48.999 46.5s40.666 30.834 63.999 45.501c18.667 11.333 36.167 18 52.5 20s32.833 3.66699 49.5 5h-258v51h377v358h-377v52h377v358h-377v51h377v205h51v-205h84v-51h-84v-358h84v-52zM496.002 1178h-512v51h512
v-51zM496.002 1587h-512v51h512v-51zM281.002 -50.999c14.667 -1.33301 27.833 -3.66797 39.5 -7.00098s25.167 -10.666 40.5 -21.999v29h-80z" />
    <glyph glyph-name="T" unicode="T" 
d="M496 358l-83.9971 0.000976562v-346c0 -6.66699 -0.666992 -10.667 -2 -12h86v-51h-102c-4.66699 -6.66699 -8.66699 -12.834 -12 -18.501l-11 -18.5c-28.667 -36.667 -65.5 -65.334 -110.5 -86.001s-88.833 -31 -131.5 -31c-38 0 -72 11 -102 33
c-28.667 22 -43 51.333 -43 88v84h23c2.66699 5.33301 5.66699 10.5 9 15.5s7 10.167 11 15.5c13.333 14.667 29.666 29.834 48.999 45.501s40.666 31.167 63.999 46.5c24.667 10.667 47.167 18.5 67.5 23.5s40.166 7.5 59.499 7.5c20 0 36.833 -3.16699 50.5 -9.5
s28.167 -14.833 43.5 -25.5v239h-377v52h377v358h-377v51h377v359h-377v51h512v-51h-84v-359h84v-51h-84v-358h84v-52zM496.003 1587h-512v51h512v-51z" />
    <glyph glyph-name="U" unicode="U" 
d="M496 358l-83.999 0.00195312v-127c0 -36.667 -13.667 -74.667 -41 -114c-27.333 -36 -62.5 -63.833 -105.5 -83.5s-84.167 -30.834 -123.5 -33.501h354v-51h-512v51h121c-15.333 1.33301 -29.166 4.66602 -41.499 9.99902s-24.5 13 -36.5 23
c-28.667 22 -43 51.333 -43 88c0 39.333 14.333 77.666 43 114.999c13.333 14.667 29.666 29.834 48.999 45.501s40.666 31.167 63.999 46.5c38 16 72.667 26 104 30h-260v52h377v358h-377v51h377v359h-377v51h377v205h51v-205h84v-51h-84v-359h84v-51h-84v-358h84v-52z
M496.001 1587h-512v51h512v-51zM271.001 358.002c28.667 -4 58.667 -15.333 90 -34v34h-90z" />
    <glyph glyph-name="V" unicode="V" 
d="M496 768l-83.998 -0.000976562v-346c0 -6.66699 -0.666992 -10.667 -2 -12h86v-52h-104c-3.33301 -6.66699 -6.66602 -12.667 -9.99902 -18l-11 -18c-28.667 -37.333 -65.5 -66.166 -110.5 -86.499s-88.833 -30.5 -131.5 -30.5c-38 0 -72 11 -102 33
c-28.667 21.333 -43 50.666 -43 87.999v14c0 10.667 0.666992 16.667 2 18h-2v52h23c2.66699 5.33301 5.66699 10.333 9 15l11 15c13.333 15.333 29.666 30.833 48.999 46.5s40.666 30.834 63.999 45.501c24.667 11.333 47.167 19.333 67.5 24s40.166 7 59.499 7
c20 0 36.833 -3 50.5 -9s28.167 -14.667 43.5 -26v240h-377v51h377v359h-377v51h377v358h-377v51h512v-51h-84v-358h84v-51h-84v-359h84v-51zM496.002 -51.001h-512v51h512v-51z" />
    <glyph glyph-name="W" unicode="W" 
d="M496 819l0.00195312 -51h-84v-127c0 -36.667 -13.667 -75 -41 -115c-27.333 -35.333 -62.5 -62.833 -105.5 -82.5s-84.167 -30.834 -123.5 -33.501h354v-52h-512v52h127c-27.333 1.33301 -55.333 12 -84 32c-28.667 22 -43 51.333 -43 88c0 40 14.333 78.333 43 115
c13.333 15.333 29.666 30.833 48.999 46.5s40.666 30.834 63.999 45.501c40.667 16.667 76 27 106 31h-262v51h377v359h-377v51h377v358h-377v51h377v205h51v-205h84v-51h-84v-358h84v-51h-84v-359h84zM496.002 0v-51h-512v51h512zM361.002 768h-92.001
c28.667 -4 59.334 -15.667 92.001 -35v35z" />
    <glyph glyph-name="X" unicode="X" 
d="M68 410l-0.00292969 332.998c0 4.66699 0.333008 9 1 13s1 8 1 12h-86v51h102c2.66699 6.66699 6.16699 13.167 10.5 19.5s8.5 12.833 12.5 19.5c28.667 36.667 65.5 65.334 110.5 86.001s88.833 31 131.5 31c38 0 72 -11 102 -33c28.667 -23.333 43 -52.666 43 -87.999
v-86h-23c-2.66699 -5.33301 -5.66699 -10.5 -9 -15.5s-7 -9.5 -11 -13.5c-13.333 -14.667 -29.666 -29.834 -48.999 -45.501s-40.666 -31.167 -63.999 -46.5c-24.667 -10.667 -47.167 -19.167 -67.5 -25.5s-40.166 -9.5 -59.499 -9.5c-20 0 -36.833 3.83301 -50.5 11.5
s-28.167 16.834 -43.5 27.501v-241h377v-52h-377v-358h377v-51h-377v-402h-51v402h-84v51h84v358h-84v52h84zM495.997 1638v-51h-512v51h512zM495.997 1229v-51h-512v51h512z" />
    <glyph glyph-name="Y" unicode="Y" 
d="M68 410l-0.00195312 358h-84v51h84v129c0 37.333 13.667 75.666 41 114.999c26 31.333 57.667 56.833 95 76.5s75.333 32.5 114 38.5h-334v51h512v-51h-111c23.333 -4.66699 46 -15 68 -31c28.667 -23.333 43 -52.666 43 -87.999c0 -40 -14.333 -78.333 -43 -115
c-13.333 -14.667 -29.666 -30 -48.999 -46s-40.666 -31.333 -63.999 -46c-26 -18 -56.667 -29 -92 -33h248v-51h-377v-358h377v-52h-377v-358h377v-51h-377v-197h-51v197h-84v51h84v358h-84v52h84zM495.998 1638v-51h-512v51h512zM196.998 819
c-31.333 6.66699 -57.333 19 -78 37v-37h78z" />
    <glyph glyph-name="Z" unicode="Z" 
d="M68 410l-0.00292969 358.001h-84v51h84v334c0 4 0.333008 8 1 12s1 8.33301 1 13h-86v51h102c2.66699 6.66699 6.16699 13 10.5 19s8.5 12.667 12.5 20c28.667 36.667 65.5 65.167 110.5 85.5s88.833 30.5 131.5 30.5c38 0 72 -10.667 102 -32
c28.667 -23.333 43 -52.666 43 -87.999v-86h-23c-2.66699 -6 -5.66699 -11.333 -9 -16s-7 -9 -11 -13c-13.333 -15.333 -29.666 -30.833 -48.999 -46.5s-40.666 -30.834 -63.999 -45.501c-24.667 -11.333 -47.167 -20 -67.5 -26s-40.166 -9 -59.499 -9
c-20 0 -36.833 3.66699 -50.5 11s-28.167 16.666 -43.5 27.999v-242h377v-51h-377v-358h377v-52h-377v-358h377v-51h-512v51h84v358h-84v52h84zM495.997 1638v-51h-512v51h512z" />
    <glyph glyph-name="bracketleft" unicode="[" 
d="M68 819l-0.00195312 359.001h-84v51h84v129c0 36.667 13.667 75 41 115c26 31.333 57.667 56.833 95 76.5s76 32.167 116 37.5h-336v51h512v-51h-111c23.333 -4 46 -14.333 68 -31c28.667 -22.667 43 -52 43 -88c0 -39.333 -14.333 -77.333 -43 -114
c-13.333 -15.333 -29.666 -30.833 -48.999 -46.5s-40.666 -30.834 -63.999 -45.501c-26 -18 -56.667 -29 -92 -33h248v-51h-377v-359h377v-51h-377v-358h377v-52h-377v-202h-51v202h-84v52h84v358h-84v51h84zM495.998 -50.999h-512v51h512v-51zM196.998 1229
c-31.333 6.66699 -57.333 19 -78 37v-37h78z" />
    <glyph glyph-name="backslash" unicode="\" 
d="M68 819l-0.00292969 359h-84v51h84v334c0 4 0.333008 8 1 12s1 8 1 12h-86v51h102c2.66699 7.33301 6.16699 14 10.5 20s8.5 12.333 12.5 19c28.667 37.333 65.5 66.166 110.5 86.499s88.833 30.5 131.5 30.5c38 0 72 -11 102 -33c28.667 -23.333 43 -52.666 43 -87.999
v-86h-23c-2.66699 -5.33301 -5.66699 -10.333 -9 -15s-7 -9 -11 -13c-13.333 -15.333 -29.666 -30.833 -48.999 -46.5s-40.666 -31.167 -63.999 -46.5c-24.667 -10.667 -47.167 -19 -67.5 -25s-40.166 -9 -59.499 -9c-20 0 -36.833 3.66699 -50.5 11
s-28.167 16.333 -43.5 27v-241h377v-51h-377v-359h377v-51h-377v-358h377v-52h-512v52h84v358h-84v51h84zM495.997 -51h-512v51h512v-51z" />
    <glyph glyph-name="bracketright" unicode="]" 
d="M-16 1229l83.998 -0.000976562v358h-84v51h84v129c0 37.333 13.667 75.666 41 114.999c28.667 36.667 65.5 65.334 110.5 86.001s88.833 31 131.5 31c38 0 72 -11 102 -33c28.667 -23.333 43 -52.666 43 -87.999c0 -39.333 -14.333 -77.666 -43 -114.999
c-13.333 -14.667 -29.666 -29.834 -48.999 -45.501s-40.666 -31.167 -63.999 -46.5c-24.667 -17.333 -56 -28.333 -94 -33h250v-51h-377v-358h377v-51h-377v-359h377v-51h-377v-203h-51v203h-84v51h84v359h-84v51zM-16.002 409.999h512v-52h-512v52zM495.998 -0.000976562
v-51h-512v51h512zM118.998 1638h80c-31.333 6 -58 18.333 -80 37v-37z" />
    <glyph glyph-name="asciicircum" unicode="^" 
d="M68 1229l-0.00292969 357.998h-84v51h84v334c0 4 0.333008 8.16699 1 12.5s1 8.5 1 12.5h-152v51h168c2.66699 6.66699 6.16699 13.167 10.5 19.5s8.5 12.833 12.5 19.5c28.667 36.667 65.5 65.334 110.5 86c45 20.667 88.833 31 131.5 31c38 0 72 -11 102 -33
c28.667 -23.333 43 -52.666 43 -87.999v-35h152v-51h-175c-2.66699 -5.33301 -5.66699 -10.5 -9 -15.5s-7 -9.5 -11 -13.5c-13.333 -14.667 -29.666 -30 -48.999 -46s-40.666 -31.333 -63.999 -46c-24.667 -10.667 -47.167 -19.167 -67.5 -25.5s-40.166 -9.5 -59.499 -9.5
c-20 0 -36.833 3.83301 -50.5 11.5s-28.167 16.834 -43.5 27.501v-242h377v-51h-377v-358h377v-51h-377v-359h377v-51h-512v51h84v359h-84v51h84zM495.997 409.998v-52h-512v52h512zM495.997 -51.002h-512v51h512v-51z" />
    <glyph glyph-name="underscore" unicode="_" 
d="M496 1178l-84 0.00195312v-359h84v-51h-98c-2.66699 -8 -6.5 -16.167 -11.5 -24.5s-10.167 -16.5 -15.5 -24.5c-28.667 -36.667 -65.5 -63.334 -110.5 -80.001s-88.833 -25 -131.5 -25c-38 0 -72 11 -102 33c-15.333 11.333 -26.333 22 -33 32s-10 24.667 -10 44
c0 6.66699 0.333008 16.167 1 28.5s0.333984 34.833 -0.999023 67.5h20l17 24.5c6.66699 9.66699 10.667 15.167 12 16.5c14 15.333 29.5 29.166 46.5 41.499s37.167 25.833 60.5 40.5c24.667 10.667 47.167 18.5 67.5 23.5s40.166 7.5 59.499 7.5
c20 0 36.833 -3.16699 50.5 -9.5s28.167 -14.833 43.5 -25.5v240h-377v51h377v358h-377v51h377v398h51v-398h84v-51h-84v-358h84v-51zM496 358.002h-512v52h512v-52zM496 -50.998h-512v51h512v-51z" />
    <glyph glyph-name="grave" unicode="`" 
d="M496 358l-92 -0.00195312v-358h92v-51h-92v-359h160v-51h-160v-358h160v-51h-177c-2.66699 -7.33301 -6.33398 -14.666 -11.001 -21.999l-17 -28c-30 -34 -65 -61 -105 -81c-43.333 -23.333 -82 -35 -116 -35c-37.333 0 -66 4 -86 12c-24.667 8 -42 24.333 -52 49l-12 41
c0 4 -0.333008 11.5 -1 22.5s-1.33398 20.333 -2.00098 28s-1 12.167 -1 13.5h-150v51h160c10 22 21 39.667 33 53c28.667 32.667 64.834 59.334 108.501 80.001s87.5 31 131.5 31c18.667 0 33.834 -2.5 45.501 -7.5s25.167 -12.833 40.5 -23.5v225h-519v51h519v359h-369v51
h369v358h-369v52h512v-52zM496 767.998h-512v51h512v-51zM496 1178h-512v51h512v-51zM496 1587h-512v51h512v-51zM60 -870.002c-1.33301 0 -1.99902 -0.667969 -1.99902 -2.00098c-24.667 -32 -37 -55.333 -37 -70c4 -16.667 17 -29 39 -37c26 0 52 7 78 21
c30 9.33301 63.333 29 100 59c5.33301 2.66699 11.166 6.33398 17.499 11.001s12.833 10.667 19.5 18h-215zM115.001 -815.003c-1.33301 0 -3.33301 -1.33301 -6 -4h197c25.333 30 38 54.667 38 74c0 16 -10 27.333 -30 34c-26 0 -54 -8.5 -84 -25.5
s-68.333 -43.167 -115 -78.5z" />
    <glyph glyph-name="a" unicode="a" 
d="M496 -51l-92.0039 -0.000976562v-359h160v-51h-160v-137c0 -16.667 -0.666992 -26.334 -2 -29.001s-4.66602 -10.667 -9.99902 -24c-3.33301 -8.66699 -8 -17.334 -14 -26.001s-12.333 -18.667 -19 -30c-30 -34 -65 -61 -105 -81
c-21.333 -11.333 -41.666 -20.333 -60.999 -27s-37.666 -10 -54.999 -10c-37.333 0 -66 4 -86 12c-23.333 8 -40.666 25 -51.999 51l-12 41c-1.33301 6.66699 -2.33301 14.834 -3 24.501s-1 19.834 -1 30.501c0 40 14.333 77.667 43 113
c23.333 24.667 48.333 43.834 75 57.501s55.667 25.167 87 34.5h-355v51h519v359h-369v51h369v358h-369v52h369v192h51v-192h92v-52h-92v-358h92v-51zM114.996 -602.001c-13.333 -9.33301 -32.333 -28.335 -57 -57.002c-24.667 -32 -37 -55.333 -37 -70
c4 -16.667 17 -29 39 -37c26 0 52 7 78 21c30 9.33301 63.333 29 100 59c10.667 5.33301 22.167 13.833 34.5 25.5s26 26.334 41 44.001s23.833 33.334 26.5 47.001s4 26.167 4 37.5c0 16 -10 27.333 -30 34c-26 0 -54 -8.5 -84 -25.5s-68.333 -43.167 -115 -78.5z
M495.996 1587h-512v51h512v-51zM495.996 1178h-512v51h512v-51zM495.996 767.997h-512v51h512v-51zM352.996 -461.003l-41.001 0.000976562c6.66699 -2.66699 13.334 -4.33398 20.001 -5.00098s13.667 -3 21 -7v12z" />
    <glyph glyph-name="b" unicode="b" 
d="M496 358l-92.001 0.000976562v-358h92v-51h-92v-359h160v-51h-177c-2.66699 -6.66699 -6.33398 -12.334 -11.001 -17.001s-10.334 -12.667 -17.001 -24c-30 -34 -65 -61.333 -105 -82c-43.333 -22.667 -82 -34 -116 -34c-37.333 0 -66 4 -86 12
c-24.667 8 -42 24.333 -52 49l-12 41c-2.66699 14 -4 32.333 -4 55h-150v51h158l16.5 34.5c5.66699 11.667 11.834 20.834 18.501 27.501c28.667 32.667 64.834 59.167 108.501 79.5s87.5 30.5 131.5 30.5c18.667 0 33.834 -2.33301 45.501 -7s25.167 -12.334 40.5 -23.001
v217h-369v51h369v358h-369v52h369v358h-369v51h512v-51h-92v-358h92v-52zM495.999 1178h-512v51h512v-51zM495.999 1587h-512v51h512v-51zM114.999 -396.999c-1.33301 0 -3.66699 -1.83398 -7 -5.50098s-5.66602 -6.16699 -6.99902 -7.5h219
c13.333 15.333 20.666 30.5 21.999 45.5s2 27.167 2 36.5c0 16.667 -10 28.334 -30 35.001c-26 0 -54 -8.5 -84 -25.5s-68.333 -43.167 -115 -78.5zM51.998 -461c-12.667 -14.667 -21.002 -27.168 -25.002 -37.501s-6 -18.833 -6 -25.5c4 -16.667 17 -29 39 -37
c26 0 52 6.66699 78 20c14.667 6 29.834 13 45.501 21s33.834 19 54.501 33c5.33301 2.66699 10.333 6.33398 15 11.001s10.667 9.66699 18 15h-219z" />
    <glyph glyph-name="c" unicode="c" 
d="M496 358l-92.001 -0.000976562v-358h92v-51h-92v-139c0 -16.667 -0.666992 -26.334 -2 -29.001s-4.66602 -11 -9.99902 -25c-3.33301 -8 -8 -16.5 -14 -25.5l-19 -29.5c-30 -34 -65 -61.333 -105 -82c-43.333 -23.333 -82 -35 -116 -35c-37.333 0 -66 4.33301 -86 13
c-24.667 8 -42 24.333 -52 49l-12 41c-1.33301 6.66699 -2.33301 14.834 -3 24.501s-1 19.834 -1 30.501c0 39.333 14.333 77 43 113c23.333 24 48.333 43.167 75 57.5s55.667 26.5 87 36.5h-205v51h369v358h-369v52h369v358h-369v51h369v193h51v-193h92v-51h-92v-358h92
v-52zM114.999 -195.001c-13.333 -9.33301 -32.333 -28.3359 -57 -57.0029c-24.667 -31.333 -37 -54.666 -37 -69.999c4 -16 17 -28 39 -36c26 0 52 6.66699 78 20c30 9.33301 63.333 29 100 59c10.667 6 22.167 14.667 34.5 26s26 26 41 44s23.833 33.833 26.5 47.5
s4 25.834 4 36.501c0 16.667 -10 28.334 -30 35.001c-26 0 -54 -8.5 -84 -25.5s-68.333 -43.5 -115 -79.5zM495.999 1178h-512v51h512v-51zM495.999 1587h-512v51h512v-51zM352.999 -51.0039h-39c6.66699 -2.66699 13 -4.66699 19 -6s12.667 -4.33301 20 -9v15z" />
    <glyph glyph-name="d" unicode="d" 
d="M496 358h-92.002v-358h92v-51h-109c-4 -8 -8 -14.5 -12 -19.5s-9.33301 -12.833 -16 -23.5c-30 -34 -65 -61.333 -105 -82c-43.333 -23.333 -82 -35 -116 -35c-37.333 0 -66 4 -86 12c-24.667 8.66699 -42 25 -52 49l-12 41c-1.33301 7.33301 -2.33301 15 -3 23
s-1 17.667 -1 29v57h10c8.66699 18 19.667 35.667 33 53c28.667 32.667 64.834 59.334 108.501 80.001s87.5 31 131.5 31c18.667 0 33.834 -2.83301 45.501 -8.5s25.167 -13.834 40.5 -24.501v227h-369v52h369v358h-369v51h369v359h-369v51h512v-51h-92v-359h92v-51h-92
v-358h92v-52zM495.998 1587h-512v51h512v-51zM49.998 -51c-15.333 -15.333 -24.001 -28.333 -26.001 -39s-3 -19.667 -3 -27c4 -16 17 -28.333 39 -37c26 0 52 7 78 21c30 9.33301 63.333 29 100 59l16.5 8.5c5.66699 3 11.834 7.83301 18.501 14.5h-223zM114.997 4
c-2.66699 -2.66699 -4.66699 -4 -6 -4h213c13.333 15.333 20.333 28.666 21 39.999s1 22 1 32c0 16 -10 27.333 -30 34c-26 0 -54 -8.16699 -84 -24.5s-68.333 -42.166 -115 -77.499z" />
    <glyph glyph-name="e" unicode="e" 
d="M496 358h-92.001v-145c0 -16.667 -0.666992 -26.334 -2 -29.001s-4.66602 -10.667 -9.99902 -24c-3.33301 -8.66699 -8 -17.334 -14 -26.001s-12.333 -18.667 -19 -30c-30 -34 -65 -61 -105 -81c-9.33301 -6 -18.5 -10.667 -27.5 -14s-17.5 -6.33301 -25.5 -9h295v-51
h-512v51h68c-24.667 8 -42 24.333 -52 49l-12 41c-1.33301 6.66699 -2.33301 14.834 -3 24.501s-1 19.834 -1 30.501c0 40 14.333 77.667 43 113c44 48 98 81.333 162 100h-205v52h369v358h-369v51h369v359h-369v51h369v192h51v-192h92v-51h-92v-359h92v-51h-92v-358h92v-52
zM114.999 209c-13.333 -9.33301 -32.332 -28.333 -56.999 -57c-24.667 -32 -37 -55.333 -37 -70c4 -16.667 17 -29 39 -37c26 0 52 7 78 21c30 9.33301 63.333 29 100 59c10.667 5.33301 22.167 13.833 34.5 25.5s26.166 26.5 41.499 44.5c31.333 35.333 47 63.333 47 84
c0 16 -10.333 27.333 -31 34c-52 0 -123.667 -34.667 -215 -104zM496 1587h-512v51h512v-51zM353 358h-41c13.333 -5.33301 27 -12 41 -20v20z" />
    <glyph glyph-name="f" unicode="f" 
d="M496 768l-92.001 -0.000976562v-358h92v-52h-109c-2.66699 -5.33301 -6.33398 -12 -11.001 -20l-17 -29c-30 -34 -65 -61.333 -105 -82c-43.333 -22.667 -82 -34 -116 -34c-37.333 0 -66 4 -86 12c-24.667 8 -42 24.333 -52 49l-12 41
c-1.33301 6.66699 -2.33301 14.834 -3 24.501s-1 19.834 -1 30.501v60h10c8.66699 17.333 19.667 35 33 53c28.667 32.667 64.834 59.167 108.501 79.5s87.5 30.5 131.5 30.5c18.667 0 33.834 -2.33301 45.501 -7s25.167 -12.334 40.5 -23.001v225h-369v51h369v359h-369v51
h369v358h-369v51h512v-51h-92v-358h92v-51h-92v-359h92v-51zM495.999 -51.001h-512v51h512v-51zM57.999 355.999c-24.667 -31.333 -36.999 -54.333 -36.999 -69c4 -16.667 17 -29 39 -37c26 0 52 6.66699 78 20c30 10 63.333 30 100 60c9.33301 4 21.666 13.333 36.999 28
h-215zM115 413.999c-2.66699 -2.66699 -4.66699 -4 -6 -4h213c13.333 14.667 20.333 28.167 21 40.5s1 23.166 1 32.499c0 16.667 -10 28.334 -30 35.001c-26 0 -54 -8.5 -84 -25.5s-68.333 -43.167 -115 -78.5z" />
    <glyph glyph-name="g" unicode="g" 
d="M496 768l-92.001 -0.000976562v-145c0 -16.667 -0.666992 -26.334 -2 -29.001s-4.66602 -11 -9.99902 -25c-3.33301 -8 -8 -16.5 -14 -25.5l-19 -29.5c-30 -34 -65 -61.333 -105 -82c-9.33301 -5.33301 -18.5 -9.66602 -27.5 -12.999s-17.5 -6.33301 -25.5 -9h295v-52
h-512v52h68c-24.667 8 -42 24.333 -52 49l-12 41c-1.33301 6.66699 -2.33301 14.834 -3 24.501s-1 19.834 -1 30.501c0 39.333 14.333 77 43 113c44 47.333 98 80.666 162 99.999h-205v51h369v359h-369v51h369v358h-369v51h369v193h51v-193h92v-51h-92v-358h92v-51h-92v-359
h92v-51zM114.999 617.999c-13.333 -9.33301 -32.333 -28.3369 -57 -57.0039c-24.667 -31.333 -37 -54.333 -37 -69c4 -16.667 17 -29 39 -37c26 0 52 6.66699 78 20c30 9.33301 63.333 29.333 100 60c10.667 5.33301 22.167 13.833 34.5 25.5s26 26.334 41 44.001
s23.833 33.334 26.5 47.001s4 25.834 4 36.501c0 16.667 -10 28.334 -30 35.001c-26 0 -54 -8.5 -84 -25.5s-68.333 -43.5 -115 -79.5zM495.999 -51.0049h-512v51h512v-51zM352.999 767.995h-41c13.333 -5.33301 27 -12 41 -20v20z" />
    <glyph glyph-name="h" unicode="h" 
d="M76 410l0.000976562 358h-92v51h113c2.66699 5.33301 6.33398 11.166 11.001 17.499s9 13.5 13 21.5c30 34 65 61.333 105 82c43.333 23.333 82 35 116 35c37.333 0 66 -4 86 -12c24.667 -8.66699 42 -25.334 52 -50.001l12 -41c1.33301 -6.66699 2.33301 -14.667 3 -24
s1 -19.666 1 -30.999v-49h-6c-8 -22 -20.333 -43 -37 -63c-28.667 -33.333 -64.834 -60.166 -108.501 -80.499s-87.5 -30.5 -131.5 -30.5c-18.667 0 -33.834 2.33301 -45.501 7s-25.167 12.667 -40.5 24v-215h369v-52h-369v-358h369v-51h-369v-402h-51v402h-92v51h92v358
h-92v52h92zM496.001 1638v-51h-512v51h512zM496.001 1229v-51h-512v51h512zM365.001 754l12.001 9.00098c2.66699 2 4.66699 3.66699 6 5h-217c-14.667 -18 -23.334 -33.833 -26.001 -47.5s-4 -25.834 -4 -36.501c0 -18 10 -29.667 30 -35c26 0 54 8.5 84 25.5
s68.333 43.5 115 79.5zM430.002 819.001c19.333 27.333 29 48.001 29 62.001c-4 16 -17 28.333 -39 37c-26 0 -52 -7 -78 -21c-30 -9.33301 -63.333 -29 -100 -59c-5.33301 -2.66699 -10.333 -5.83398 -15 -9.50098l-12 -9.5h215z" />
    <glyph glyph-name="i" unicode="i" 
d="M76 410l0.000976562 358h-92v51h92v144c0 16 0.666992 25.333 2 28s4.66602 11 9.99902 25c3.33301 8 8 16.5 14 25.5l19 29.5c30 34 65 61.333 105 82c17.333 9.33301 37 17.666 59 24.999h-301v51h512v-51h-72c1.33301 -1.33301 2.66602 -2 3.99902 -2
c24.667 -8.66699 42 -25.334 52 -50.001l12 -41c1.33301 -6.66699 2.33301 -14.667 3 -24s1 -19.666 1 -30.999c0 -40.667 -14.333 -78 -43 -112c-19.333 -23.333 -42.666 -43.666 -69.999 -60.999s-56 -30 -86 -38h199v-51h-369v-358h369v-52h-369v-358h369v-51h-369v-189
h-51v189h-92v51h92v358h-92v52h92zM365.001 967c13.333 9.33301 32.333 28.334 57 57.001c24.667 30 37 53.333 37 70c-4 16 -17 28 -39 36c-26 0 -52 -6.66699 -78 -20c-30 -9.33301 -63.333 -29 -100 -59c-10.667 -6 -22.167 -14.667 -34.5 -26s-26 -26 -41 -44
s-23.833 -33.833 -26.5 -47.5s-4 -25.834 -4 -36.501c0 -18 10 -29.667 30 -35c26 0 54 8.5 84 25.5s68.333 43.5 115 79.5zM496.001 1638v-51h-512v51h512zM127.001 819.001h37c-12 4 -24.333 10.333 -37 19v-19z" />
    <glyph glyph-name="j" unicode="j" 
d="M76 410l0.000976562 358.001h-92v51h92v359h-92v51h109c2.66699 6.66699 6.33398 13.5 11.001 20.5l17 26.5c30 34 65 61.333 105 82c43.333 23.333 82 35 116 35c37.333 0 66 -4.33301 86 -13c24.667 -8 42 -24.333 52 -49l12 -41
c1.33301 -6.66699 2.33301 -14.834 3 -24.501s1 -19.834 1 -30.501v-57h-10c-2.66699 -10 -7.16699 -19.333 -13.5 -28l-19.5 -28c-28.667 -32.667 -64.834 -59.167 -108.501 -79.5s-87.5 -30.5 -131.5 -30.5c-18.667 0 -33.834 2.33301 -45.501 7
s-25.167 12.334 -40.5 23.001v-223h369v-51h-369v-358h369v-52h-369v-358h369v-51h-512v51h92v358h-92v52h92zM496.001 1638v-51h-512v51h512zM422.001 1229c24.667 30 37.001 53 37.001 69c-4 16.667 -17 29 -39 37c-26 0 -52 -6.66699 -78 -20
c-30 -10 -63.333 -30 -100 -60c-5.33301 -2.66699 -10.833 -6 -16.5 -10s-11.834 -9.33301 -18.501 -16h215zM365.002 1171c1.33301 2 2.66699 3.33301 4 4s2.66602 1.66699 3.99902 3h-213c-13.333 -15.333 -20.666 -29.5 -21.999 -42.5s-2 -24.167 -2 -33.5
c0 -18 10 -29.667 30 -35c26 0 54 8.5 84 25.5s68.333 43.167 115 78.5z" />
    <glyph glyph-name="k" unicode="k" 
d="M76 819l0.000976562 359h-92v51h92v143c0 16.667 0.666992 26.334 2 29.001s4.66602 10.667 9.99902 24c3.33301 8.66699 8 17.334 14 26.001s12.333 18.667 19 30c30 34 65 61.333 105 82c17.333 9.33301 37 17.333 59 24h-301v51h512v-51h-72
c1.33301 -1.33301 2.66602 -2 3.99902 -2c24.667 -8 42 -24.333 52 -49l12 -41c1.33301 -6.66699 2.33301 -14.834 3 -24.501s1 -19.834 1 -30.501c0 -41.333 -14.333 -79 -43 -113c-19.333 -23.333 -42.666 -43.5 -69.999 -60.5s-56 -29.5 -86 -37.5h199v-51h-369v-359h369
v-51h-369v-358h369v-52h-369v-194h-51v194h-92v52h92v358h-92v51h92zM365.001 1376c13.333 10 32.333 29.3359 57 58.0029c24.667 30 37 53 37 69c-4 16.667 -17 29 -39 37c-26 0 -52 -6.66699 -78 -20c-30 -10 -63.333 -30 -100 -60
c-10.667 -5.33301 -22.167 -13.833 -34.5 -25.5s-26 -26.334 -41 -44.001s-23.833 -33.334 -26.5 -47.001s-4 -25.834 -4 -36.501c0 -18 10 -29.667 30 -35c26 0 54 8.5 84 25.5s68.333 43.167 115 78.5zM496.001 -50.9971h-512v51h512v-51zM127.001 1229h37
c-12 4 -24.333 10 -37 18v-18z" />
    <glyph glyph-name="l" unicode="l" 
d="M76 819l0.00195312 359.003h-92v51h92v358h-92v51h109l12 22c4 7.33301 9.33301 16 16 26c30 34 65 61 105 81c43.333 23.333 82 35 116 35c37.333 0 66 -4 86 -12c24.667 -8 42 -24.333 52 -49l12 -41c1.33301 -6.66699 2.33301 -14.834 3 -24.501s1 -19.834 1 -30.501
v-58h-10c-2.66699 -9.33301 -7.16699 -18.5 -13.5 -27.5l-19.5 -27.5c-28.667 -32.667 -64.834 -59.334 -108.501 -80.001s-87.5 -31 -131.5 -31c-18.667 0 -33.834 2.5 -45.501 7.5s-25.167 12.833 -40.5 23.5v-223h369v-51h-369v-359h369v-51h-369v-358h369v-52h-512v52
h92v358h-92v51h92zM496.002 -50.9971h-512v51h512v-51zM422.002 1638c24.667 30 37.001 53.333 37.001 70c-4 16.667 -17 29 -39 37c-26 0 -52 -7 -78 -21c-30 -9.33301 -63.333 -29 -100 -59c-5.33301 -2.66699 -10.833 -6 -16.5 -10s-11.834 -9.66699 -18.501 -17h215z
M365.003 1581c1.33301 1.33301 2.66699 2.33203 4 2.99902s2.66602 1.66699 3.99902 3h-213c-13.333 -14.667 -20.666 -28.5 -21.999 -41.5s-2 -24.5 -2 -34.5c0 -17.333 10 -28.666 30 -33.999c26 0 54 8.5 84 25.5s68.333 43.167 115 78.5z" />
    <glyph glyph-name="m" unicode="m" 
d="M76 1229v357.998h-92v51h92v144c0 16 0.666992 25.5 2 28.5s4.66602 11.167 9.99902 24.5c3.33301 8 8 16.5 14 25.5l19 29.5c30 34.667 65 62 105 82c43.333 23.333 82 35 116 35c37.333 0 66 -4 86 -12c24.667 -8.66699 42 -25 52 -49l12 -41
c1.33301 -7.33301 2.33301 -15.666 3 -24.999s1 -19.666 1 -30.999c0 -40.667 -14.333 -78 -43 -112c-19.333 -23.333 -42.666 -43.5 -69.999 -60.5s-56 -29.833 -86 -38.5h199v-51h-369v-358h369v-51h-369v-359h369v-51h-369v-195h-51v195h-92v51h92v359h-92v51h92z
M365 1786c13.333 9.33301 32.333 28.3359 57 57.0029c24.667 30 37 53.333 37 70c-4 16 -17 28.333 -39 37c-26 0 -52 -7 -78 -21c-30 -9.33301 -63.333 -29 -100 -59c-10.667 -5.33301 -22.167 -13.833 -34.5 -25.5s-26 -26.334 -41 -44.001s-23.833 -33.334 -26.5 -47.001
s-4 -26.167 -4 -37.5c0 -17.333 10 -29 30 -35c26 0 54 8.66699 84 26s68.333 43.666 115 78.999zM496 -50.999h-512v51h512v-51zM496 410.001v-52h-512v52h512zM127 1638h37c-12 4.66699 -24.333 11 -37 19v-19z" />
    <glyph glyph-name="n" unicode="n" 
d="M76 1229l0.00195312 358h-92v51h92v359h-151v51h168c4 6.66699 8 13.834 12 21.5c4 7.66699 9.33301 16.167 16 25.5c30 34 65 61.333 105 82c43.333 23.333 82 35 116 35c37.333 0 66 -4 86 -12c23.333 -8.66699 40.666 -25.334 51.999 -50.001l12 -41
c0 -4 0.333008 -11 1 -21s1.33398 -18.833 2.00098 -26.5s1 -12.167 1 -13.5h152v-51h-162c-2.66699 -10 -7.16699 -19.333 -13.5 -28l-19.5 -27c-28.667 -33.333 -64.834 -60.166 -108.501 -80.499s-87.5 -30.5 -131.5 -30.5c-18.667 0 -33.834 2.33301 -45.501 7
s-25.167 12.667 -40.5 24v-224h369v-51h-369v-358h369v-51h-369v-359h369v-51h-512v51h92v359h-92v51h92zM496.002 410v-52h-512v52h512zM496.002 -51h-512v51h512v-51zM422.002 2048c24.667 30 37.001 53.333 37.001 70c-4 16 -17 28 -39 36c-26 0 -52 -6.66699 -78 -20
c-32.667 -10.667 -66 -30.334 -100 -59c-5.33301 -2.66699 -10.833 -6.16699 -16.5 -10.5s-11.834 -9.83301 -18.501 -16.5h215zM365.003 1991c1.33301 1.33301 2.66699 2.33301 4 3s2.66602 1.66699 3.99902 3h-213c-13.333 -15.333 -20.666 -29.5 -21.999 -42.5
s-2 -24.167 -2 -33.5c0 -18 10 -29.667 30 -35c26 0 54 8.5 84 25.5s68.333 43.5 115 79.5z" />
    <glyph glyph-name="o" unicode="o" 
d="M496 1178h-92v-359h92v-51h-109c-2.66699 -5.33301 -6.33398 -12.166 -11.001 -20.499s-10.334 -17.833 -17.001 -28.5c-30 -34 -65 -61.333 -105 -82c-43.333 -23.333 -82 -35 -116 -35c-37.333 0 -66 4 -86 12c-24.667 8.66699 -42 25.334 -52 50.001l-12 41
c-1.33301 6.66699 -2.33301 14.667 -3 24s-1 19.666 -1 30.999v59h10c8.66699 18 19.667 35.667 33 53c28.667 33.333 64.834 60.166 108.501 80.499s87.5 30.5 131.5 30.5c18.667 0 33.834 -2.33301 45.501 -7s25.167 -12.667 40.5 -24v226h-369v51h369v358h-369v51h369
v398h51v-398h92v-51h-92v-358h92v-51zM496 358h-512v52h512v-52zM496 -51h-512v51h512v-51zM58 766c-24.667 -31.333 -36.999 -54.667 -36.999 -70c4 -16 17 -28.333 39 -37c26 0 52 7 78 21c30 9.33301 63.333 29 100 59c9.33301 4 21.666 13.667 36.999 29h-215z
M115.001 822.999c-2.66699 -2.66699 -4.66699 -3.99902 -6 -3.99902h213c13.333 15.333 20.333 29.166 21 41.499s1 23.166 1 32.499c0 16.667 -10 28.334 -30 35.001c-26 0 -54 -8.5 -84 -25.5s-68.333 -43.5 -115 -79.5z" />
    <glyph glyph-name="p" unicode="p" horiz-adv-x="992" 
d="M1008 -870l-227.002 -0.000976562c-7.33301 -38.667 -25.333 -69 -54 -91c-35.333 -31.333 -80.333 -55 -135 -71c-27.333 -8 -54 -13.833 -80 -17.5s-50.333 -5.5 -73 -5.5c-48 0 -98.667 6.5 -152 19.5s-99.666 35.833 -138.999 68.5c-34 28.667 -54.667 61 -62 97
h-204v51h204c7.33301 44.667 28 80 62 106c39.333 32.667 83.666 55.334 132.999 68.001c20.667 6.66699 44.334 11.667 71.001 15s51.334 5 74.001 5c72.667 0 123.334 -6.66699 152.001 -20c53.333 -11.333 100.333 -34 141 -68c35.333 -26 56.666 -61.333 63.999 -106
h225v-51zM1008 -461.001h-1126v51h1126v-51zM1008 767.999h-1024v51h1024v-51zM1008 -51.001h-1024v51h1024v-51zM1008 1178h-1024v51h1024v-51zM1008 1587h-1024v51h1024v-51zM1008 357.999h-1024v52h1024v-52zM296.998 -819.001l267 -0.000976562l-9 24
c-4 14 -9.66699 27.167 -17 39.5s-16 23.833 -26 34.5c-14.667 20.667 -31.5 34.667 -50.5 42s-41.5 11 -67.5 11c-32 -4 -56.167 -14.167 -72.5 -30.5s-24.5 -51.166 -24.5 -104.499v-16zM302.998 -870.002c2 -2.66699 3.33203 -5.16699 3.99902 -7.5
s2.33398 -6.16602 5.00098 -11.499l17 -33.5c6 -11.667 14 -22.834 24 -33.501c16 -22 34 -36.833 54 -44.5s41.333 -11.5 64 -11.5c40 4 66.667 15 80 33c12.667 18 19 53 19 105v4h-267z" />
    <glyph glyph-name="q" unicode="q" horiz-adv-x="992" 
d="M1008 -412l-0.000976562 -49h-379c32.667 -12 62.667 -29.667 90 -53c42.667 -30 64 -72.333 64 -127c0 -48 -18.667 -88.333 -56 -121c-35.333 -31.333 -80.333 -55.333 -135 -72c-27.333 -8 -54 -13.667 -80 -17s-50.333 -5 -73 -5c-48 0 -98.667 6.5 -152 19.5
s-99.666 35.833 -138.999 68.5c-41.333 32.667 -62 75 -62 127s20.667 94.333 62 127c30 26 59.333 43.667 88 53h-354v49h1126zM296.999 -604c0 -20.667 0.666992 -35.502 2 -44.502s5.66602 -22.833 12.999 -41.5c5.33301 -11.333 11 -22.666 17 -33.999
s14 -22.666 24 -33.999c16 -22 34.333 -36.667 55 -44s42.334 -11 65.001 -11c38.667 4 64 14.333 76 31c6.66699 9.33301 11.834 22.5 15.501 39.5s5.5 39.167 5.5 66.5c0 14 -1.33301 27.833 -4 41.5s-6.33398 26.5 -11.001 38.5c-4 14 -9.66699 27 -17 39
s-16 23.667 -26 35c-31.333 40.667 -72 61 -122 61c-32 -4 -55.5 -15.5 -70.5 -34.5s-22.5 -55.167 -22.5 -108.5zM1008 409.998v-52h-1024v52h1024zM1008 1638v-51h-1024v51h1024zM1008 1229v-51h-1024v51h1024zM1008 818.998v-51h-1024v51h1024zM1008 -0.00195312v-51
h-1024v51h1024z" />
    <glyph glyph-name="r" unicode="r" horiz-adv-x="992" 
d="M1008 -461l-227.003 0.00195312c-7.33301 -39.333 -25.333 -71.333 -54 -96c-35.333 -31.333 -80.333 -55.333 -135 -72c-27.333 -8 -54 -13.667 -80 -17s-50.333 -5 -73 -5c-48 0 -98.667 6.5 -152 19.5s-99.666 35.833 -138.999 68.5
c-34 28.667 -54.667 62.667 -62 102h-204v51h206c7.33301 44 27.333 77.667 60 101c38 32.667 82.333 55 133 67c20.667 7.33301 44.334 12.666 71.001 15.999s51.334 5 74.001 5c70 0 120.667 -7 152 -21c53.333 -10.667 100.333 -33 141 -67
c35.333 -24.667 56 -58.334 62 -101.001h227v-51zM1008 1587h-1024v51h1024v-51zM1008 1178h-1024v51h1024v-51zM1008 -50.998h-1024v51h1024v-51zM1008 358.002h-1024v52h1024v-52zM1008 768.002h-1024v51h1024v-51zM300.997 -460.998
c1.33301 -2.66699 2.83105 -5.99902 4.49805 -9.99902s3.83398 -8.66699 6.50098 -14l17 -34.5c6 -11.667 14 -22.834 24 -33.501c16 -22 34.333 -36.667 55 -44s42.334 -11 65.001 -11c37.333 4 63.333 15.667 78 35c7.33301 9.33301 12.333 21.833 15 37.5
s4 37.167 4 64.5v10h-269zM296.995 -409.997l265 0.000976562l-7 19c-4 13.333 -9.66699 26.166 -17 38.499s-16 24.166 -26 35.499c-14.667 20 -31.5 33.833 -50.5 41.5s-41.5 11.5 -67.5 11.5c-32 -4 -56.167 -14.167 -72.5 -30.5s-24.5 -51.166 -24.5 -104.499v-11z" />
    <glyph glyph-name="s" unicode="s" horiz-adv-x="992" 
d="M86 -231c0 51.333 20.666 93.668 61.999 127.001c30 25.333 59.333 43 88 53h-252v51h1024v-51h-379c32.667 -12.667 62.667 -30.334 90 -53.001c42.667 -30.667 64 -73 64 -127c0 -48 -18.667 -88.333 -56 -121c-35.333 -31.333 -80.333 -55.333 -135 -72
c-27.333 -8 -54 -13.667 -80 -17s-50.333 -5 -73 -5c-48 0 -98.667 6.33301 -152 19s-99.666 35.667 -138.999 69c-41.333 32.667 -62 75 -62 127zM296.999 -194.998c0 -20 0.666992 -34.501 2 -43.501s5.66602 -23.167 12.999 -42.5l17 -33.5
c6 -11.667 14 -22.834 24 -33.501c16 -22 34.667 -36.667 56 -44s43.666 -11 66.999 -11c18.667 2.66699 33.834 7.66699 45.501 15s20.834 15.833 27.501 25.5s11.834 21.334 15.501 35.001s5.5 34.167 5.5 61.5c0 13.333 -1.33301 26.833 -4 40.5
s-6.33398 26.834 -11.001 39.501c-4 13.333 -9.66699 26.166 -17 38.499s-16 23.833 -26 34.5c-31.333 41.333 -72 62 -122 62c-32 -4 -55.5 -15.667 -70.5 -35s-22.5 -55.666 -22.5 -108.999zM1008 358.001h-1024v52h1024v-52zM1008 1587h-1024v51h1024v-51zM1008 1178
h-1024v51h1024v-51zM1008 768.001h-1024v51h1024v-51z" />
    <glyph glyph-name="t" unicode="t" horiz-adv-x="992" 
d="M1008 -51l-227.003 0.000976562c-7.33301 -38.667 -25.333 -68.667 -54 -90c-35.333 -31.333 -80.333 -55.333 -135 -72c-27.333 -8 -54 -13.833 -80 -17.5s-50.333 -5.5 -73 -5.5c-48 0 -98.667 6.5 -152 19.5s-99.666 36.167 -138.999 69.5
c-34 28.667 -54.667 60.667 -62 96h-102v51h104c7.33301 44 27.333 77.333 60 100c39.333 33.333 83.666 56 132.999 68c20.667 6.66699 44.334 11.667 71.001 15s51.334 5 74.001 5c68.667 0 119.334 -6.66699 152.001 -20c53.333 -10.667 100.333 -33.334 141 -68.001
c34 -26 54.667 -59.333 62 -100h227v-51zM1008 358.001h-1024v52h1024v-52zM1008 1178h-1024v51h1024v-51zM1008 1587h-1024v51h1024v-51zM1008 768.001h-1024v51h1024v-51zM296.997 0.000976562l265 -0.000976562l-7 18c-4 14 -9.66699 27.167 -17 39.5
s-16 23.833 -26 34.5c-14.667 20.667 -31.5 34.667 -50.5 42s-41.5 11 -67.5 11c-32 -4 -56.167 -14.167 -72.5 -30.5s-24.5 -51.166 -24.5 -104.499v-10zM302.997 -51c2 -2.66699 3.33105 -5 3.99805 -7s2.33398 -6 5.00098 -12l17 -33.5c6 -11.667 14 -22.834 24 -33.501
c16 -22 34 -36.833 54 -44.5s41.333 -11.5 64 -11.5c34.667 4.66699 59.334 16.334 74.001 35.001c6.66699 10 12.5 22.833 17.5 38.5s7.5 37.167 7.5 64.5v4h-267z" />
    <glyph glyph-name="u" unicode="u" horiz-adv-x="992" 
d="M1008 358h-379c16.667 -6.66699 32.167 -14.334 46.5 -23.001s28.833 -18.667 43.5 -30c42.667 -30 64 -72.333 64 -127c0 -48 -18.667 -88.333 -56 -121c-13.333 -10.667 -27.5 -21.167 -42.5 -31.5s-32.167 -18.833 -51.5 -25.5h375v-51h-1024v51h250
c-15.333 6.66699 -30.5 14.167 -45.5 22.5s-28.5 17.833 -40.5 28.5c-41.333 32.667 -62 75 -62 127s20.667 94.333 62 127c13.333 11.333 27.5 21.333 42.5 30s30.167 16.334 45.5 23.001h-252v52h1024v-52zM297 215c0 -20.667 0.666992 -35.335 2 -44.002
s5.66602 -22.667 12.999 -42l17 -33.5c6 -11.667 14 -23.167 24 -34.5c26 -35.333 56.667 -55.666 92 -60.999h45c13.333 2.66699 24.833 7.83398 34.5 15.501s17.834 16.167 24.501 25.5s11.834 21.833 15.501 37.5s5.5 37.167 5.5 64.5c0 14 -1.33301 27.833 -4 41.5
s-6.33398 26.5 -11.001 38.5c-4 14 -9.66699 27.167 -17 39.5s-16 23.833 -26 34.5c-31.333 40.667 -72 61 -122 61c-32 -4 -55.5 -15.5 -70.5 -34.5s-22.5 -55.167 -22.5 -108.5zM1008 1587h-1024v51h1024v-51zM1008 767.999h-1024v51h1024v-51zM1008 1178h-1024v51h1024
v-51z" />
    <glyph glyph-name="v" unicode="v" horiz-adv-x="992" 
d="M1008 358h-227.003c-7.33301 -39.333 -25.333 -71.333 -54 -96c-35.333 -31.333 -80.333 -55.333 -135 -72c-27.333 -8 -54 -13.667 -80 -17s-50.333 -5 -73 -5c-48 0 -98.667 6.5 -152 19.5s-99.666 35.833 -138.999 68.5c-35.333 27.333 -56 61.333 -62 102h-102v52
h104c7.33301 43.333 27.333 76.666 60 99.999c39.333 32.667 83.666 55.334 132.999 68.001c20.667 6.66699 44.334 11.667 71.001 15s51.334 5 74.001 5c68.667 0 119.334 -6.66699 152.001 -20c53.333 -11.333 100.333 -34 141 -68c34 -26 54.667 -59.333 62 -100h227v-52
zM1008 1178h-1024v51h1024v-51zM1008 1587h-1024v51h1024v-51zM1008 -51h-1024v51h1024v-51zM1008 768h-1024v51h1024v-51zM300.997 358c3.33301 -8 9.66504 -21.498 18.998 -40.498s20.333 -36.167 33 -51.5c16 -22 33.667 -36.667 53 -44s40.333 -11 63 -11
c19.333 2.66699 35.833 7.5 49.5 14.5s23.834 15.167 30.501 24.5s11.834 21.166 15.501 35.499s5.5 35.166 5.5 62.499v10h-269zM296.996 410.002l265 -0.000976562l-7 18c-4 14 -9.66699 27 -17 39s-16 23.667 -26 35c-14.667 20 -31.5 33.833 -50.5 41.5
s-41.5 11.5 -67.5 11.5c-32 -4 -56.167 -14.167 -72.5 -30.5s-24.5 -51.166 -24.5 -104.499v-10z" />
    <glyph glyph-name="w" unicode="w" horiz-adv-x="992" 
d="M1008 768h-379c16.667 -6.66699 32.167 -14.5 46.5 -23.5s28.833 -18.833 43.5 -29.5c42.667 -30 64 -72.333 64 -127c0 -48 -18.667 -88.333 -56 -121c-13.333 -10.667 -27.5 -21.167 -42.5 -31.5s-32.167 -18.833 -51.5 -25.5h375v-52h-1024v52h250
c-15.333 6.66699 -30.5 14 -45.5 22s-28.5 17.667 -40.5 29c-41.333 32.667 -62 75 -62 127s20.667 94.333 62 127c13.333 10.667 27.5 20.5 42.5 29.5s30.167 16.833 45.5 23.5h-252v51h1024v-51zM297 625c0 -20.667 0.668945 -35.499 2.00195 -44.499
s5.66602 -22.833 12.999 -41.5l17 -34.5c6 -11.667 14 -22.834 24 -33.501c26 -35.333 56.667 -55.666 92 -60.999h45c26 4 46.333 15.333 61 34c12.667 18 19 54.333 19 109c0 13.333 -1.33301 26.833 -4 40.5s-6.33398 26.834 -11.001 39.501
c-4 13.333 -9.66699 26.166 -17 38.499s-16 24.166 -26 35.499c-31.333 40.667 -72 61 -122 61c-32 -4 -55.5 -15.5 -70.5 -34.5s-22.5 -55.167 -22.5 -108.5zM1008 1587h-1024v51h1024v-51zM1008 1178h-1024v51h1024v-51zM1008 -50.999h-1024v51h1024v-51z" />
    <glyph glyph-name="x" unicode="x" horiz-adv-x="992" 
d="M1008 768l-227.003 -0.000976562c-7.33301 -39.333 -25.333 -71.333 -54 -96c-35.333 -31.333 -80.333 -55.333 -135 -72c-27.333 -8 -54 -13.667 -80 -17s-50.333 -5 -73 -5c-48 0 -98.667 6.33301 -152 19s-99.666 35.667 -138.999 69
c-35.333 27.333 -56 61.333 -62 102h-102v51h104c7.33301 44 27.333 77.667 60 101c39.333 32.667 83.666 55 132.999 67c20.667 6.66699 44.334 11.834 71.001 15.501s51.334 5.5 74.001 5.5c68.667 0 119.334 -7 152.001 -21c53.333 -10.667 100.333 -33 141 -67
c34 -26 54.667 -59.667 62 -101h227v-51zM1008 357.999h-1024v52h1024v-52zM1008 1178h-1024v51h1024v-51zM1008 -51.001h-1024v51h1024v-51zM1008 1587h-1024v51h1024v-51zM300.997 767.999c3.33301 -8 9.66602 -21.666 18.999 -40.999s20.333 -36.333 33 -51
c16 -22 34 -36.667 54 -44s41.333 -11 64 -11c38.667 4 64.667 14.667 78 32c6.66699 10 11.834 23.167 15.501 39.5s5.5 38.166 5.5 65.499v10h-269zM296.997 819l265 -0.000976562l-7 19c-4 13.333 -9.66699 26.166 -17 38.499s-16 23.833 -26 34.5
c-14.667 20.667 -31.5 34.834 -50.5 42.501s-41.5 11.5 -67.5 11.5c-32 -4.66699 -56.167 -15.167 -72.5 -31.5s-24.5 -51.166 -24.5 -104.499v-10z" />
    <glyph glyph-name="y" unicode="y" horiz-adv-x="992" 
d="M1008 1178h-379c16.667 -7.33301 32.167 -15.333 46.5 -24s28.833 -18.667 43.5 -30c42.667 -30 64 -72.333 64 -127c0 -47.333 -18.667 -87.333 -56 -120c-13.333 -11.333 -27.5 -22.166 -42.5 -32.499s-32.167 -18.833 -51.5 -25.5h375v-51h-1024v51h250
c-15.333 6.66699 -30.5 14.167 -45.5 22.5s-28.5 17.833 -40.5 28.5c-41.333 33.333 -62 75.666 -62 126.999c0 52 20.667 94.333 62 127c13.333 11.333 27.5 21.333 42.5 30s30.167 16.667 45.5 24h-252v51h1024v-51zM297 1034c0 -20 0.669922 -34.5 2.00293 -43.5
s5.66602 -23.167 12.999 -42.5l17 -33.5c6 -11.667 14 -22.834 24 -33.501c26 -36 56.667 -56.667 92 -62h45c13.333 2.66699 25.166 7.83398 35.499 15.501s19 16.167 26 25.5s11.833 22 14.5 38s4 37.667 4 65c0 13.333 -1.33301 26.833 -4 40.5
s-6.33398 26.5 -11.001 38.5c-4 14 -9.66699 27.167 -17 39.5s-16 23.833 -26 34.5c-31.333 41.333 -72 62 -122 62c-32 -4.66699 -55.5 -16.5 -70.5 -35.5s-22.5 -55.167 -22.5 -108.5zM1008 1587h-1024v51h1024v-51zM1008 358h-1024v52h1024v-52zM1008 -51h-1024v51h1024
v-51z" />
    <glyph glyph-name="z" unicode="z" horiz-adv-x="992" 
d="M1008 1178l-227.003 0.000976562c-7.33301 -40 -25.333 -72.333 -54 -97c-35.333 -31.333 -80.333 -55 -135 -71c-27.333 -8.66699 -54 -14.667 -80 -18s-50.333 -5 -73 -5c-48 0 -98.667 6.5 -152 19.5s-99.666 35.833 -138.999 68.5
c-35.333 27.333 -56 61.666 -62 102.999h-102v51h104c7.33301 43.333 27.333 76.666 60 99.999c39.333 32.667 83.666 55.334 132.999 68.001c20.667 6.66699 44.334 11.667 71.001 15s51.334 5 74.001 5c68.667 0 119.334 -6.66699 152.001 -20
c53.333 -11.333 100.333 -34 141 -68c34 -26 54.667 -59.333 62 -100h227v-51zM1008 358.001h-1024v52h1024v-52zM1008 1587h-1024v51h1024v-51zM1008 -50.999h-1024v51h1024v-51zM1008 768.001h-1024v51h1024v-51zM300.997 1178c3.33301 -8.66699 9.66699 -22.5 19 -41.5
s20.333 -36.167 33 -51.5c16 -21.333 34 -35.833 54 -43.5s41.333 -11.5 64 -11.5c34.667 4 60 16.333 76 37c6.66699 9.33301 12.167 21.5 16.5 36.5s6.5 36.167 6.5 63.5v11h-269zM296.998 1229l265 -0.000976562l-7 18c-4 14 -9.66699 27.167 -17 39.5
s-16 23.833 -26 34.5c-14.667 20.667 -31.5 34.667 -50.5 42s-41.5 11 -67.5 11c-32 -4 -56.167 -14.167 -72.5 -30.5s-24.5 -51.166 -24.5 -104.499v-10z" />
    <glyph glyph-name="braceleft" unicode="{" horiz-adv-x="992" 
d="M1008 1587h-379c16.667 -6.66699 32.167 -14.5 46.5 -23.5s28.833 -18.833 43.5 -29.5c42.667 -30 64 -72.333 64 -127c0 -48 -18.667 -88.333 -56 -121c-13.333 -10.667 -27.5 -21.167 -42.5 -31.5s-32.167 -18.833 -51.5 -25.5h375v-51h-1024v51h250
c-15.333 6.66699 -30.5 14.167 -45.5 22.5s-28.5 17.833 -40.5 28.5c-41.333 32.667 -62 75 -62 127s20.667 94.333 62 127c13.333 10.667 27.5 20.5 42.5 29.5s30.167 16.833 45.5 23.5h-252v51h1024v-51zM297 1444c0 -20.667 0.669922 -35.5039 2.00293 -44.5039
s5.66602 -22.833 12.999 -41.5c5.33301 -11.333 11 -22.666 17 -33.999s14 -22.666 24 -33.999c26 -35.333 56.667 -55.666 92 -60.999h45c13.333 2.66699 25.166 7.33398 35.499 14.001s18.833 15 25.5 25c12.667 17.333 19 52 19 104c0 14 -1.33301 27.833 -4 41.5
s-6.33398 26.5 -11.001 38.5c-4 14 -9.66699 27 -17 39s-16 23.667 -26 35c-31.333 40.667 -72 61 -122 61c-32 -4 -55.5 -15.5 -70.5 -34.5s-22.5 -55.167 -22.5 -108.5zM1008 357.996h-1024v52h1024v-52zM1008 767.996h-1024v51h1024v-51zM1008 -51.0039h-1024v51h1024
v-51z" />
    <glyph glyph-name="bar" unicode="|" horiz-adv-x="992" 
d="M1008 1587l-227.003 0.000976562c-7.33301 -39.333 -25.333 -71.333 -54 -96c-35.333 -31.333 -80.333 -55.333 -135 -72c-27.333 -8 -54 -13.667 -80 -17s-50.333 -5 -73 -5c-48 0 -98.667 6.5 -152 19.5s-99.666 35.833 -138.999 68.5
c-35.333 27.333 -56 61.333 -62 102h-102v51h104c7.33301 44 27.333 77.667 60 101c39.333 32.667 83.666 55 132.999 67c20.667 7.33301 44.334 12.666 71.001 15.999s51.334 5 74.001 5c68.667 0 119.334 -7 152.001 -21c53.333 -10.667 100.333 -33 141 -67
c34 -26 54.667 -59.667 62 -101h227v-51zM1008 1178h-1024v51h1024v-51zM1008 358.001h-1024v52h1024v-52zM1008 -50.999h-1024v51h1024v-51zM1008 768.001h-1024v51h1024v-51zM300.997 1587c3.33301 -8 9.66602 -21.498 18.999 -40.498s20.333 -36.167 33 -51.5
c16 -22 34.333 -36.667 55 -44s42.334 -11 65.001 -11c34.667 4 58.667 15 72 33c6.66699 9.33301 12.5 22.166 17.5 38.499s7.5 38.166 7.5 65.499v10h-269zM296.997 1638l265 0.00195312l-7 19c-4 13.333 -9.66699 26.166 -17 38.499s-16 24.166 -26 35.499
c-14.667 20 -31.5 34.167 -50.5 42.5s-41.5 12.5 -67.5 12.5c-32 -4 -56.167 -14.5 -72.5 -31.5s-24.5 -52.167 -24.5 -105.5v-11z" />
    <glyph glyph-name="braceright" unicode="}" horiz-adv-x="992" 
d="M86 1817c0 51.333 20.665 93.666 61.998 126.999c39.333 32.667 83.666 55 132.999 67c20.667 6.66699 44.334 11.834 71.001 15.501s51.334 5.5 74.001 5.5c68.667 0 119.334 -7 152.001 -21c53.333 -10.667 100.333 -33 141 -67c42.667 -30.667 64 -73 64 -127
c0 -48 -18.667 -88.333 -56 -121c-13.333 -11.333 -27.5 -22 -42.5 -32s-32.167 -18.667 -51.5 -26h375v-51h-1024v51h250c-15.333 7.33301 -30.5 15 -45.5 23s-28.5 17.667 -40.5 29c-41.333 32.667 -62 75 -62 127zM296.998 1853c0 -20 0.669922 -34.5 2.00293 -43.5
s5.66602 -23.167 12.999 -42.5l17 -33.5c6 -11.667 14 -22.834 24 -33.501c26 -35.333 56.667 -56 92 -62h45c27.333 4.66699 47.666 15.667 60.999 33c12.667 18 19 55 19 111c0 13.333 -1.33301 26.833 -4 40.5s-6.33398 26.834 -11.001 39.501
c-4 13.333 -9.66699 26.166 -17 38.499s-16 23.833 -26 34.5c-14.667 20.667 -31.5 35.167 -50.5 43.5s-41.5 12.5 -67.5 12.5c-32 -4 -56.167 -14.667 -72.5 -32s-24.5 -52.666 -24.5 -105.999zM1008 358h-1024v52h1024v-52zM1008 1178h-1024v51h1024v-51zM1008 768h-1024
v51h1024v-51zM1008 -51h-1024v51h1024v-51z" />
    <glyph glyph-name="asciitilde" unicode="~" horiz-adv-x="992" 
d="M1008 1997h-227.003c-7.33301 -40 -25.333 -72 -54 -96c-35.333 -32 -80.333 -56 -135 -72c-27.333 -8 -54 -13.833 -80 -17.5s-50.333 -5.5 -73 -5.5c-48 0 -98.667 6.5 -152 19.5s-99.666 35.833 -138.999 68.5c-34 26 -54.667 60.333 -62 103h-204v51h206
c7.33301 44 27.333 77.333 60 100c38 33.333 82.333 56 133 68c20.667 6.66699 44.334 11.667 71.001 15s51.334 5 74.001 5c70 0 120.667 -6.66699 152 -20c53.333 -10.667 100.333 -33.334 141 -68c35.333 -27.333 56 -60.666 62 -100h227v-51zM1008 1587h-1024v51h1024
v-51zM1008 1178h-1024v51h1024v-51zM1008 -51h-1024v51h1024v-51zM1008 358h-1024v52h1024v-52zM1008 768h-1024v51h1024v-51zM300.997 1997c3.33301 -8 9.66699 -21.667 19 -41s20.333 -36.333 33 -51c32.667 -42.667 72.667 -64 120 -64c37.333 4 63.333 15.667 78 35
c12.667 18 19 55 19 111v10h-269zM296.998 2048h265l-7 18c-4 14 -9.66699 27.167 -17 39.5s-16 23.833 -26 34.5c-14.667 20.667 -31.5 35 -50.5 43s-41.5 12 -67.5 12c-32 -4 -56.167 -14.5 -72.5 -31.5s-24.5 -52.167 -24.5 -105.5v-10z" />
    <glyph glyph-name="uni00A0" unicode="&#xa0;" 
 />
    <glyph glyph-name="exclamdown" unicode="&#xa1;" 
d="M496 1587h-213v-35l78 15v-117l-78 -12v-172h-51v164l-111 -21v-180h375v-51h-512v51h86v170l-86 -15v117l86 15v71h-86v51h86v39l-86 -14v113l86 14v174h51v-164l111 19v223h51v-215l78 14v-110l-78 -15v-78h213v-51zM496 358h-512v52h512v-52zM496 -51h-512v51h512v-51
zM496 768h-512v51h512v-51zM232 1638v68l-111 -18v-50h111zM232 1587h-111v-61l111 18v43z" />
    <glyph glyph-name="cent" unicode="&#xa2;" horiz-adv-x="992" 
d="M1008 1178h-272v-62l-78 -14v-164l78 14v-116l-78 -13v-4h350v-51h-350v-117h-51v117h-111v-190h-51v190h-461v51h375v68l86 14v162l-86 -14v112l86 15v2h-461v51h86v170l-86 -15v117l86 15v71h-86v51h86v39l-86 -14v113l86 14v174h51v-164l111 19v223h51v-215l78 14
v-110l-78 -15v-78h725v-51h-725v-35l78 15v-117l-78 -12v-172h-51v164l-111 -21v-180h324v121h51v-121h111v198h51v-198h350v-51zM1008 358h-1024v52h1024v-52zM1008 -51h-1024v51h1024v-51zM607 1092l-111 -19v-162l111 19v162zM232 1638v68l-111 -18v-50h111zM232 1587
h-111v-61l111 18v43z" />
    <glyph glyph-name="sterling" unicode="&#xa3;" horiz-adv-x="1504" 
d="M1520 1178h-784v-62l-78 -14v-164l78 14v-116l-78 -13v-4h862v-51h-862v-117h-51v117h-111v-190h-51v190h-461v51h375v68l86 14v162l-86 -14v112l86 15v2h-461v51h86v170l-86 -15v117l86 15v71h-86v51h86v39l-86 -14v113l86 14v174h51v-164l111 19v223h51v-215l78 14
v-110l-78 -15v-78h455v74l86 14v162l-86 -14v113l86 14v174h51v-164l110 19v223h52v-215l77 14v-110l-77 -15v-164l77 15v-117l-77 -12v-11h483v-51h-483v-110h-52v110h-110v-184h-51v184h-541v-35l78 15v-117l-78 -12v-172h-51v164l-111 -21v-180h324v121h51v-121h111v198
h51v-198h862v-51zM1520 358h-1536v52h1536v-52zM1520 -51h-1536v51h1536v-51zM607 1092l-111 -19v-162l111 19v162zM985 1917l-110 -19v-161l110 18v162zM232 1638v68l-111 -18v-50h111zM232 1587h-111v-61l111 18v43zM985 1638v2l-12 -2h12z" />
    <glyph glyph-name="currency" unicode="&#xa4;" horiz-adv-x="1504" 
d="M1520 1178h-113v-37l78 14v-117l-78 -12v-172h-51v164l-110 -21v-178h274v-51h-862v-117h-51v117h-111v-190h-51v190h-461v51h375v68l86 14v162l-86 -14v112l86 15v2h-461v51h86v170l-86 -15v117l86 15v71h-86v51h86v39l-86 -14v113l86 14v174h51v-164l111 19v223h51
v-215l78 14v-110l-78 -15v-78h455v74l86 14v162l-86 -14v113l86 14v174h51v-164l110 19v223h52v-215l77 14v-110l-77 -15v-164l77 15v-117l-77 -12v-11h483v-51h-113v-172l78 15v-111l-78 -14v-76h113v-51zM283 1552l78 15v-117l-78 -12v-172h-51v164l-111 -21v-180h324v121
h51v-121h111v198h51v-198h536v37l-86 -15v113l86 14v174h52v-163l110 18v180h-319v-110h-52v110h-110v-184h-51v184h-541v-35zM1194 1178h-458v-62l-78 -14v-164l78 14v-116l-78 -13v-4h536v168l-86 -14v117l86 14v74zM1520 358h-1536v52h1536v-52zM1520 -51h-1536v51h1536
v-51zM607 1092l-111 -19v-162l111 19v162zM985 1917l-110 -19v-161l110 18v162zM232 1638v68l-111 -18v-50h111zM1356 1229v65l-110 -18v-47h110zM1356 1178h-110v-64l110 19v45zM232 1587h-111v-61l111 18v43zM985 1638v2l-12 -2h12z" />
    <glyph glyph-name="yen" unicode="&#xa5;" horiz-adv-x="2016" 
d="M2032 768h-197v-61l-77 -15v-164l77 15v-117l-77 -12v-4h274v-52h-274v-116h-50v116h-110v-190h-49v190h-1565v52h1479v67l86 15v161l-86 -14v113l86 14v2h-899v-117h-50v117h-110v-190h-49v190h-457v51h371v68l86 14v162l-86 -14v112l86 15v2h-457v51h86v170l-86 -15
v117l86 15v71h-86v51h86v39l-86 -14v113l86 14v174h49v-164l111 19v223h49v-215l78 14v-110l-78 -15v-78h450v74l86 14v162l-86 -14v113l86 14v174h50v-164l110 19v223h49v-215l78 14v-110l-78 -15v-164l78 15v-117l-78 -12v-11h1008v-51h-641v-172l78 15v-111l-78 -14v-76
h641v-51h-641v-37l78 14v-117l-78 -12v-172h-49v164l-111 -21v-178h318v121h49v-121h110v199h50v-199h274v-51zM279 1552l78 15v-117l-78 -12v-172h-49v164l-111 -21v-180h322v121h49v-121h110v198h50v-198h532v37l-86 -15v113l86 14v174h49v-163l111 18v180h-318v-110h-49
v110h-110v-184h-50v184h-536v-35zM1182 1178h-455v-62l-77 -14v-164l77 14v-116l-77 -13v-4h532v168l-86 -14v117l86 14v74zM2032 -51h-2048v51h2048v-51zM600 1092l-110 -19v-162l110 19v162zM1708 682l-110 -18v-162l110 18v162zM975 1917l-110 -19v-161l110 18v162z
M230 1638v68l-111 -18v-50h111zM1342 1229v65l-111 -18v-47h111zM1342 1178h-111v-64l111 19v45zM230 1587h-111v-61l111 18v43zM975 1638v2l-12 -2h12z" />
    <glyph glyph-name="brokenbar" unicode="&#xa6;" horiz-adv-x="2528" 
d="M2542 768h-707v-61l-77 -15v-164l77 15v-117l-77 -12v-4h784v-52h-784v-116h-50v116h-110v-190h-49v190h-1565v52h1479v67l86 15v161l-86 -14v113l86 14v2h-899v-117h-50v117h-110v-190h-49v190h-457v51h371v68l86 14v162l-86 -14v112l86 15v2h-457v51h86v170l-86 -15
v117l86 15v71h-86v51h86v39l-86 -14v113l86 14v174h49v-164l111 19v223h49v-215l78 14v-110l-78 -15v-78h450v74l86 14v162l-86 -14v113l86 14v174h50v-164l110 19v223h49v-215l78 14v-110l-78 -15v-164l78 15v-117l-78 -12v-11h885v119h49v-119h111v197h49v-197h424v-51
h-346v-63l-78 -15v-163l78 14v-117l-78 -12v-2h424v-51h-424v-119h-49v119h-111v-193h-49v193h-518v-37l78 14v-117l-78 -12v-172h-49v164l-111 -21v-178h318v121h49v-121h110v199h50v-199h784v-51zM279 1552l78 15v-117l-78 -12v-172h-49v164l-111 -21v-180h322v121h49
v-121h110v198h50v-198h532v37l-86 -15v113l86 14v174h49v-163l111 18v180h-318v-110h-49v110h-110v-184h-50v184h-536v-35zM1182 1178h-455v-62l-77 -14v-164l77 14v-116l-77 -13v-4h532v168l-86 -14v117l86 14v74zM1909 1470l-86 -14v113l86 14v4h-518v-172l78 15v-111
l-78 -14v-76h432v65l86 15v161zM2544 -51h-2560v51h2560v-51zM600 1092l-110 -19v-162l110 19v162zM1708 682l-110 -18v-162l110 18v162zM975 1917l-110 -19v-161l110 18v162zM2069 1499l-111 -18v-162l111 18v162zM230 1638v68l-111 -18v-50h111zM1342 1229v65l-111 -18
v-47h111zM1342 1178h-111v-64l111 19v45zM230 1587h-111v-61l111 18v43zM975 1638v2l-12 -2h12z" />
    <glyph glyph-name="section" unicode="&#xa7;" horiz-adv-x="3040" 
d="M3056 768h-563v-41l78 14v-116l-78 -13v-172h-49v164l-111 -20v-174h723v-52h-1298v-116h-50v116h-110v-190h-49v190h-1565v52h1479v67l86 15v161l-86 -14v113l86 14v2h-899v-117h-50v117h-110v-190h-49v190h-457v51h371v68l86 14v162l-86 -14v112l86 15v2h-457v51h86
v170l-86 -15v117l86 15v71h-86v51h86v39l-86 -14v113l86 14v174h49v-164l111 19v223h49v-215l78 14v-110l-78 -15v-78h450v74l86 14v162l-86 -14v113l86 14v174h50v-164l110 19v223h49v-215l78 14v-110l-78 -15v-164l78 15v-117l-78 -12v-11h885v119h49v-119h111v197h49
v-197h938v-51h-860v-63l-78 -15v-163l78 14v-117l-78 -12v-2h938v-51h-563v-177l78 15v-111l-78 -14v-72h563v-51zM279 1552l78 15v-117l-78 -12v-172h-49v164l-111 -21v-180h322v121h49v-121h110v198h50v-198h532v37l-86 -15v113l86 14v174h49v-163l111 18v180h-318v-110
h-49v110h-110v-184h-50v184h-536v-35zM1391 1141l78 14v-117l-78 -12v-172h-49v164l-111 -21v-178h318v121h49v-121h110v199h50v-199h526v33l-86 -14v112l86 15v174h49v-164l111 18v185h-326v-119h-49v119h-111v-193h-49v193h-518v-37zM1182 1178h-455v-62l-77 -14v-164
l77 14v-116l-77 -13v-4h532v168l-86 -14v117l86 14v74zM2284 768h-449v-61l-77 -15v-164l77 15v-117l-77 -12v-4h526v163l-86 -14v117l86 14v78zM1909 1470l-86 -14v113l86 14v4h-518v-172l78 15v-111l-78 -14v-76h432v65l86 15v161zM3056 -51h-3072v51h3072v-51zM600 1092
l-110 -19v-162l110 19v162zM975 1917l-110 -19v-161l110 18v162zM2069 1499l-111 -18v-162l111 18v162zM1708 682l-110 -18v-162l110 18v162zM230 1638v68l-111 -18v-50h111zM2444 768h-111v-68l111 19v49zM1342 1229v65l-111 -18v-47h111zM1342 1178h-111v-64l111 19v45z
M230 1587h-111v-61l111 18v43zM2444 819v62l-111 -19v-43h111zM975 1638v2l-12 -2h12z" />
    <glyph glyph-name="dieresis" unicode="&#xa8;" horiz-adv-x="992" 
d="M1008 1178l-977 0.000976562v-289c42.667 30 89 45 139 45c34.667 0 65.5 -9.5 92.5 -28.5s40.5 -45.167 40.5 -78.5v-8h705v-51h-729l-6 -6c-8.66699 -12.667 -20.5 -25 -35.5 -37l-52.5 -41l-107 -78c-18.667 -12 -35.667 -24.833 -51 -38.5s-29 -26.834 -41 -39.501
v240h-2v51h2v359h-2v51h2v160h45v-160h977v-51zM1008 358.001h-1024v52h1024v-52zM1008 -50.999h-1024v51h1024v-51zM1008 1587h-1024v51h1024v-51zM31 614.001l62 62l29.5 28.5c9 8.33301 16.167 16.5 21.5 24.5c5.33301 5.33301 10 11.5 14 18.5l12 20.5h-139v-154z
M31 819.001l153.999 0.000976562v4c0 11.333 -2.16699 20.666 -6.5 27.999s-9.16602 14.333 -14.499 21c-5.33301 4.66699 -11.333 8.66699 -18 12s-15.667 5 -27 5c-38 0 -67.333 -20.667 -88 -62v-8z" />
    <glyph glyph-name="copyright" unicode="&#xa9;" horiz-adv-x="992" 
d="M1008 1178h-977.001v-289c42.667 30 89 45 139 45c34.667 0 65.5 -9.5 92.5 -28.5s40.5 -45.167 40.5 -78.5v-8h705v-51h-729l-6 -6c-8.66699 -12.667 -20.5 -25 -35.5 -37l-52.5 -41l-107 -78c-18.667 -12 -35.667 -24.833 -51 -38.5s-29 -26.834 -41 -39.501v240h-2v51
h2v359h-2v51h2v160h45v-160h330v358h-377v51h377v410h45v-410h602v-51h-418c24.667 -6.66699 45.5 -18.5 62.5 -35.5s25.5 -38.5 25.5 -64.5c0 -23.333 -10 -45.333 -30 -66c-8.66699 -12 -20.5 -24.167 -35.5 -36.5s-32.833 -26.166 -53.5 -41.499l-106 -77
c-19.333 -12.667 -35.666 -25 -48.999 -37h604v-51zM1008 358h-1024v52h1024v-52zM1008 -51h-1024v51h1024v-51zM405.999 1274l61 60.999l30 29c8.66699 8 16 16.333 22 25c26.667 31.333 40 62.666 40 93.999c0 10.667 -2 19.834 -6 27.501s-8.66699 14.834 -14 21.501
c-5.33301 4 -11.5 7.66699 -18.5 11s-15.833 5 -26.5 5c-38 0 -67.333 -20.333 -88 -61v-213zM30.999 613.999l62 62l29.5 28.5c9 8.33301 16.167 16.5 21.5 24.5c5.33301 5.33301 10 11.5 14 18.5l12 20.5h-139v-154zM30.999 818.999l153.999 0.000976562v4
c0 11.333 -2.16699 20.666 -6.5 27.999s-9.16602 14.333 -14.499 21c-5.33301 4.66699 -11.333 8.66699 -18 12s-15.667 5 -27 5c-38 0 -67.333 -20.667 -88 -62v-8zM405.998 1548c26 18 54 31 84 39h-84v-39z" />
    <glyph glyph-name="ordfeminine" unicode="&#xaa;" horiz-adv-x="1504" 
d="M1520 768l-561 -0.00195312c27.333 -6.66699 50.5 -18.5 69.5 -35.5s28.5 -39.167 28.5 -66.5c0 -23.333 -10.333 -45.333 -31 -66c-8 -12 -19.5 -24.167 -34.5 -36.5s-32.833 -26.166 -53.5 -41.499l-106 -78l-25.5 -18
c-7.66699 -5.33301 -14.834 -10.666 -21.501 -15.999h735v-52h-1536v52h756v358h-461l-6 -6c-8.66699 -12.667 -20.5 -25 -35.5 -37l-52.5 -41l-107 -78c-18.667 -12 -35.667 -24.833 -51 -38.5s-29 -26.834 -41 -39.501v240h-2v51h2v359h-2v51h2v160h45v-160h330v358h-377
v51h377v410h45v-410h1114v-51h-930c24.667 -6.66699 45.5 -18.5 62.5 -35.5s25.5 -38.5 25.5 -64.5c0 -23.333 -10 -45.333 -30 -66c-8.66699 -12 -20.5 -24.167 -35.5 -36.5s-32.833 -26.166 -53.5 -41.499l-106 -77c-19.333 -12.667 -35.666 -25 -48.999 -37h1116v-51
h-735v-359h735v-51zM31 888.998c42.667 30 89 45 139 45c34.667 0 65.5 -9.5 92.5 -28.5s40.5 -45.167 40.5 -78.5v-8h437v359h-709v-289zM1520 -51.002h-1536v51h1536v-51zM406 1274l61 60.999l30 29c8.66699 8 16 16.333 22 25c26.667 31.333 40 62.666 40 93.999
c0 10.667 -2 19.834 -6 27.501s-8.66699 14.834 -14 21.501c-5.33301 4 -11.5 7.66699 -18.5 11s-15.833 5 -26.5 5c-38 0 -67.333 -20.333 -88 -61v-213zM785 452.997l61 61.001l30 28.5c8.66699 8.33301 15.667 16.5 21 24.5c27.333 31.333 41 63 41 95
c0 10.667 -2 19.667 -6 27s-8.66699 14.666 -14 21.999c-5.33301 4 -11.5 7.66699 -18.5 11s-15.833 5 -26.5 5c-38.667 0 -68 -20.333 -88 -61v-213zM31 613.998l62 62l29.5 28.5c9 8.33301 16.167 16.5 21.5 24.5c5.33301 5.33301 10 11.5 14 18.5l12 20.5h-139v-154z
M31 818.998l153.999 0.000976562v4c0 11.333 -2.16699 20.666 -6.5 27.999s-9.16602 14.333 -14.499 21c-5.33301 4.66699 -11.333 8.66699 -18 12s-15.667 5 -27 5c-38 0 -67.333 -20.667 -88 -62v-8zM784.999 726.999c12 9.33301 25.5 17.832 40.5 25.499
s30.833 12.834 47.5 15.501h-88v-41zM405.999 1548c26 18 54 31 84 39h-84v-39z" />
    <glyph glyph-name="guillemotleft" unicode="&#xab;" horiz-adv-x="1504" 
d="M1520 768l-560.999 -0.000976562c27.333 -6.66699 50.5 -18.5 69.5 -35.5s28.5 -39.167 28.5 -66.5c0 -23.333 -10.333 -45.333 -31 -66c-8 -12 -19.5 -24.167 -34.5 -36.5s-32.833 -26.166 -53.5 -41.499l-106 -78l-25.5 -18
c-7.66699 -5.33301 -14.834 -10.666 -21.501 -15.999h735v-52h-1536v52h756v358h-461l-6 -6c-8.66699 -12.667 -20.5 -25 -35.5 -37l-52.5 -41l-107 -78c-18.667 -12 -35.667 -24.833 -51 -38.5s-29 -26.834 -41 -39.501v240h-2v51h2v359h-2v51h2v160h45v-160h330v358h-377
v51h377v410h45v-410h688v164h45v-164h381v-51h-381v-284c42.667 30 89 45 139 45c34.667 0 65.5 -9.66699 92.5 -29s40.5 -45.333 40.5 -78c0 -6.66699 -0.666992 -10.667 -2 -12h111v-51h-137l-2 -2c-8.66699 -12.667 -20.5 -25.167 -35.5 -37.5s-32.5 -25.833 -52.5 -40.5
l-107 -78c-18.667 -12.667 -35.667 -25.667 -51 -39s-29 -26.333 -41 -39v236h-309v-359h735v-51zM31.001 888.999c42.667 30 89 45 139 45c34.667 0 65.5 -9.5 92.5 -28.5s40.5 -45.167 40.5 -78.5v-8h437v359h-709v-289zM590.001 1587
c24.667 -6.66699 45.499 -18.501 62.499 -35.501s25.5 -38.5 25.5 -64.5c0 -23.333 -10 -45.333 -30 -66c-8.66699 -12 -20.5 -24.167 -35.5 -36.5s-32.833 -26.166 -53.5 -41.499l-106 -77c-19.333 -12.667 -35.666 -25 -48.999 -37h690v358h-504zM1520 -51.002h-1536v51
h1536v-51zM785 452.998l61 61.001l30 28.5c8.66699 8.33301 15.667 16.5 21 24.5c27.333 31.333 41 63 41 95c0 10.667 -2 19.667 -6 27s-8.66699 14.666 -14 21.999c-5.33301 4 -11.5 7.66699 -18.5 11s-15.833 5 -26.5 5c-38.667 0 -68 -20.333 -88 -61v-213zM406 1274
l61 60.999l30 29c8.66699 8 16 16.333 22 25c26.667 31.333 40 62.666 40 93.999c0 10.667 -2 19.834 -6 27.501s-8.66699 14.834 -14 21.501c-5.33301 4 -11.5 7.66699 -18.5 11s-15.833 5 -26.5 5c-38 0 -67.333 -20.333 -88 -61v-213zM31 613.998l62 62l29.5 28.5
c9 8.33301 16.167 16.5 21.5 24.5c5.33301 5.33301 10 11.5 14 18.5l12 20.5h-139v-154zM1139 1028l62 61.999c10.667 10.667 20.5 20 29.5 28s16.167 16.333 21.5 25c10.667 10.667 18.667 22.334 24 35.001h-137v-150zM1139 1229l153.999 -0.00195312v8
c0 10.667 -2.16699 19.834 -6.5 27.501s-9.16602 14.834 -14.499 21.501c-5.33301 4 -11.333 7.83301 -18 11.5s-15.667 5.5 -27 5.5c-38 0 -67.333 -20.667 -88 -62v-12zM30.999 818.995l153.999 0.000976562v4c0 11.333 -2.16699 20.666 -6.5 27.999
s-9.16602 14.333 -14.499 21c-5.33301 4.66699 -11.333 8.66699 -18 12s-15.667 5 -27 5c-38 0 -67.333 -20.667 -88 -62v-8zM784.998 726.996c12 9.33301 25.5 17.832 40.5 25.499s30.833 12.834 47.5 15.501h-88v-41zM405.998 1548c26 18 54 31 84 39h-84v-39z" />
    <glyph glyph-name="logicalnot" unicode="&#xac;" horiz-adv-x="2016" 
d="M2032 768l-541.001 0.00195312v-283c42.667 30 89.334 45 140.001 45c34 0 64.667 -9.5 92 -28.5s41 -44.833 41 -77.5c0 -8 -0.666992 -12.667 -2 -14h270v-52h-299c-8 -12 -19.5 -24.167 -34.5 -36.5s-32.833 -25.833 -53.5 -40.5l-107 -78
c-18.667 -12.667 -35.5 -25.834 -50.5 -39.501l-41.5 -38.5v233h-1462v52h756v358h-461l-6 -6c-8.66699 -12.667 -20.5 -25 -35.5 -37l-52.5 -41l-107 -78c-18.667 -12 -35.667 -24.833 -51 -38.5s-29 -26.834 -41 -39.501v240h-2v51h2v359h-2v51h2v160h45v-160h330v358
h-377v51h377v410h45v-410h688v164h45v-164h893v-51h-893v-284c42.667 30 89 45 139 45c34.667 0 65.5 -9.66699 92.5 -29s40.5 -45.333 40.5 -78c0 -6.66699 -0.666992 -10.667 -2 -12h623v-51h-649l-2 -2c-8.66699 -12.667 -20.5 -25.167 -35.5 -37.5
s-32.5 -25.833 -52.5 -40.5l-107 -78c-18.667 -12.667 -35.667 -25.667 -51 -39s-29 -26.333 -41 -39v236h-309v-359h661v166h45v-166h541v-51zM30.999 889.002c42.667 30 89 45 139 45c34.667 0 65.5 -9.5 92.5 -28.5s40.5 -45.167 40.5 -78.5v-8h437v359h-709v-289z
M589.999 1587c24.667 -6.66699 45.499 -18.501 62.499 -35.501s25.5 -38.5 25.5 -64.5c0 -23.333 -10 -45.333 -30 -66c-8.66699 -12 -20.5 -24.167 -35.5 -36.5s-32.833 -26.166 -53.5 -41.499l-106 -77c-19.333 -12.667 -35.666 -25 -48.999 -37h690v358h-504z
M958.998 768.001c27.333 -6.66699 50.501 -18.502 69.501 -35.502s28.5 -39.167 28.5 -66.5c0 -23.333 -10.333 -45.333 -31 -66c-8 -12 -19.5 -24.167 -34.5 -36.5s-32.833 -26.166 -53.5 -41.499l-106 -78l-25.5 -18c-7.66699 -5.33301 -14.834 -10.666 -21.501 -15.999
h661v358h-487zM2032 -51.001h-2048v51h2048v-51zM784.999 452.999l61 61.001l30 28.5c8.66699 8.33301 15.667 16.5 21 24.5c27.333 31.333 41 63 41 95c0 10.667 -2 19.667 -6 27s-8.66699 14.666 -14 21.999c-5.33301 4 -11.5 7.66699 -18.5 11s-15.833 5 -26.5 5
c-38.667 0 -68 -20.333 -88 -61v-213zM405.999 1274l61 60.999l30 29c8.66699 8 16 16.333 22 25c26.667 31.333 40 62.666 40 93.999c0 10.667 -2 19.834 -6 27.501s-8.66699 14.834 -14 21.501c-5.33301 4 -11.5 7.66699 -18.5 11s-15.833 5 -26.5 5
c-38 0 -67.333 -20.333 -88 -61v-213zM30.999 613.999l62 62l29.5 28.5c9 8.33301 16.167 16.5 21.5 24.5c5.33301 5.33301 10 11.5 14 18.5l12 20.5h-139v-154zM1139 1028l62 61.999c10.667 10.667 20.5 20 29.5 28s16.167 16.333 21.5 25
c10.667 10.667 18.667 22.334 24 35.001h-137v-150zM1491 210.998l62 60.999c10.667 11.333 20.5 21 29.5 29s16.167 16.333 21.5 25c4 5.33301 8 10.333 12 15s7.33301 10.334 10 17.001h-135v-147zM1491 409.997l154 -0.00195312v10c0 10.667 -2 19.834 -6 27.501
s-9 14.834 -15 21.501c-5.33301 4 -11.333 7.66699 -18 11s-15.667 5 -27 5c-38 0 -67.333 -20.333 -88 -61v-14zM1139 1229l153.999 -0.00195312v8c0 10.667 -2.16699 19.834 -6.5 27.501s-9.16602 14.834 -14.499 21.501c-5.33301 4 -11.333 7.83301 -18 11.5
s-15.667 5.5 -27 5.5c-38 0 -67.333 -20.667 -88 -62v-12zM30.998 818.993l153.999 0.000976562v4c0 11.333 -2.16699 20.666 -6.5 27.999s-9.16602 14.333 -14.499 21c-5.33301 4.66699 -11.333 8.66699 -18 12s-15.667 5 -27 5c-38 0 -67.333 -20.667 -88 -62v-8z
M784.997 726.994c12 9.33301 25.5 17.832 40.5 25.499s30.833 12.834 47.5 15.501h-88v-41zM405.997 1547.99c26 18 54 31 84 39h-84v-39z" />
    <glyph glyph-name="uni00AD" unicode="&#xad;" 
 />
    <glyph glyph-name="registered" unicode="&#xae;" horiz-adv-x="3040" 
d="M3056 358l-664 0.00292969c27.333 -6.66699 50.666 -18.5 70 -35.5c19.333 -17 29 -39.167 29 -66.5c0 -23.333 -10.333 -45.333 -31 -66c-8 -12 -19.5 -24.167 -34.5 -36.5s-32.833 -25.833 -53.5 -40.5l-107 -78l-25 -18.5l-22 -16.5h838v-51h-3072v51h2189v358h-440
c-8 -12 -19.5 -24.167 -34.5 -36.5s-32.833 -25.833 -53.5 -40.5l-107 -78c-18.667 -12.667 -35.5 -25.834 -50.5 -39.501l-41.5 -38.5v233h-1462v52h756v358h-461l-6 -6c-8.66699 -12.667 -20.5 -25 -35.5 -37l-52.5 -41l-107 -78c-18.667 -12 -35.667 -24.833 -51 -38.5
s-29 -26.834 -41 -39.501v240h-2v51h2v359h-2v51h2v160h45v-160h330v358h-377v51h377v410h45v-410h688v164h45v-164h1917v-51h-1184v-358h1184v-51h-1020c28.667 -6 54 -17.833 76 -35.5s33 -40.834 33 -69.501c0 -23.333 -10.333 -45 -31 -65
c-8 -12.667 -19.5 -25.167 -34.5 -37.5s-32.833 -25.833 -53.5 -40.5l-107 -78c-6.66699 -5.33301 -14 -10.5 -22 -15.5s-15.667 -10.833 -23 -17.5h1182v-51h-838v-358h838v-52zM1094 1178h-309v-359h661v166h45v-166h336v359h-444l-2 -2
c-8.66699 -12.667 -20.5 -25.167 -35.5 -37.5s-32.5 -25.833 -52.5 -40.5l-107 -78c-18.667 -12.667 -35.667 -25.667 -51 -39s-29 -26.333 -41 -39v236zM31 889.003c42.667 30 89 45 139 45c34.667 0 65.5 -9.5 92.5 -28.5s40.5 -45.167 40.5 -78.5v-8h437v359h-709v-289z
M1139 1303c42.667 30 89 45 139 45c34.667 0 65.5 -9.66699 92.5 -29s40.5 -45.333 40.5 -78c0 -6.66699 -0.666992 -10.667 -2 -12h418v358h-688v-284zM1491 485.003c42.667 30 89.333 45 140 45c34 0 64.667 -9.5 92 -28.5s41 -44.833 41 -77.5
c0 -8 -0.666992 -12.667 -2 -14h411v358h-682v-283zM589.999 1587c24.667 -6.66699 45.499 -18.501 62.499 -35.501s25.5 -38.5 25.5 -64.5c0 -23.333 -10 -45.333 -30 -66c-8.66699 -12 -20.5 -24.167 -35.5 -36.5s-32.833 -26.166 -53.5 -41.499l-106 -77
c-19.333 -12.667 -35.666 -25 -48.999 -37h690v358h-504zM958.998 768.002c27.333 -6.66699 50.501 -18.502 69.501 -35.502s28.5 -39.167 28.5 -66.5c0 -23.333 -10.333 -45.333 -31 -66c-8 -12 -19.5 -24.167 -34.5 -36.5s-32.833 -26.166 -53.5 -41.499l-106 -78
l-25.5 -18c-7.66699 -5.33301 -14.834 -10.666 -21.501 -15.999h661v358h-487zM784.999 453l61 61.001l30 28.5c8.66699 8.33301 15.667 16.5 21 24.5c27.333 31.333 41 63 41 95c0 10.667 -2 19.667 -6 27s-8.66699 14.666 -14 21.999c-5.33301 4 -11.5 7.66699 -18.5 11
s-15.833 5 -26.5 5c-38.667 0 -68 -20.333 -88 -61v-213zM2218 43.001l62 60.999c10.667 11.333 20.5 21 29.5 29s16.167 16.333 21.5 25c27.333 31.333 41 62.666 41 93.999c0 10.667 -2 19.834 -6 27.501s-9 14.834 -15 21.501c-5.33301 4 -11.333 7.66699 -18 11
s-15.667 5 -27 5c-38 0 -67.333 -20.333 -88 -61v-213zM405.999 1274l61 60.999l30 29c8.66699 8 16 16.333 22 25c26.667 31.333 40 62.666 40 93.999c0 10.667 -2 19.834 -6 27.501s-8.66699 14.834 -14 21.501c-5.33301 4 -11.5 7.66699 -18.5 11s-15.833 5 -26.5 5
c-38 0 -67.333 -20.333 -88 -61v-213zM1872 859.999l62 61.999l29.5 28.5c9 8.33301 16.167 16.5 21.5 24.5c27.333 31.333 41 62.666 41 93.999c0 10.667 -2 19.834 -6 27.501s-9 14.834 -15 21.501c-5.33301 4 -11.333 7.83301 -18 11.5s-15.667 5.5 -27 5.5
c-38 0 -67.333 -20.667 -88 -62v-213zM30.999 613.998l62 62l29.5 28.5c9 8.33301 16.167 16.5 21.5 24.5c5.33301 5.33301 10 11.5 14 18.5l12 20.5h-139v-154zM1139 1028l62 61.999c10.667 10.667 20.5 20 29.5 28s16.167 16.333 21.5 25
c10.667 10.667 18.667 22.334 24 35.001h-137v-150zM1491 210.997l62 60.999c10.667 11.333 20.5 21 29.5 29s16.167 16.333 21.5 25c4 5.33301 8 10.333 12 15s7.33301 10.334 10 17.001h-135v-147zM1491 409.996l154 -0.00195312v10c0 10.667 -2 19.834 -6 27.501
s-9 14.834 -15 21.501c-5.33301 4 -11.333 7.66699 -18 11s-15.667 5 -27 5c-38 0 -67.333 -20.333 -88 -61v-14zM1139 1228.99l153.999 -0.00195312v8c0 10.667 -2.16699 19.834 -6.5 27.501s-9.16602 14.834 -14.499 21.501c-5.33301 4 -11.333 7.83301 -18 11.5
s-15.667 5.5 -27 5.5c-38 0 -67.333 -20.667 -88 -62v-12zM30.998 818.992l153.999 0.000976562v4c0 11.333 -2.16699 20.666 -6.5 27.999s-9.16602 14.333 -14.499 21c-5.33301 4.66699 -11.333 8.66699 -18 12s-15.667 5 -27 5c-38 0 -67.333 -20.667 -88 -62v-8z
M1872 1134.99c31.333 22.667 63.667 37 97 43h-97v-43zM2218 316.993c12.667 10 26.5 18.667 41.5 26s30.5 12.333 46.5 15h-88v-41zM784.998 726.993c12 9.33301 25.5 17.832 40.5 25.499s30.833 12.834 47.5 15.501h-88v-41zM405.998 1547.99c26 18 54 31 84 39h-84v-39z
" />
    <glyph glyph-name="macron" unicode="&#xaf;" horiz-adv-x="992" 
d="M0 358l-15.9971 0.00195312v52h84l137 106c16.667 14 28.667 23.667 36 29s19.333 16.333 36 33l72 75c14.667 19.333 30.5 38.166 47.5 56.499s33.167 37.833 48.5 58.5h-461v51h496c1.33301 2.66699 2.66602 4.66699 3.99902 6s2.66602 3.33301 3.99902 6l34.5 66
c9.66699 19.333 21.167 46.666 34.5 81.999l21 98c2.66699 16.667 5 32.167 7 46.5s3 28.833 3 43.5l-2 11h-252c-2.66699 -10 -4.66699 -15.667 -6 -17c-16.667 -27.333 -33 -45.666 -49 -54.999c-26 -14 -51.333 -21 -76 -21c-48 0 -88.333 16.667 -121 50
c-13.333 9.33301 -24 23.666 -32 42.999h-66v51h49c-1.33301 1.33301 -2 12.333 -2 33c0 44.667 9.16699 86.167 27.5 124.5s42.666 71.833 72.999 100.5s64.5 51.5 102.5 68.5s77.667 27.5 119 31.5h-369v51h1024v-51h-582c53.333 -8 104 -27.667 152 -59
c50.667 -34 92 -77 124 -129s51.333 -108.667 58 -170h248v-51h-244c0 -128.667 -37.333 -245 -112 -349c-1.33301 -1.33301 -2.33301 -2.66602 -3 -3.99902s-2.66699 -3.33301 -6 -6h365v-51h-403c-4.66699 -5.33301 -8 -9.33301 -10 -12s-11.167 -13.334 -27.5 -32.001
l-42.5 -48c-22 -23.333 -46 -46 -72 -68s-54 -44.333 -84 -67l-59.5 -39.5c-23 -15 -52.167 -32.5 -87.5 -52.5l-66 -39h852v-52h-938l-66 -39l-8 35zM582.003 1249c-1.33301 31.333 -6.66699 57.334 -16 78.001c-7.33301 26 -19.166 54.333 -35.499 85
s-32.5 55.667 -48.5 75c-36 32.667 -78.333 49 -127 49c-50.667 0 -97.334 -10.333 -140.001 -31c-42 -21.333 -73.333 -58 -94 -110l-6 -19c0 -10.667 4 -18.667 12 -24l29 -9l27 5l41 6c16 0 31.167 -2.83301 45.5 -8.5s27.833 -15.834 40.5 -30.501
c24 -23.333 36 -52 36 -86h236v20zM1008 -50.9971h-1024v51h1024v-51zM822.002 1030c0 20.667 7.33203 40.667 21.999 60c16.667 17.333 36 26 58 26c16 0 33 -8.66699 51 -26c6.66699 -10 12.334 -19 17.001 -27s7 -19 7 -33c0 -57.333 -25 -86 -75 -86
c-23.333 0 -42.5 7.5 -57.5 22.5s-22.5 36.167 -22.5 63.5zM822.001 1378c0 23.333 8.16602 43.167 24.499 59.5s34.833 24.5 55.5 24.5c14.667 0 32.334 -8 53.001 -24c14.667 -19.333 22 -40 22 -62s-7.33301 -42.333 -22 -61c-18 -18 -36.667 -27 -56 -27
c-18.667 0 -37 9 -55 27c-14.667 23.333 -22 44.333 -22 63z" />
    <glyph glyph-name="degree" unicode="&#xb0;" 
d="M496 410v-52h-512v52h512zM496 1638v-51h-512v51h512zM496 819v-51h-512v51h512zM496 1229v-51h-512v51h512zM496 0v-51h-512v51h512zM338 -662c0 -31.333 -10.5 -57.833 -31.5 -79.5s-47.167 -32.5 -78.5 -32.5s-58 10.833 -80 32.5s-33 48.167 -33 79.5
c0 32 11 58.5 33 79.5s48.667 31.5 80 31.5s57.5 -10.5 78.5 -31.5s31.5 -47.5 31.5 -79.5z" />
    <glyph glyph-name="plusminus" unicode="&#xb1;" 
d="M496 410v-52h-512v52h512zM496 1638v-51h-512v51h512zM496 819v-51h-512v51h512zM496 1229v-51h-512v51h512zM496 0v-51h-512v51h512zM338 -604c0 -31.333 -10.5 -58 -31.5 -80s-47.167 -33 -78.5 -33s-58 11 -80 33s-33 48.667 -33 80s11 57.5 33 78.5
s48.667 31.5 80 31.5s57.5 -10.5 78.5 -31.5s31.5 -47.167 31.5 -78.5z" />
    <glyph glyph-name="twosuperior" unicode="&#xb2;" 
d="M496 410v-52h-512v52h512zM496 1638v-51h-512v51h512zM496 819v-51h-512v51h512zM496 1229v-51h-512v51h512zM496 0v-51h-512v51h512zM338 -252c0 -31.333 -10.5 -58 -31.5 -80s-47.167 -33 -78.5 -33s-58 11 -80 33s-33 48.667 -33 80s11 57.666 33 78.999
s48.667 32 80 32s57.5 -10.667 78.5 -32s31.5 -47.666 31.5 -78.999z" />
    <glyph glyph-name="threesuperior" unicode="&#xb3;" 
d="M496 410v-52h-512v52h512zM496 1638v-51h-512v51h512zM496 819v-51h-512v51h512zM496 1229v-51h-512v51h512zM496 0v-51h-512v51h512zM338 -195c0 -31.333 -10.5 -57.833 -31.5 -79.5s-47.167 -32.5 -78.5 -32.5s-58 10.833 -80 32.5s-33 48.167 -33 79.5
c0 32 11 58.5 33 79.5s48.667 31.5 80 31.5s57.5 -10.5 78.5 -31.5s31.5 -47.5 31.5 -79.5z" />
    <glyph glyph-name="acute" unicode="&#xb4;" 
d="M496 410v-52h-512v52h512zM496 1638v-51h-512v51h512zM496 819v-51h-512v51h512zM496 1229v-51h-512v51h512zM496 0v-51h-512v51h512zM338 147c0 -31.333 -10.5 -57.833 -31.5 -79.5s-47.167 -32.5 -78.5 -32.5s-58 10.833 -80 32.5s-33 48.167 -33 79.5
c0 32 11 58.5 33 79.5s48.667 31.5 80 31.5s57.5 -10.5 78.5 -31.5s31.5 -47.5 31.5 -79.5z" />
    <glyph glyph-name="mu" unicode="&#xb5;" 
d="M496 410v-52h-512v52h512zM496 1638v-51h-512v51h512zM496 819v-51h-512v51h512zM496 1229v-51h-512v51h512zM496 0v-51h-512v51h512zM338 215c0 -31.333 -10.5 -58 -31.5 -80s-47.167 -33 -78.5 -33s-58 11 -80 33s-33 48.667 -33 80s11 57.666 33 78.999
s48.667 32 80 32s57.5 -10.667 78.5 -32s31.5 -47.666 31.5 -78.999z" />
    <glyph glyph-name="paragraph" unicode="&#xb6;" 
d="M496 410v-52h-512v52h512zM496 1638v-51h-512v51h512zM496 819v-51h-512v51h512zM496 1229v-51h-512v51h512zM496 0v-51h-512v51h512zM338 557c0 -31.333 -10.5 -58 -31.5 -80s-47.167 -33 -78.5 -33s-58 11 -80 33s-33 48.667 -33 80s11 57.666 33 78.999
s48.667 32 80 32s57.5 -10.667 78.5 -32s31.5 -47.666 31.5 -78.999z" />
    <glyph glyph-name="periodcentered" unicode="&#xb7;" 
d="M496 410v-52h-512v52h512zM496 1638v-51h-512v51h512zM496 819v-51h-512v51h512zM496 1229v-51h-512v51h512zM496 0v-51h-512v51h512zM340 625c0 -31.333 -10.5 -58 -31.5 -80s-47.167 -33 -78.5 -33s-58 11 -80 33s-33 48.667 -33 80s11 57.5 33 78.5
s48.667 31.5 80 31.5s57.5 -10.5 78.5 -31.5s31.5 -47.167 31.5 -78.5z" />
    <glyph glyph-name="cedilla" unicode="&#xb8;" 
d="M496 410v-52h-512v52h512zM496 1638v-51h-512v51h512zM496 819v-51h-512v51h512zM496 1229v-51h-512v51h512zM496 0v-51h-512v51h512zM338 967c0 -31.333 -10.5 -58 -31.5 -80s-47.167 -33 -78.5 -33s-58 11 -80 33s-33 48.667 -33 80s11 57.5 33 78.5
s48.667 31.5 80 31.5s57.5 -10.5 78.5 -31.5s31.5 -47.167 31.5 -78.5z" />
    <glyph glyph-name="onesuperior" unicode="&#xb9;" 
d="M496 410v-52h-512v52h512zM496 1638v-51h-512v51h512zM496 819v-51h-512v51h512zM496 1229v-51h-512v51h512zM496 0v-51h-512v51h512zM340 1034c0 -31.333 -10.5 -57.833 -31.5 -79.5s-47.167 -32.5 -78.5 -32.5s-58 10.833 -80 32.5s-33 48.167 -33 79.5
s11 57.666 33 78.999s48.667 32 80 32s57.5 -10.667 78.5 -32s31.5 -47.666 31.5 -78.999z" />
    <glyph glyph-name="ordmasculine" unicode="&#xba;" 
d="M496 410v-52h-512v52h512zM496 1638v-51h-512v51h512zM496 819v-51h-512v51h512zM496 1229v-51h-512v51h512zM496 0v-51h-512v51h512zM338 1376c0 -31.333 -10.5 -57.833 -31.5 -79.5s-47.167 -32.5 -78.5 -32.5s-58 10.833 -80 32.5s-33 48.167 -33 79.5
s11 57.666 33 78.999s48.667 32 80 32s57.5 -10.667 78.5 -32s31.5 -47.666 31.5 -78.999z" />
    <glyph glyph-name="guillemotright" unicode="&#xbb;" 
d="M496 410v-52h-512v52h512zM496 1638v-51h-512v51h512zM496 819v-51h-512v51h512zM496 1229v-51h-512v51h512zM496 0v-51h-512v51h512zM336 1444c0 -31.333 -10.5 -58 -31.5 -80s-47.167 -33 -78.5 -33s-58 11 -80 33s-33 48.667 -33 80s11 57.5 33 78.5
s48.667 31.5 80 31.5s57.5 -10.5 78.5 -31.5s31.5 -47.167 31.5 -78.5z" />
    <glyph glyph-name="onequarter" unicode="&#xbc;" 
d="M496 410v-52h-512v52h512zM496 1638v-51h-512v51h512zM496 819v-51h-512v51h512zM496 1229v-51h-512v51h512zM496 0v-51h-512v51h512zM338 1786c0 -31.333 -10.5 -58 -31.5 -80s-47.167 -33 -78.5 -33s-58 11 -80 33s-33 48.667 -33 80s11 57.5 33 78.5
s48.667 31.5 80 31.5s57.5 -10.5 78.5 -31.5s31.5 -47.167 31.5 -78.5z" />
    <glyph glyph-name="onehalf" unicode="&#xbd;" 
d="M496 410v-52h-512v52h512zM496 1638v-51h-512v51h512zM496 819v-51h-512v51h512zM496 1229v-51h-512v51h512zM496 0v-51h-512v51h512zM340 1853c0 -31.333 -10.5 -57.833 -31.5 -79.5s-47.167 -32.5 -78.5 -32.5s-58 10.833 -80 32.5s-33 48.167 -33 79.5
c0 32 11 58.5 33 79.5s48.667 31.5 80 31.5s57.5 -10.5 78.5 -31.5s31.5 -47.5 31.5 -79.5z" />
    <glyph glyph-name="threequarters" unicode="&#xbe;" 
d="M496 410v-52h-512v52h512zM496 1638v-51h-512v51h512zM496 819v-51h-512v51h512zM496 1229v-51h-512v51h512zM496 0v-51h-512v51h512zM338 2195c0 -31.333 -10.5 -57.833 -31.5 -79.5s-47.167 -32.5 -78.5 -32.5s-58 10.833 -80 32.5s-33 48.167 -33 79.5
c0 32 11 58.5 33 79.5s48.667 31.5 80 31.5s57.5 -10.5 78.5 -31.5s31.5 -47.5 31.5 -79.5z" />
    <glyph glyph-name="questiondown" unicode="&#xbf;" 
d="M496 410v-52h-512v52h512zM496 1638v-51h-512v51h512zM496 819v-51h-512v51h512zM496 1229v-51h-512v51h512zM496 0v-51h-512v51h512zM338 967c0 -31.333 -10.5 -58 -31.5 -80s-47.167 -33 -78.5 -33s-58 11 -80 33s-33 48.667 -33 80s11 57.5 33 78.5
s48.667 31.5 80 31.5s57.5 -10.5 78.5 -31.5s31.5 -47.167 31.5 -78.5z" />
    <glyph glyph-name="Agrave" unicode="&#xc0;" horiz-adv-x="1504" 
d="M1520 410l0.00390625 -52.0068h-276v-358h276v-51h-276v-359h151v-51h-151v-332c0 -4 -0.5 -8.33301 -1.5 -13s-1.5 -9 -1.5 -13h154v-51h-170c-2.66699 -7.33301 -6 -13.666 -10 -18.999s-8 -11.333 -12 -18c-27.333 -37.333 -63.666 -66.166 -108.999 -86.499
s-89 -30.5 -131 -30.5c-36.667 0 -70 11 -100 33s-45 51.333 -45 88c0 20.667 0.666992 31.667 2 33h-154v51h174c2.66699 5.33301 5.66699 10.333 9 15s8 10 14 16c26 34 62.667 64.667 110 92c24.667 10.667 47.167 18.334 67.5 23.001s40.166 7 59.499 7
c41.333 0 77.666 -11.333 108.999 -34v239h-543v51h543v359h-799v-359h152v-51h-152v-332c0 -4 -0.333008 -8.33301 -1 -13s-1 -9 -1 -13h154v-51h-170c-3.33301 -7.33301 -7 -13.666 -11 -18.999s-8 -11.333 -12 -18c-27.333 -37.333 -63.5 -66.166 -108.5 -86.499
s-88.833 -30.5 -131.5 -30.5c-38 0 -72 11 -102 33c-28.667 22 -43 51.333 -43 88v33h-150v51h173c2.66699 5.33301 5.66699 10.333 9 15l11 16c13.333 14.667 29.666 29.834 48.999 45.501s40.666 31.167 63.999 46.5c22.667 10.667 44.667 18.334 66 23.001
s41.666 7 60.999 7c40.667 0 76.667 -11.333 108 -34v239h-541v51h541v359h-391v51h391v358h-391v52h1536zM410.004 -0.00683594h799v221h-799v-221zM1520 818.993v-51h-1536v51h1536zM1520 1637.99v-51h-1536v51h1536zM1520 1228.99v-51h-1536v51h1536z" />
    <glyph glyph-name="Aacute" unicode="&#xc1;" horiz-adv-x="1504" 
d="M1520 410l0.00390625 -52.0029h-276v-358h276v-51h-276v-359h151v-51h-151v-127c0 -40.667 -13.667 -78.667 -41 -114c-27.333 -37.333 -63.666 -66.166 -108.999 -86.499s-89 -30.5 -131 -30.5c-36.667 0 -70 10.833 -100 32.5s-45 51.167 -45 88.5c0 42 15 80 45 114
c26 34.667 62.667 65.334 110 92.001c19.333 11.333 37.166 19 53.499 23s32.166 6.66699 47.499 8h-408v51h543v359h-799v-359h152v-51h-152v-127c0 -40.667 -13.667 -78.667 -41 -114c-27.333 -37.333 -63.5 -66.166 -108.5 -86.499s-88.833 -30.5 -131.5 -30.5
c-38 0 -72 11 -102 33c-28.667 21.333 -43 50.666 -43 87.999c0 39.333 14.333 77.333 43 114c13.333 15.333 29.666 30.833 48.999 46.5s40.666 30.834 63.999 45.501c18.667 11.333 36.167 19 52.5 23s32.166 6.66699 47.499 8h-406v51h541v359h-391v51h391v358h-391v52
h391v358h-391v51h1536v-51h-276v-358h276zM1209 357.997h-799v-358h799v358zM410.004 409.997h799v223h-799v-223zM1520 1229v-51h-1536v51h1536zM1520 1638v-51h-1536v51h1536zM1209 -461.003l-87.999 0.000976562c31.333 -2.66699 60.666 -14.334 87.999 -35.001v35z
M375.005 -461.002h-88c28.667 -1.33301 58 -13 88 -35v35z" />
    <glyph glyph-name="Acircumflex" unicode="&#xc2;" horiz-adv-x="1504" 
d="M1520 410l0.00390625 -52.002h-276v-358h276v-51h-276v-332c0 -4 -0.5 -8.33301 -1.5 -13s-1.5 -9.33398 -1.5 -14.001h154v-51h-170c-2.66699 -6.66699 -6 -12.667 -10 -18s-8 -11.666 -12 -18.999c-27.333 -36.667 -63.666 -65.167 -108.999 -85.5
s-89 -30.5 -131 -30.5c-36.667 0 -70 10.833 -100 32.5s-45 50.834 -45 87.501c0 20.667 0.666992 31.667 2 33h-154v51h174c2.66699 6 5.66699 11.333 9 16s8 9.66699 14 15c26 34 62.667 64.667 110 92c24.667 11.333 47.167 19.333 67.5 24s40.166 7 59.499 7
c41.333 0 77.666 -11.667 108.999 -35v240h-799v-332c0 -4 -0.333008 -8.33301 -1 -13s-1 -9.33398 -1 -14.001h154v-51h-170c-3.33301 -6.66699 -7 -12.667 -11 -18s-8 -11.666 -12 -18.999c-27.333 -36.667 -63.5 -65.167 -108.5 -85.5s-88.833 -30.5 -131.5 -30.5
c-38 0 -72 10.667 -102 32c-28.667 22 -43 51.333 -43 88v33h-150v51h173c2.66699 6 5.66699 11.333 9 16l11 15c13.333 15.333 29.666 30.833 48.999 46.5s40.666 30.834 63.999 45.501c22.667 11.333 44.667 19.333 66 24s41.666 7 60.999 7
c40.667 0 76.667 -11.667 108 -35v240h-391v51h391v358h-391v52h391v358h-391v51h1536v-51h-276v-358h276zM1209 357.998h-799v-358h799v358zM410.004 409.998h799v223h-799v-223zM1520 1229v-51h-1536v51h1536zM1520 1638v-51h-1536v51h1536z" />
    <glyph glyph-name="Atilde" unicode="&#xc3;" horiz-adv-x="1504" 
d="M1520 1229l0.000976562 -51h-276v-359h276v-51h-276v-358h276v-52h-276v-358h276v-51h-276v-127c0 -41.333 -13.667 -79.666 -41 -114.999c-27.333 -36.667 -63.666 -65.334 -108.999 -86.001s-89 -31 -131 -31c-36.667 0 -70 11 -100 33s-45 51.333 -45 88
c0 42.667 15 81 45 115c13.333 18 29.166 35.5 47.499 52.5s39.166 32.167 62.499 45.5c20.667 11.333 39.834 18 57.501 20s34.834 3.66699 51.501 5h-672v-127c0 -41.333 -13.667 -79.666 -41 -114.999c-27.333 -36.667 -63.5 -65.334 -108.5 -86.001
s-88.833 -31 -131.5 -31c-38 0 -72 11 -102 33c-28.667 22 -43 51.333 -43 88c0 40 14.333 78.333 43 115c13.333 14.667 29.666 31 48.999 49s40.666 34.333 63.999 49c18.667 11.333 36.667 18 54 20s34 3.66699 50 5h-260v51h391v358h-391v52h391v358h-391v51h391v359
h-391v51h1536zM1209 358h-799v-358h799v358zM1209 768h-799v-358h799v358zM410.001 819h799v219h-799v-219zM1520 1638v-51h-1536v51h1536zM1209 -51l-84 -0.00195312c14.667 -1.33301 28.5 -3.66602 41.5 -6.99902s27.167 -10.666 42.5 -21.999v29zM375.001 -51.002
l-84 -0.00195312c15.333 -1.33301 29.5 -3.66602 42.5 -6.99902s26.833 -10.666 41.5 -21.999v29z" />
    <glyph glyph-name="Adieresis" unicode="&#xc4;" horiz-adv-x="1504" 
d="M1520 410l0.00195312 -51.9971h-276v-331c0 -6 -0.5 -11 -1.5 -15s-1.5 -8 -1.5 -12h279v-51h-297c-5.33301 -6.66699 -9 -11.834 -11 -15.501s-5 -8.83398 -9 -15.501c-27.333 -36.667 -63.666 -66.334 -108.999 -89.001s-89 -34 -131 -34c-36.667 0 -70 12 -100 36
s-45 54.333 -45 91c0 15.333 1.33301 24.333 4 27h-428c-4.66699 -6.66699 -9 -11.834 -13 -15.501s-8 -8.83398 -12 -15.501c-27.333 -36.667 -63.5 -66.334 -108.5 -89.001s-88.833 -34 -131.5 -34c-38 0 -72 11 -102 33c-15.333 10.667 -26.333 24.334 -33 41.001
s-10 34.334 -10 53.001v78h23c2.66699 5.33301 5.66699 10.5 9 15.5s7 10.167 11 15.5c13.333 14.667 29.666 29.834 48.999 45.501s40.666 31.167 63.999 46.5c22.667 10.667 44.667 18.5 66 23.5s41.666 7.5 60.999 7.5c40.667 0 76.667 -11.667 108 -35v239h-391v52h391
v358h-391v51h391v359h-391v51h1536v-51h-276v-359h276v-51h-276v-358h276zM1209 768.003h-799v-358h799v358zM408.002 0.00292969h432.002c2.66699 5.33301 5.66699 10.5 9 15.5s8 10.167 14 15.5c26 34 62.667 64.667 110 92c24.667 10.667 47.167 18.5 67.5 23.5
s40.166 7.5 59.499 7.5c41.333 0 77.666 -11.667 108.999 -35v239h-799v-331c0 -6 -0.333008 -11 -1 -15s-1 -8 -1 -12zM410.004 819.003h799v219h-799v-219zM1520 1638v-51h-1536v51h1536z" />
    <glyph glyph-name="Aring" unicode="&#xc5;" horiz-adv-x="1504" 
d="M1520 410l0.000976562 -52.0029h-274v-127c0 -32.667 -8.33301 -62.667 -25 -90s-37.834 -51.166 -63.501 -71.499s-54.667 -36.666 -87 -48.999s-63.5 -19.166 -93.5 -20.499h543v-51h-1536v51h129c-27.333 1.33301 -55.333 12.333 -84 33c-28.667 22 -43 51.333 -43 88
c0 39.333 14.333 77.666 43 114.999c14 14.667 30.5 29.834 49.5 45.501s40.167 31.167 63.5 46.5c38 16 73.333 26 106 30h-264v52h393v358h-393v51h393v359h-393v51h393v358h-393v51h1536v-51h-274v-358h274v-51h-274v-359h274v-51h-274v-358h274zM1211 767.997h-799v-358
h799v358zM1211 1178h-799v-359h799v359zM144.001 -0.00292969l809 -0.00195312c-36 2.66699 -67.167 14.667 -93.5 36s-39.5 49.666 -39.5 84.999c0 42 15 80.333 45 115c26 34 62.667 64.667 110 92c41.333 16 77 26 107 30h-670v-127
c0 -32.667 -8.16699 -62.667 -24.5 -90s-37.5 -51.166 -63.5 -71.499s-55 -36.666 -87 -48.999s-63 -19.166 -93 -20.499zM412.001 1229h799v221h-799v-221zM1211 357.995h-92.001c28.667 -4 59.334 -15.333 92.001 -34v34zM377 357.995h-92.001
c28.667 -4 59.334 -15.333 92.001 -34v34z" />
    <glyph glyph-name="AE" unicode="&#xc6;" horiz-adv-x="1504" 
d="M1520 819l0.00195312 -51.001h-276v-332c0 -5.33301 -0.5 -10 -1.5 -14s-1.5 -8 -1.5 -12h279v-52h-295c-2.66699 -6.66699 -6 -12.667 -10 -18s-8 -11.333 -12 -18c-27.333 -37.333 -63.666 -66.166 -108.999 -86.499s-89 -30.5 -131 -30.5
c-36.667 0 -70 10.833 -100 32.5s-45 51.167 -45 88.5v16c0 9.33301 0.666992 14.666 2 15.999h-428c-3.33301 -6.66699 -7 -12.667 -11 -18s-8 -11.333 -12 -18c-27.333 -37.333 -63.5 -66.166 -108.5 -86.499s-88.833 -30.5 -131.5 -30.5c-38 0 -72 11 -102 33
c-28.667 21.333 -43 50.666 -43 87.999v14c0 10.667 0.666992 16.667 2 18h-2v52h23c2.66699 5.33301 5.66699 10.333 9 15l11 15c13.333 15.333 29.666 30.833 48.999 46.5s40.666 30.834 63.999 45.501c22.667 11.333 44.667 19.333 66 24s41.666 7 60.999 7
c40.667 0 76.667 -11.667 108 -35v240h-391v51h391v359h-391v51h391v358h-391v51h1536v-51h-276v-358h276v-51h-276v-359h276zM1209 1178h-799v-359h799v359zM408.002 409.999l432.002 -0.000976562c2.66699 5.33301 5.66699 10.333 9 15s8 9.66699 14 15
c26 34.667 62.667 65.334 110 92.001c24.667 11.333 47.167 19.333 67.5 24s40.166 7 59.499 7c41.333 0 77.666 -11.667 108.999 -35v240h-799v-332c0 -5.33301 -0.333008 -10 -1 -14s-1 -8 -1 -12zM410.004 1229h799v221h-799v-221zM1520 -0.00195312v-51h-1536v51h1536z
" />
    <glyph glyph-name="Ccedilla" unicode="&#xc7;" horiz-adv-x="1504" 
d="M1520 819l0.00292969 -51.0039h-276v-127c0 -32.667 -8.33301 -62.667 -25 -90s-37.834 -51.166 -63.501 -71.499s-54.667 -36.666 -87 -48.999s-63.5 -19.166 -93.5 -20.499h545v-52h-1536v52h127c-27.333 1.33301 -55.333 12 -84 32c-28.667 22 -43 51.333 -43 88
c0 40 14.333 78.333 43 115c13.333 15.333 29.666 30.833 48.999 46.5s40.666 30.834 63.999 45.501c38 16.667 73.333 27 106 31h-262v51h391v359h-391v51h391v358h-391v51h391v410h869v-410h276v-51h-276v-358h276v-51h-276v-359h276zM1209 1178h-799v-359h799v359z
M1209 1587h-799v-358h799v358zM142.003 409.996l809 -0.00292969c-36 2.66699 -67.167 14.5 -93.5 35.5s-39.5 49.167 -39.5 84.5c0 42.667 15 81 45 115c26 34 62.667 64.667 110 92c41.333 16.667 77 27 107 31h-670v-127c0 -32.667 -8.16699 -62.667 -24.5 -90
s-37.5 -51.166 -63.5 -71.499s-55 -36.666 -87 -48.999s-63 -19.166 -93 -20.499zM410.003 1637.99h799v222h-799v-222zM1520 -0.00683594v-51h-1536v51h1536zM375.003 767.993h-92.001c28.667 -4 59.334 -15.667 92.001 -35v35zM1209 767.993h-92.001
c28.667 -4 59.334 -15.667 92.001 -35v35z" />
    <glyph glyph-name="Egrave" unicode="&#xc8;" horiz-adv-x="1504" 
d="M-16 410l275.998 -0.00683594v331c0 4.66699 0.5 9.33398 1.5 14.001s1.5 9 1.5 13h-279v51h295c2.66699 6.66699 6 12.834 10 18.501s8 11.834 12 18.501c27.333 36.667 63.666 65.334 108.999 86.001s89 31 131 31c36.667 0 70 -11 100 -33s45 -51.333 45 -88
c0 -20.667 -0.666992 -31.667 -2 -33h428c3.33301 6.66699 7 12.834 11 18.501s8 11.834 12 18.501c27.333 36.667 63.5 65.334 108.5 86.001s88.833 31 131.5 31c38 0 72 -11 102 -33c28.667 -23.333 43 -52.666 43 -87.999c0 -20.667 -0.666992 -31.667 -2 -33h2v-51h-23
c-2.66699 -5.33301 -5.66699 -10.5 -9 -15.5s-7 -10.167 -11 -15.5c-13.333 -14.667 -29.666 -29.834 -48.999 -45.501s-40.666 -31.167 -63.999 -46.5c-22.667 -10.667 -44.667 -18.5 -66 -23.5s-41.666 -7.5 -60.999 -7.5c-40.667 0 -76.667 11.667 -108 35v-239h391v-52
h-391v-358h391v-51h-391v-404h-869v404h-276v51h276v358h-276v52zM294.998 357.993v-358h799v358h-799zM663.998 767.993c-2.66699 -5.33301 -5.66895 -10.501 -9.00195 -15.501s-8 -10.167 -14 -15.5c-27.333 -35.333 -64 -66 -110 -92
c-24.667 -10.667 -47.167 -18.5 -67.5 -23.5s-40.166 -7.5 -59.499 -7.5c-41.333 0 -77.666 11.667 -108.999 35v-239h799v331c0 4.66699 0.333008 9.33398 1 14.001s1 9 1 13h-432zM1094 -51.0078h-799v-215h799v215zM-16.0039 1228.99h1536v-51h-1536v51z
M-16.0039 1637.99h1536v-51h-1536v51z" />
    <glyph glyph-name="Eacute" unicode="&#xc9;" horiz-adv-x="1504" 
d="M-16 410l275.997 -0.00390625v358h-276v51h276v127c0 32.667 8.33301 62.667 25 90s37.834 51.333 63.501 72s54.334 36.834 86.001 48.501s63.167 18.834 94.5 21.501h-545v51h1536v-51h-125c27.333 -4.66699 54.666 -15.667 81.999 -33
c28.667 -23.333 43 -52.666 43 -87.999c0 -40 -14.333 -78.333 -43 -115c-13.333 -14.667 -29.666 -30 -48.999 -46s-40.666 -31.333 -63.999 -46c-18.667 -10.667 -36.667 -18.167 -54 -22.5s-34 -7.16602 -50 -8.49902h260v-51h-391v-358h391v-52h-391v-358h391v-51h-391
v-404h-869v404h-276v51h276v358h-276v52zM294.997 357.996v-358h799v358h-799zM294.997 767.996v-358h799v358h-799zM552.997 1178c36 -2.66699 67.168 -14.6709 93.501 -36.0039s39.5 -49.666 39.5 -84.999c0 -42.667 -15 -81 -45 -115c-27.333 -35.333 -64 -66 -110 -92
c-19.333 -10.667 -37.5 -18.167 -54.5 -22.5s-33.833 -7.16602 -50.5 -8.49902h668v127c0 32.667 8.16699 62.667 24.5 90s37.5 51.333 63.5 72s54.667 36.834 86 48.501s62.666 18.834 93.999 21.501h-809zM1094 -51.0078h-799v-215h799v215zM-16.002 1637.99h1536v-51
h-1536v51zM294.998 818.992l84 -0.000976562c-31.333 2.66699 -59.333 14.334 -84 35.001v-35zM1129 818.991l84 -0.000976562c-31.333 2.66699 -59.333 14.334 -84 35.001v-35z" />
    <glyph glyph-name="Ecircumflex" unicode="&#xca;" horiz-adv-x="1504" 
d="M-16 410l275.998 0.00195312v358h-276v51h276v332c0 4 0.5 8.33301 1.5 13s1.5 9.33398 1.5 14.001h-279v51h295c2.66699 6.66699 6 12.667 10 18s8 11.666 12 18.999c27.333 36.667 63.666 65.167 108.999 85.5s89 30.5 131 30.5c36.667 0 70 -10.833 100 -32.5
s45 -50.834 45 -87.501c0 -20.667 -0.666992 -31.667 -2 -33h428c3.33301 6.66699 7 12.667 11 18s8 11.666 12 18.999c27.333 36.667 63.5 65.167 108.5 85.5s88.833 30.5 131.5 30.5c38 0 72 -10.667 102 -32c28.667 -23.333 43 -52.666 43 -87.999
c0 -20.667 -0.666992 -31.667 -2 -33h2v-51h-23c-2.66699 -6 -5.66699 -11.333 -9 -16l-11 -15c-13.333 -15.333 -29.666 -30.833 -48.999 -46.5s-40.666 -30.834 -63.999 -45.501c-22.667 -11.333 -44.667 -19.333 -66 -24s-41.666 -7 -60.999 -7
c-40.667 0 -76.667 11.667 -108 35v-240h391v-51h-391v-358h391v-52h-391v-358h391v-51h-1536v51h276v358h-276v52zM294.998 768.002v-358h799v358h-799zM663.998 1178c-2.66699 -6 -5.66895 -11.334 -9.00195 -16.001s-8 -9.66699 -14 -15
c-27.333 -35.333 -64 -66 -110 -92c-24.667 -11.333 -47.167 -19.333 -67.5 -24s-40.166 -7 -59.499 -7c-41.333 0 -77.666 11.667 -108.999 35v-240h799v332c0 4 0.333008 8.33301 1 13s1 9.33398 1 14.001h-432zM1094 358.001h-799v-221h799v221zM-16.0039 1638h1536v-51
h-1536v51z" />
    <glyph glyph-name="Edieresis" unicode="&#xcb;" horiz-adv-x="1504" 
d="M-16 410l275.997 0.000976562v358h-276v51h276v359h-276v51h276v127c0 32.667 8.33301 62.667 25 90s37.834 51.166 63.501 71.499s54.334 36.333 86.001 48s63.167 18.834 94.5 21.501h-545v51h1536v-51h-125c27.333 -4 54.666 -15 81.999 -33
c28.667 -22.667 43 -52 43 -88c0 -39.333 -14.333 -77.333 -43 -114c-13.333 -15.333 -29.666 -30.833 -48.999 -46.5s-40.666 -30.834 -63.999 -45.501c-18.667 -11.333 -36.667 -19 -54 -23s-34 -6.66699 -50 -8h260v-51h-391v-359h391v-51h-391v-358h391v-52h-391v-358
h391v-51h-1536v51h276v358h-276v52zM294.997 768.001v-358h799v358h-799zM294.997 1178v-359h799v359h-799zM552.997 1587c36 -2.66699 67.168 -14.5 93.501 -35.5s39.5 -49.5 39.5 -85.5c0 -42 -15 -80 -45 -114c-27.333 -36 -64 -66.667 -110 -92
c-19.333 -11.333 -37.5 -19 -54.5 -23s-33.833 -6.66699 -50.5 -8h668v127c0 32.667 8.16699 62.667 24.5 90s37.5 51.166 63.5 71.499s54.667 36.333 86 48s62.666 18.834 93.999 21.501h-809zM1094 358.001h-799v-221h799v221zM294.998 1229l84 -0.000976562
c-31.333 2.66699 -59.333 14.334 -84 35.001v-35zM1129 1229l84 -0.000976562c-31.333 2.66699 -59.333 14.334 -84 35.001v-35z" />
    <glyph glyph-name="Igrave" unicode="&#xcc;" horiz-adv-x="1504" 
d="M-16 819l275.998 0.00488281v359h-276v51h276v332c0 4 0.5 8.33301 1.5 13s1.5 9 1.5 13h-279v51h295c2.66699 7.33301 6 13.666 10 18.999s8 11.333 12 18c27.333 37.333 63.666 66.166 108.999 86.499s89 30.5 131 30.5c36.667 0 70 -11 100 -33s45 -51.333 45 -88
c0 -20.667 -0.666992 -31.667 -2 -33h428c3.33301 7.33301 7 13.666 11 18.999s8 11.333 12 18c27.333 37.333 63.5 66.166 108.5 86.499s88.833 30.5 131.5 30.5c38 0 72 -11 102 -33c28.667 -23.333 43 -52.666 43 -87.999c0 -20.667 -0.666992 -31.667 -2 -33h2v-51h-23
c-2.66699 -5.33301 -5.66699 -10.333 -9 -15l-11 -16c-13.333 -14.667 -29.666 -29.834 -48.999 -45.501s-40.666 -31.167 -63.999 -46.5c-22.667 -10.667 -44.667 -18.334 -66 -23.001s-41.666 -7 -60.999 -7c-40.667 0 -76.667 11.333 -108 34v-239h391v-51h-391v-359h391
v-51h-391v-358h391v-52h-1536v52h276v358h-276v51zM294.998 1178v-359h799v359h-799zM663.998 1587c-2.66699 -5.33301 -5.66895 -10.332 -9.00195 -14.999s-8 -10 -14 -16c-27.333 -35.333 -64 -66 -110 -92c-24.667 -10.667 -47.167 -18.334 -67.5 -23.001
s-40.166 -7 -59.499 -7c-41.333 0 -77.666 11.333 -108.999 34v-239h799v332c0 4 0.333008 8.33301 1 13s1 9 1 13h-432zM1094 768.006h-799v-221h799v221zM-16.0039 0.00585938h1536v-51h-1536v51z" />
    <glyph glyph-name="Iacute" unicode="&#xcd;" horiz-adv-x="1504" 
d="M-16 819l275.999 -0.00292969v359h-276v51h276v358h-276v51h276v127c0 41.333 13.667 79.666 41 114.999c27.333 36.667 63.666 65.334 108.999 86.001s89 31 131 31c36.667 0 70 -11 100 -33s45 -51.333 45 -88c0 -42.667 -15 -81 -45 -115
c-27.333 -35.333 -64 -66 -110 -92c-19.333 -10.667 -37.5 -18.167 -54.5 -22.5s-33.833 -7.16602 -50.5 -8.49902h668v127c0 41.333 13.667 79.666 41 114.999c27.333 36.667 63.5 65.334 108.5 86.001s88.833 31 131.5 31c38 0 72 -11 102 -33
c28.667 -23.333 43 -52.666 43 -87.999c0 -39.333 -14.333 -77.666 -43 -114.999c-13.333 -14.667 -29.666 -29.834 -48.999 -45.501s-40.666 -31.167 -63.999 -46.5c-18.667 -10.667 -36.667 -18.167 -54 -22.5s-34 -7.16602 -50 -8.49902h260v-51h-391v-358h391v-51h-391
v-359h391v-51h-391v-358h391v-52h-1536v52h276v358h-276v51zM294.999 1178v-359h799v359h-799zM294.999 1587v-358h799v358h-799zM1094 767.997h-799v-221h799v221zM-16.001 -0.00292969h1536v-51h-1536v51zM1129 1638l84 -0.000976562
c-31.333 2.66699 -59.333 14.334 -84 35.001v-35zM294.999 1638l84 -0.000976562c-31.333 2.66699 -59.333 14.334 -84 35.001v-35z" />
    <glyph glyph-name="Icircumflex" unicode="&#xce;" horiz-adv-x="1504" 
d="M260 1229l-0.00390625 358h-276v51h276v332c0 4 0.5 8.5 1.5 13.5s1.5 9.5 1.5 13.5h-154v51h170c2.66699 6.66699 6 12.834 10 18.5c4 5.66699 8 11.834 12 18.5c27.333 36.667 63.666 65.334 108.999 86c45.333 20.667 89 31 131 31c36.667 0 70 -11 100 -33
s45 -51.333 45 -88c0 -20.667 -0.666992 -31.667 -2 -33h154v-51h-174c-2.66699 -5.33301 -5.66699 -10.5 -9 -15.5s-8 -10.167 -14 -15.5c-27.333 -35.333 -64 -66 -110 -92c-24.667 -10.667 -47.167 -18.5 -67.5 -23.5s-40.166 -7.5 -59.499 -7.5
c-41.333 0 -77.666 11.667 -108.999 35v-240h799v332c0 4 0.333008 8.5 1 13.5s1 9.5 1 13.5h-154v51h170c3.33301 6.66699 7 12.834 11 18.5c4 5.66699 8 11.834 12 18.5c27.333 36.667 63.5 65.334 108.5 86c45 20.667 88.833 31 131.5 31c38 0 72 -11 102 -33
c28.667 -23.333 43 -52.666 43 -88c0 -20.667 -0.666992 -31.667 -2 -33h154v-51h-175c-2.66699 -5.33301 -5.66699 -10.5 -9 -15.5s-7 -10.167 -11 -15.5c-13.333 -14.667 -29.666 -30 -48.999 -46s-40.666 -31.333 -63.999 -46c-22.667 -10.667 -44.667 -18.5 -66 -23.5
s-41.666 -7.5 -60.999 -7.5c-40.667 0 -76.667 11.667 -108 35v-240h391v-51h-391v-358h391v-51h-391v-359h391v-51h-1536v51h276v359h-276v51h276zM294.996 1229h799v358h-799v-358zM294.996 1178v-222h799v222h-799zM1520 410v-52h-1536v52h1536zM1520 0v-51h-1536v51
h1536z" />
    <glyph glyph-name="Idieresis" unicode="&#xcf;" horiz-adv-x="1504" 
d="M1520 1229l0.00195312 -50.9941h-276v-332c0 -5.33301 -0.5 -10.166 -1.5 -14.499s-1.5 -8.5 -1.5 -12.5h279v-51h-295c-2.66699 -6.66699 -6 -12.834 -10 -18.501s-8 -11.834 -12 -18.501c-27.333 -36.667 -63.666 -65.334 -108.999 -86.001s-89 -31 -131 -31
c-36.667 0 -70 11 -100 33s-45 51.333 -45 88v17c0 9.33301 0.666992 14.666 2 15.999h-428c-3.33301 -6.66699 -7 -12.834 -11 -18.501s-8 -11.834 -12 -18.501c-27.333 -36.667 -63.5 -65.334 -108.5 -86.001s-88.833 -31 -131.5 -31c-38 0 -72 11 -102 33
c-28.667 22 -43 51.333 -43 88v15c0 10.667 0.666992 16.667 2 18h-2v51h23c2.66699 5.33301 5.66699 10.5 9 15.5s7 10.167 11 15.5c13.333 14.667 29.666 30 48.999 46s40.666 31.333 63.999 46c22.667 10.667 44.667 18.5 66 23.5s41.666 7.5 60.999 7.5
c40.667 0 76.667 -11.667 108 -35v240h-391v51h391v358h-391v51h391v410h869v-410h276v-51h-276v-358h276zM1209 1587.01h-799v-358h799v358zM408.002 819.006l432.002 -0.000976562c2.66699 5.33301 5.66699 10.5 9 15.5s8 10.167 14 15.5c26 34 62.667 64.667 110 92
c24.667 10.667 47.167 18.5 67.5 23.5s40.166 7.5 59.499 7.5c41.333 0 77.666 -11.667 108.999 -35v240h-799v-332c0 -5.33301 -0.333008 -10.166 -1 -14.499s-1 -8.5 -1 -12.5zM410.004 1638h799v222h-799v-222zM1520 410.005v-52h-1536v52h1536zM1520 0.00488281v-51
h-1536v51h1536z" />
    <glyph glyph-name="Eth" unicode="&#xd0;" 
d="M70 -928v162l-86 -14v112l86 15v174h49v-164l111 18v224h49v-215l78 14v-111l-78 -14v-164l78 14v-116l-78 -13v-172h-49v164l-111 -20v-217h-49v207l-86 -15v117zM496 410v-52h-512v52h512zM496 1638v-51h-512v51h512zM496 1229v-51h-512v51h512zM496 819v-51h-512v51
h512zM496 0v-51h-512v51h512zM230 -899v162l-111 -19v-162z" />
    <glyph glyph-name="Ntilde" unicode="&#xd1;" 
d="M70 -727v162l-86 -15v113l86 14v174h49v-163l111 18v223h49v-215l78 15v-111l-78 -14v-164l78 14v-117l-78 -12v-172h-49v164l-111 -21v-217h-49v207l-86 -14v117zM496 410v-52h-512v52h512zM496 1638v-51h-512v51h512zM496 1229v-51h-512v51h512zM496 819v-51h-512v51
h512zM496 0v-51h-512v51h512zM230 -698v161l-111 -18v-162z" />
    <glyph glyph-name="Ograve" unicode="&#xd2;" 
d="M70 -528v161l-86 -14v113l86 14v174h49v-164l111 19v174h-246v51h512v-51h-217v-166l78 14v-110l-78 -15v-164l78 15v-117l-78 -12v-172h-49v164l-111 -21v-217h-49v207l-86 -14v116zM496 410v-52h-512v52h512zM496 819v-51h-512v51h512zM496 1638v-51h-512v51h512z
M496 1229v-51h-512v51h512zM230 -500v162l-111 -18v-162z" />
    <glyph glyph-name="Oacute" unicode="&#xd3;" 
d="M70 -328v162l-86 -14v112l86 15v2h-86v51h86v121h49v-121h111v199h49v-199h217v-51h-139v-62l-78 -14v-164l78 15v-117l-78 -13v-172h-49v164l-111 -20v-217h-49v207l-86 -15v117zM496 410v-52h-512v52h512zM496 819v-51h-512v51h512zM496 1638v-51h-512v51h512z
M496 1229v-51h-512v51h512zM230 -299v162l-111 -19v-161z" />
    <glyph glyph-name="Ocircumflex" unicode="&#xd4;" 
d="M496 410v-52h-217v-165l78 14v-111l-78 -14v-82h217v-51h-217v-25l78 15v-117l-78 -12v-172h-49v163l-111 -20v-217h-49v207l-86 -15v117l86 14v62h-86v51h86v43l-86 -14v112l86 15v174h49v-164l111 18v174h-246v52h512zM496 819v-51h-512v51h512zM496 1229v-51h-512v51
h512zM496 1638v-51h-512v51h512zM119 0h111v72l-111 -19v-53zM230 -84v33h-111v-51z" />
    <glyph glyph-name="Otilde" unicode="&#xd5;" 
d="M496 410v-52h-139v-61l-78 -14v-164l78 14v-117l-78 -12v-4h217v-51h-217v-111h-49v111h-111v-185h-49v185h-86v119l86 14v162l-86 -15v113l86 14v2h-86v52h86v120h49v-120h111v198h49v-198h217zM496 819v-51h-512v51h512zM496 1229v-51h-512v51h512zM496 1638v-51h-512
v51h512zM230 111v161l-111 -18v-162z" />
    <glyph glyph-name="Odieresis" unicode="&#xd6;" 
d="M496 410v-52h-217v-30l78 14v-117l-78 -12v-172h-49v164l-111 -21v-184h377v-51h-512v51h86v174l-86 -14v116l86 15v67h-86v52h86v43l-86 -15v113l86 14v174h49v-164l111 19v174h-246v51h512v-51h-217v-166l78 14v-110l-78 -14v-82h217zM496 1229v-51h-512v51h512z
M496 1638v-51h-512v51h512zM119 410h111v71l-111 -18v-53zM230 319v39h-111v-57z" />
    <glyph glyph-name="multiply" unicode="&#xd7;" 
d="M496 819v-51h-139v-61l-78 -15v-164l78 15v-117l-78 -12v-4h217v-52h-217v-116h-49v116h-111v-190h-49v190h-86v119l86 15v161l-86 -14v113l86 14v2h-86v51h86v121h49v-121h111v199h49v-199h217zM496 1229v-51h-512v51h512zM496 1638v-51h-512v51h512zM496 0v-51h-512v51
h512zM230 520v162l-111 -18v-162z" />
    <glyph glyph-name="Oslash" unicode="&#xd8;" 
d="M496 819v-51h-217v-31l78 15v-117l-78 -12v-172h-49v163l-111 -20v-184h377v-52h-512v52h86v174l-86 -15v117l86 14v68h-86v51h86v43l-86 -14v113l86 14v174h49v-164l111 19v174h-246v51h512v-51h-217v-166l78 14v-111l-78 -14v-82h217zM496 1638v-51h-512v51h512zM496 0
v-51h-512v51h512zM119 819h111v72l-111 -19v-53zM230 729v39h-111v-57z" />
    <glyph glyph-name="Ugrave" unicode="&#xd9;" 
d="M496 1229v-51h-139v-62l-78 -14v-164l78 14v-116l-78 -13v-4h217v-51h-217v-117h-49v117h-111v-190h-49v190h-86v119l86 14v162l-86 -14v112l86 15v2h-86v51h86v121h49v-121h111v198h49v-198h217zM496 410v-52h-512v52h512zM496 1638v-51h-512v51h512zM496 0v-51h-512v51
h512zM230 930v162l-111 -19v-162z" />
    <glyph glyph-name="Uacute" unicode="&#xda;" 
d="M496 1229v-51h-217v-31l78 14v-117l-78 -12v-172h-49v164l-111 -20v-185h377v-51h-512v51h86v174l-86 -14v117l86 14v68h-86v51h86v43l-86 -15v113l86 14v175h49v-164l111 18v174h-246v51h512v-51h-217v-166l78 15v-111l-78 -14v-82h217zM496 410v-52h-512v52h512zM496 0
v-51h-512v51h512zM119 1229h111v71l-111 -18v-53zM230 1139v39h-111v-58z" />
    <glyph glyph-name="Ucircumflex" unicode="&#xdb;" 
d="M496 1638v-51h-139v-61l-78 -15v-163l78 14v-117l-78 -12v-4h217v-51h-217v-117h-49v117h-111v-191h-49v191h-86v118l86 15v162l-86 -15v113l86 14v2h-86v51h86v121h49v-121h111v199h49v-199h217zM496 410v-52h-512v52h512zM496 819v-51h-512v51h512zM496 0v-51h-512v51
h512zM230 1339v162l-111 -18v-162z" />
    <glyph glyph-name="Udieresis" unicode="&#xdc;" 
d="M496 1638v-51h-217v-31l78 15v-117l-78 -12v-172h-49v164l-111 -21v-184h377v-51h-512v51h86v174l-86 -14v116l86 15v67h-86v51h86v43l-86 -14v113l86 14v174h49v-164l111 19v223h49v-215l78 14v-110l-78 -15v-82h217zM496 410v-52h-512v52h512zM496 819v-51h-512v51h512
zM496 0v-51h-512v51h512zM119 1638h111v72l-111 -18v-54zM230 1548v39h-111v-57z" />
    <glyph glyph-name="Yacute" unicode="&#xdd;" 
d="M70 1720v162l-86 -14v112l86 15v174h49v-164l111 18v224h49v-215l78 14v-111l-78 -14v-164l78 15v-117l-78 -13v-4h217v-51h-217v-117h-49v117h-111v-190h-49v190h-86v119zM496 1229v-51h-512v51h512zM496 819v-51h-512v51h512zM496 410v-52h-512v52h512zM496 0v-51h-512
v51h512zM230 1749v162l-111 -19v-161z" />
    <glyph glyph-name="Thorn" unicode="&#xde;" 
d="M70 1929v162l-86 -14v112l86 15v174h49v-164l111 18v224h49v-215l78 14v-111l-78 -14v-164l78 14v-116l-78 -13v-172h-49v164l-111 -20v-185h377v-51h-512v51h86v174l-86 -14v117zM496 1229v-51h-512v51h512zM496 819v-51h-512v51h512zM496 410v-52h-512v52h512zM496 0
v-51h-512v51h512zM230 1958v162l-111 -19v-162z" />
    <glyph glyph-name="germandbls" unicode="&#xdf;" horiz-adv-x="19" 
d="M1348 2253c155.333 0 303.331 -19.8291 443.998 -59.4961s285 -90.834 433 -153.501c-2 0 4.66699 -6.5 20 -19.5l58.5 -49l77.5 -66.5l78 -71c24 -22.667 44.167 -43.167 60.5 -61.5s24.5 -30.833 24.5 -37.5c0 -6 -2 -9 -6 -9c-35.333 0 -71.166 9.66699 -107.499 29
s-70.833 41.666 -103.5 66.999s-62 50.166 -88 74.499s-47.333 42.166 -64 53.499c-144.667 57.333 -292.667 96.5 -444 117.5s-301.666 31.5 -450.999 31.5c-156.667 0 -313.5 -9.16699 -470.5 -27.5s-309.833 -60.166 -458.5 -125.499
c-4.66699 -2.66699 -20.167 -15.334 -46.5 -38.001s-57.333 -47.667 -93 -75s-73 -52 -112 -74s-73.5 -33 -103.5 -33c-2.66699 0 -4 1.66699 -4 5c0 5.33301 7.16699 16.5 21.5 33.5s32.5 37.167 54.5 60.5s46.333 47.5 73 72.5l75.5 69.5c23.667 21.333 44 38.833 61 52.5
s28.5 20.5 34.5 20.5c151.333 62.667 300 113.834 446 153.5c146 39.667 297 59.5 453 59.5h137zM34.998 -50.9961h-51v51h51v-51zM34.998 768.004h-51v51h51v-51zM34.998 1178h-51v51h51v-51zM34.998 1587h-51v51h51v-51zM34.998 358.004h-51v52h51v-52z" />
    <glyph glyph-name="agrave" unicode="&#xe0;" 
d="M-16 -1100v860.001h45v-499c42.667 30 89 45 139 45c34.667 0 65.5 -9.66699 92.5 -29s40.5 -45.333 40.5 -78c0 -23.333 -10 -45 -30 -65c-8.66699 -12.667 -20.5 -25.167 -35.5 -37.5s-32.5 -25.833 -52.5 -40.5l-107 -78c-19.333 -12 -36.5 -24.833 -51.5 -38.5
s-28.5 -26.834 -40.5 -39.501zM29 -800.999l-0.000976562 -212.998l61 62l30.5 28.5c9 8.33301 16.167 16.5 21.5 24.5c27.333 31.333 41 62.666 41 93.999c0 11.333 -2.16699 20.666 -6.5 27.999s-9.16602 14.333 -14.499 21c-5.33301 4 -11.333 7.83301 -18 11.5
s-15.667 5.5 -27 5.5c-38 0 -67.333 -20.667 -88 -62zM495.999 410.003v-52h-512v52h512zM495.999 1229v-51h-512v51h512zM495.999 1638v-51h-512v51h512zM495.999 819.003v-51h-512v51h512zM495.999 0.00292969v-51h-512v51h512z" />
    <glyph glyph-name="aacute" unicode="&#xe1;" 
d="M-16 -899v899.001h512v-51h-465v-488c42.667 30 89 45 139 45c34.667 0 65.5 -9.5 92.5 -28.5s40.5 -44.833 40.5 -77.5c0 -23.333 -10 -45.333 -30 -66c-8.66699 -12 -20.5 -24.167 -35.5 -36.5s-32.5 -25.833 -52.5 -40.5l-107 -78
c-18.667 -12.667 -35.667 -25.834 -51 -39.501s-29 -26.5 -41 -38.5h-2zM31 -599.999l-0.000976562 -213.001l62 61c10.667 11.333 20.5 21 29.5 29s16.167 16.333 21.5 25c27.333 31.333 41 62.666 41 93.999c0 10.667 -2.16699 19.834 -6.5 27.501
s-9.16602 14.834 -14.499 21.501c-5.33301 4 -11.333 7.66699 -18 11s-15.667 5 -27 5c-38 0 -67.333 -20.333 -88 -61zM495.999 410v-52h-512v52h512zM495.999 1638v-51h-512v51h512zM495.999 1229v-51h-512v51h512zM495.999 819v-51h-512v51h512z" />
    <glyph glyph-name="acircumflex" unicode="&#xe2;" 
d="M-16 -694v854.001h47v-160h465v-51h-465v-283c42.667 30 89 45 139 45c34.667 0 65.5 -9.5 92.5 -28.5s40.5 -44.833 40.5 -77.5c0 -23.333 -10 -45.333 -30 -66c-8.66699 -12 -20.5 -24.167 -35.5 -36.5l-52.5 -41.5l-107 -77
c-18.667 -12.667 -35.667 -25.834 -51 -39.501s-29 -26.5 -41 -38.5h-2zM31 -394.999l-0.000976562 -213.002l62 61c10.667 11.333 20.5 21 29.5 29s16.167 16 21.5 24c27.333 32 41 63.667 41 95c0 10.667 -2.16699 19.834 -6.5 27.501s-9.16602 14.834 -14.499 21.501
c-5.33301 4 -11.333 7.66699 -18 11s-15.667 5 -27 5c-38 0 -67.333 -20.333 -88 -61zM495.999 409.999v-52h-512v52h512zM495.999 1638v-51h-512v51h512zM495.999 1229v-51h-512v51h512zM495.999 818.999v-51h-512v51h512z" />
    <glyph glyph-name="atilde" unicode="&#xe3;" 
d="M496 410v-52h-465v-358h465v-51h-465v-78c42.667 30 89 45 139 45c34.667 0 65.5 -9.5 92.5 -28.5s40.5 -44.833 40.5 -77.5c0 -23.333 -10 -45.333 -30 -66c-8.66699 -12 -20.5 -24.167 -35.5 -36.5l-52.5 -41.5l-107 -78c-18.667 -12 -36 -24.833 -52 -38.5
s-30 -26.5 -42 -38.5v899h512zM31 -190l-0.000976562 -212.997l62 61l29.5 28.5c9 8.33301 16.167 16.5 21.5 24.5c27.333 31.333 41 62.666 41 93.999c0 11.333 -2.16699 20.666 -6.5 27.999s-9.16602 14.666 -14.499 21.999c-5.33301 4 -11.333 7.66699 -18 11
s-15.667 5 -27 5c-38 0 -67.333 -20.333 -88 -61zM495.999 1638v-51h-512v51h512zM495.999 819.003v-51h-512v51h512zM495.999 1229v-51h-512v51h512z" />
    <glyph glyph-name="adieresis" unicode="&#xe4;" 
d="M496 410v-51.999h-465v-288c42.667 30 89 45 139 45c34.667 0 65.5 -9.66699 92.5 -29s40.5 -45.333 40.5 -78v-8h193v-51h-211c-22 -19.333 -39.167 -33.333 -51.5 -42s-28.5 -20.667 -48.5 -36l-107 -78c-18.667 -12 -36 -24.833 -52 -38.5s-30 -26.834 -42 -39.501
v854h47v-159h465zM496 819.001v-51h-512v51h512zM496 1229v-51h-512v51h512zM496 1638v-51h-512v51h512zM31 -50.999v-148l62 62l29.5 28.5c9 8.33301 16.167 16.5 21.5 24.5c5.33301 6.66699 10.333 12.167 15 16.5s9 9.83301 13 16.5h-141zM31 8.00098
l-0.000976562 -8.00195h154v4c0 10.667 -2.16699 19.834 -6.5 27.501s-9.16602 14.834 -14.499 21.501c-5.33301 4 -11.333 7.83301 -18 11.5s-15.667 5.5 -27 5.5c-38 0 -67.333 -20.667 -88 -62z" />
    <glyph glyph-name="aring" unicode="&#xe5;" 
d="M496 410l0.000976562 -52h-465v-84c42.667 30 89 45 139 45c34.667 0 65.5 -9.5 92.5 -28.5s40.5 -44.833 40.5 -77.5c0 -23.333 -10 -45.333 -30 -66c-8.66699 -12 -20.5 -24.167 -35.5 -36.5s-32.5 -25.833 -52.5 -40.5l-97 -70h408v-51h-477
c-6.66699 -6.66699 -12.834 -11.5 -18.501 -14.5s-11.167 -7.83301 -16.5 -14.5v899h512v-51h-465v-358h465zM31.001 213l-0.000976562 -213.001l62 61c10.667 11.333 20.5 21 29.5 29s16.167 16.333 21.5 25c27.333 31.333 41 62.666 41 93.999
c0 10.667 -2.16699 19.834 -6.5 27.501s-9.16602 14.834 -14.499 21.501c-5.33301 4 -11.333 7.66699 -18 11s-15.667 5 -27 5c-38 0 -67.333 -20.333 -88 -61zM496 1229v-51h-512v51h512zM496 1638v-51h-512v51h512z" />
    <glyph glyph-name="ae" unicode="&#xe6;" 
d="M496 819v-50.999h-465v-289c42.667 30 89 45 139 45c34.667 0 65.5 -9.5 92.5 -28.5s40.5 -44.833 40.5 -77.5v-8h193v-52h-217l-6 -6c-8.66699 -12 -20.5 -24.167 -35.5 -36.5l-52.5 -41.5l-107 -77c-18.667 -12.667 -36 -25.834 -52 -39.501s-30 -26.5 -42 -38.5v860
h47v-160h465zM496 1638v-51h-512v51h512zM496 1229v-51h-512v51h512zM496 0.000976562v-51h-512v51h512zM31 358.001v-153l62 61c10.667 11.333 20.5 21 29.5 29s16.167 16 21.5 24c5.33301 6 10 12.333 14 19l12 20h-139zM31 418.001l-0.000976562 -8.00195h154v4
c0 10.667 -2.16699 19.834 -6.5 27.501s-9.16602 14.834 -14.499 21.501c-5.33301 4 -11.333 7.66699 -18 11s-15.667 5 -27 5c-38 0 -67.333 -20.333 -88 -61z" />
    <glyph glyph-name="ccedilla" unicode="&#xe7;" 
d="M496 819l0.000976562 -50.998h-465v-84c42.667 30 89 45 139 45c34.667 0 65.5 -9.5 92.5 -28.5s40.5 -44.833 40.5 -77.5c0 -23.333 -10 -45.333 -30 -66c-8.66699 -12 -20.5 -24.167 -35.5 -36.5l-52.5 -41.5l-97 -69h408v-52h-477
c-6.66699 -6.66699 -12.834 -11.334 -18.501 -14.001s-11.167 -7.33398 -16.5 -14.001v899h512v-51h-465v-359h465zM31.001 623.002l-0.000976562 -212.997l62 61l29.5 28.5c9 8.33301 16.167 16.5 21.5 24.5c27.333 31.333 41 62.666 41 93.999
c0 11.333 -2.16699 20.666 -6.5 27.999s-9.16602 14.666 -14.499 21.999c-5.33301 4 -11.333 7.66699 -18 11s-15.667 5 -27 5c-38 0 -67.333 -20.333 -88 -61zM496 1638v-51h-512v51h512zM496 0.00488281v-51h-512v51h512z" />
    <glyph glyph-name="egrave" unicode="&#xe8;" 
d="M496 1229v-50.999h-465v-289c42.667 30 89 45 139 45c34.667 0 65.5 -9.5 92.5 -28.5s40.5 -45.167 40.5 -78.5v-8h193v-51h-217l-6 -6c-8.66699 -12.667 -20.5 -25 -35.5 -37l-52.5 -41l-107 -78c-18.667 -12 -36 -24.833 -52 -38.5s-30 -26.834 -42 -39.501v861h47
v-160h465zM496 410.001v-52h-512v52h512zM496 1638v-51h-512v51h512zM496 0.000976562v-51h-512v51h512zM31 768.001v-154l62 62l29.5 28.5c9 8.33301 16.167 16.5 21.5 24.5c5.33301 5.33301 10 11.5 14 18.5l12 20.5h-139zM31 827.001l-0.000976562 -7.99902h154v4
c0 11.333 -2.16699 20.666 -6.5 27.999s-9.16602 14.333 -14.499 21c-5.33301 4.66699 -11.333 8.66699 -18 12s-15.667 5 -27 5c-38 0 -67.333 -20.667 -88 -62z" />
    <glyph glyph-name="eacute" unicode="&#xe9;" 
d="M496 1229l0.000976562 -50.999h-465v-84c42.667 30 89 45 139 45c34.667 0 65.5 -9.66699 92.5 -29s40.5 -45.333 40.5 -78c0 -23.333 -10 -45 -30 -65c-8.66699 -12.667 -20.5 -25.167 -35.5 -37.5s-32.5 -25.833 -52.5 -40.5l-97 -70h408v-51h-477
c-6.66699 -6.66699 -12.834 -11.334 -18.501 -14.001s-11.167 -7.66699 -16.5 -15v899h512v-51h-465v-358h465zM31.001 1032l-0.000976562 -213.001l62 62l29.5 28.5c9 8.33301 16.167 16.5 21.5 24.5c27.333 31.333 41 62.666 41 93.999
c0 10.667 -2.16699 19.834 -6.5 27.501s-9.16602 14.834 -14.499 21.501c-5.33301 4 -11.333 7.83301 -18 11.5s-15.667 5.5 -27 5.5c-38 0 -67.333 -20.667 -88 -62zM496 410v-52h-512v52h512zM496 0v-51h-512v51h512z" />
    <glyph glyph-name="ecircumflex" unicode="&#xea;" 
d="M496 1638v-50.999h-465v-289c42.667 30 89 45 139 45c34.667 0 65.5 -9.5 92.5 -28.5s40.5 -44.833 40.5 -77.5v-8h193v-51h-217l-6 -7c-8.66699 -12 -20.5 -24.167 -35.5 -36.5s-32.5 -25.833 -52.5 -40.5l-107 -78c-18.667 -12.667 -36 -25.834 -52 -39.501
s-30 -26.5 -42 -38.5v860h47v-160h465zM496 410.001v-52h-512v52h512zM496 819.001v-51h-512v51h512zM496 0.000976562v-51h-512v51h512zM31 1178v-154l62 61c10.667 11.333 20.5 21 29.5 29s16.167 16.333 21.5 25c5.33301 5.33301 10 11.333 14 18l12 21h-139zM31 1237
l-0.000976562 -8.00195h154v4c0 10.667 -2.16699 19.834 -6.5 27.501s-9.16602 14.834 -14.499 21.501c-5.33301 4 -11.333 7.66699 -18 11s-15.667 5 -27 5c-38 0 -67.333 -20.333 -88 -61z" />
    <glyph glyph-name="edieresis" unicode="&#xeb;" 
d="M496 1638v-51h-465v-84c42.667 30 89 45 139 45c34.667 0 65.5 -9.5 92.5 -28.5s40.5 -44.833 40.5 -77.5c0 -23.333 -10 -45.333 -30 -66c-8.66699 -12 -20.5 -24.167 -35.5 -36.5l-52.5 -41.5l-97 -69h408v-51h-475l-37 -35v860h47v-365h465zM31 1442
l-0.000976562 -213.002l62 61c10.667 11.333 20.5 21 29.5 29s16.167 16 21.5 24c27.333 32 41 63.667 41 95c0 10.667 -2.16699 19.834 -6.5 27.501s-9.16602 14.834 -14.499 21.501c-5.33301 4 -11.333 7.66699 -18 11s-15.667 5 -27 5c-38 0 -67.333 -20.333 -88 -61z
M495.999 818.998v-51h-512v51h512zM495.999 409.998v-52h-512v52h512zM495.999 -0.00195312v-51h-512v51h512z" />
    <glyph glyph-name="igrave" unicode="&#xec;" 
d="M-16 1346v862h47v-500c42.667 30 89 45 139 45c34.667 0 65.5 -9.5 92.5 -28.5s40.5 -44.833 40.5 -77.5v-9h193v-51h-217l-6 -6c-8.66699 -12 -20.5 -24.167 -35.5 -36.5l-52.5 -41.5l-107 -78c-18.667 -12 -35.667 -24.833 -51 -38.5s-29 -26.5 -41 -38.5zM496 1229
v-51h-512v51h512zM496 819v-51h-512v51h512zM496 410v-52h-512v52h512zM496 0v-51h-512v51h512zM31 1587v-153l62 61l29.5 28.5c9 8.33301 16.167 16.5 21.5 24.5c5.33301 5.33301 10 11.5 14 18.5l12 20.5h-139zM31 1647l-0.000976562 -8.99805h154v4
c0 11.333 -2.16699 20.666 -6.5 27.999s-9.16602 14.666 -14.499 21.999c-5.33301 4 -11.333 7.66699 -18 11s-15.667 5 -27 5c-38 0 -67.333 -20.333 -88 -61z" />
    <glyph glyph-name="iacute" unicode="&#xed;" 
d="M-16 1552v861.001h47v-500c42.667 30 89 45 139 45c34.667 0 65.5 -9.5 92.5 -28.5s40.5 -45.167 40.5 -78.5c0 -22.667 -10 -44.334 -30 -65.001c-8.66699 -12.667 -20.5 -25 -35.5 -37l-52.5 -41l-97 -70h408v-51h-475zM31 1851l-0.000976562 -212.998l62 62l29.5 28.5
c9 8.33301 16.167 16.5 21.5 24.5c27.333 31.333 41 62.666 41 93.999c0 11.333 -2.16699 20.666 -6.5 27.999s-9.16602 14.333 -14.499 21c-5.33301 4.66699 -11.333 8.66699 -18 12s-15.667 5 -27 5c-38 0 -67.333 -20.667 -88 -62zM495.999 819.003v-51h-512v51h512z
M495.999 1229v-51h-512v51h512zM495.999 410.003v-52h-512v52h512zM495.999 0.00292969v-51h-512v51h512z" />
    <glyph glyph-name="icircumflex" unicode="&#xee;" 
d="M-16 1757v860.001h47v-499c42.667 30 89 45 139 45c34.667 0 65.5 -9.66699 92.5 -29s40.5 -45.333 40.5 -78c0 -23.333 -10 -45 -30 -65c-8.66699 -12.667 -20.5 -25.167 -35.5 -37.5s-32.5 -25.833 -52.5 -40.5l-107 -78c-18.667 -12 -35.667 -24.833 -51 -38.5
s-29 -26.834 -41 -39.501h-2zM31 2056l-0.000976562 -213l62 62l29.5 28.5c9 8.33301 16.167 16.5 21.5 24.5c27.333 31.333 41 62.666 41 93.999c0 10.667 -2.16699 19.834 -6.5 27.5c-4.33301 7.66699 -9.16602 14.834 -14.499 21.501
c-5.33301 4 -11.333 7.83301 -18 11.5s-15.667 5.5 -27 5.5c-38 0 -67.333 -20.667 -88 -62zM495.999 410.001v-52h-512v52h512zM495.999 1229v-51h-512v51h512zM495.999 1638v-51h-512v51h512zM495.999 819.001v-51h-512v51h512zM495.999 0.000976562v-51h-512v51h512z" />
    <glyph glyph-name="idieresis" unicode="&#xef;" horiz-adv-x="19" 
d="M1211 -666c-157.333 0 -309.669 19.5029 -457.002 58.5029s-297.666 89.833 -450.999 152.5c-4 0 -14.833 6.83301 -32.5 20.5s-38.5 31.167 -62.5 52.5s-48.833 44.666 -74.5 69.999l-72.5 72.5c-22.667 23 -41.167 43 -55.5 60s-21.5 28.5 -21.5 34.5
c0 1.33301 3.33301 2.66602 10 3.99902s11 2 13 2c30 0 63.333 -11.333 100 -34s71.834 -47.667 105.501 -75s62.667 -52.833 87 -76.5s38.5 -36.167 42.5 -37.5c74 -33.333 149.167 -59.833 225.5 -79.5s153.5 -34.667 231.5 -45s156.167 -17.166 234.5 -20.499
s156.5 -5 234.5 -5c148.667 0 299.167 11 451.5 33s300.833 61.667 445.5 119c16.667 10.667 38 28.334 64 53.001s55 49.167 87 73.5s66 46.166 102 65.499s72.667 29 110 29c2.66699 0 6 -0.666992 10 -2s6 -3.33301 6 -6c0 -8.66699 -8.16699 -21.834 -24.5 -39.501
s-37.166 -37.834 -62.5 -60.501l-81 -69.5l-80 -65.5l-59.5 -49.5c-15 -13 -21.833 -19.5 -20.5 -19.5c-73.333 -31.333 -145.166 -59.833 -215.5 -85.5c-70.333 -25.667 -141 -48.167 -212 -67.5s-142.667 -34.5 -215 -45.5s-147.5 -16.5 -225.5 -16.5h-137z
M35.9971 358.003h-52v52h52v-52zM35.9971 1587h-52v51h52v-51zM35.9971 1178h-52v51h52v-51zM35.9971 768.003h-52v51h52v-51zM35.9971 -50.9971h-52v51h52v-51z" />
    <glyph glyph-name="eth" unicode="&#xf0;" 
d="M-16 -1047v613h45v-242l205 49v-600h-45v228zM496 819v-51h-512v51h512zM496 1638v-51h-512v51h512zM496 1229v-51h-512v51h512zM496 410v-52h-512v52h512zM496 0v-51h-512v51h512zM29 -784v-142l160 37v144z" />
    <glyph glyph-name="ntilde" unicode="&#xf1;" 
d="M-16 -842v613h45v-242l205 49v-600h-45v227zM496 819v-51h-512v51h512zM496 1638v-51h-512v51h512zM496 1229v-51h-512v51h512zM496 410v-52h-512v52h512zM496 0v-51h-512v51h512zM29 -580v-141l160 37v143z" />
    <glyph glyph-name="ograve" unicode="&#xf2;" 
d="M-16 -647v647h512v-51h-467v-225l205 49v-600h-45v227zM496 410v-52h-512v52h512zM496 819v-51h-512v51h512zM496 1638v-51h-512v51h512zM496 1229v-51h-512v51h512zM29 -385v-141l160 37v143z" />
    <glyph glyph-name="oacute" unicode="&#xf3;" 
d="M-16 -436v606h45v-170h467v-51h-262v-565h-45v227zM496 410v-52h-512v52h512zM496 1638v-51h-512v51h512zM496 819v-51h-512v51h512zM496 1229v-51h-512v51h512zM29 -174v-141l160 36v144zM113 -51h-84v-21z" />
    <glyph glyph-name="ocircumflex" unicode="&#xf4;" 
d="M496 410v-52h-467v-225l205 49v-182h262v-51h-262v-361h-45v228l-205 -45v639h512zM496 819v-51h-512v51h512zM496 1229v-51h-512v51h512zM496 1638v-51h-512v51h512zM29 -51v-66l160 37v29h-160zM29 25v-25h160v63z" />
    <glyph glyph-name="otilde" unicode="&#xf5;" 
d="M496 410v-52h-262v-358h262v-51h-262v-156h-45v156h-205v631h45v-170h467zM496 819v-51h-512v51h512zM496 1229v-51h-512v51h512zM496 1638v-51h-512v51h512zM29 229v-141l160 37v143zM113 358h-84v-20zM125 0h64v14z" />
    <glyph glyph-name="odieresis" unicode="&#xf6;" 
d="M-16 819h512v-51h-467v-225l205 49v-182h262v-52h-262v-358h262v-51h-512v51h205v219l-205 -47v647zM496 1229v-51h-512v51h512zM496 1638v-51h-512v51h512zM29 358v-65l160 37v28h-160zM29 434v-24h160v63z" />
    <glyph glyph-name="divide" unicode="&#xf7;" 
d="M496 819v-51h-262v-358h262v-52h-262v-155h-45v155h-205v631h45v-170h467zM496 1638v-51h-512v51h512zM496 1229v-51h-512v51h512zM496 0v-51h-512v51h512zM29 639v-141l160 37v143zM113 768h-84v-20zM125 410h64v14z" />
    <glyph glyph-name="oslash" unicode="&#xf8;" 
d="M-16 1229h512v-51h-467v-226l205 49v-182h262v-51h-262v-358h262v-52h-512v52h205v219l-205 -47v647zM496 1638v-51h-512v51h512zM496 0v-51h-512v51h512zM29 768v-66l160 37v29h-160zM29 844v-25h160v64z" />
    <glyph glyph-name="ugrave" unicode="&#xf9;" 
d="M496 1229v-51h-262v-359h262v-51h-262v-156h-45v156h-205v631h45v-170h467zM496 410v-52h-512v52h512zM496 1638v-51h-512v51h512zM496 0v-51h-512v51h512zM29 1049v-142l160 37v143zM113 1178h-84v-21zM125 819h64v15z" />
    <glyph glyph-name="uacute" unicode="&#xfa;" 
d="M-16 1638h512v-51h-467v-225l205 49v-182h262v-51h-262v-359h262v-51h-512v51h205v219l-205 -47v647zM496 410v-52h-512v52h512zM496 0v-51h-512v51h512zM29 1178v-66l160 37v29h-160zM29 1253v-24h160v63z" />
    <glyph glyph-name="ucircumflex" unicode="&#xfb;" 
d="M496 1638v-51h-262v-358h262v-51h-262v-156h-45v156h-205v630h45v-170h467zM496 410v-52h-512v52h512zM496 819v-51h-512v51h512zM496 0v-51h-512v51h512zM29 1458v-141l160 37v143zM113 1587h-84v-20zM125 1229h64v14z" />
    <glyph glyph-name="udieresis" unicode="&#xfc;" 
d="M496 1638v-51h-262v-358h262v-51h-512v51h205v219l-205 -47v612h45v-241l205 49v-183h262zM496 410v-52h-512v52h512zM496 819v-51h-512v51h512zM496 0v-51h-512v51h512zM29 1587v-65l160 37v28h-160zM29 1663v-25h160v64z" />
    <glyph glyph-name="yacute" unicode="&#xfd;" 
d="M496 1638v-51h-262v-162h-45v162h-205v631h45v-242l205 49v-387h262zM496 1229v-51h-512v51h512zM496 819v-51h-512v51h512zM496 410v-52h-512v52h512zM496 0v-51h-512v51h512zM29 1868v-142l160 37v144zM125 1638h64v15z" />
    <glyph glyph-name="thorn" unicode="&#xfe;" 
d="M-16 1810v613h45v-242l205 49v-592h262v-51h-512v51h205v220zM496 1229v-51h-512v51h512zM496 819v-51h-512v51h512zM496 410v-52h-512v52h512zM496 0v-51h-512v51h512zM29 2073v-142l160 37v143z" />
    <glyph glyph-name="ydieresis" unicode="&#xff;" horiz-adv-x="992" 
d="M1008 0l0.000976562 -51h-1024v1689h1024v-51h-246c61.333 -24.667 112.833 -67 154.5 -127s62.5 -135 62.5 -225v-6h29v-51h-33c-5.33301 -52 -16.833 -96.833 -34.5 -134.5s-39.5 -68.834 -65.5 -93.501s-55.333 -43 -88 -55s-66.334 -18 -101.001 -18
c-26.667 1.33301 -50.667 5 -72 11s-40.333 13.667 -57 23l-55 -92h506v-51h-504l53 -90c60.667 19.333 107.334 29 140.001 29c38 0 73 -8.33301 105 -25s59.667 -38.667 83 -66s42.833 -59 58.5 -95s26.167 -73 31.5 -111h33v-52h-29v-10
c0 -82 -20.833 -154.667 -62.5 -218s-97.834 -106.666 -168.501 -129.999h260zM555.001 0c-48.667 13.333 -88.333 35.8389 -119 67.5059s-46 73.5 -46 125.5c2.66699 31.333 13.834 56.166 33.501 74.499s41.167 28.166 64.5 29.499c27.333 0 51.833 -10.167 73.5 -30.5
s32.5 -44.833 32.5 -73.5c0 -12.667 -2.33301 -23.834 -7 -33.501s-12.334 -21.834 -23.001 -36.501c-11.333 -12.667 -18.666 -21.667 -21.999 -27s-6.33301 -13.333 -9 -24c0 -14 7.16699 -24.333 21.5 -31s33.166 -11.334 56.499 -14.001
c72 1.33301 119.667 32.666 143 93.999c12 30 20.833 64.167 26.5 102.5s8.5 79.833 8.5 124.5v10h-492v-358h258zM297.002 1229.01l490 0.00195312v2c0 35.333 -0.666992 67.666 -2 96.999s-6.33301 59.666 -15 90.999c-6.66699 28.667 -17.5 55 -32.5 79
s-35.5 40 -61.5 48c-13.333 4 -25.833 6.66699 -37.5 8s-22.834 2 -33.501 2c-19.333 0 -36.166 -4 -50.499 -12s-22.833 -19 -25.5 -33c2.66699 -12 10.5 -26.5 23.5 -43.5s22.833 -30.5 29.5 -40.5c5.33301 -5.33301 8 -16 8 -32c0 -27.333 -9.16699 -51.333 -27.5 -72
s-42.5 -31 -72.5 -31c-28.667 0 -53 12 -73 36s-30.667 51.667 -32 83c3.33301 42.667 18.5 79 45.5 109s59.167 52.333 96.5 67h-230v-358zM787.002 410.008c-4 52.667 -12.334 101.668 -25.001 147.001c-13.333 58.667 -50 88 -110 88c-48 0 -87 -23.333 -117 -70
c-14 -22.667 -25.333 -47.334 -34 -74.001s-15 -55.667 -19 -87c-11.333 73.333 -32.666 141.833 -63.999 205.5s-66 113.167 -104 148.5h-17v-358h490zM488.001 1171.01c10.667 -84.667 31.666 -143.664 62.999 -176.997s65 -50 101 -50c60 0 96.667 27.333 110 82
c6.66699 23.333 11.834 47.666 15.501 72.999s6.16699 51.666 7.5 78.999h-297h-191v-359h15c6.66699 5.33301 16.167 14.833 28.5 28.5s25.833 32.167 40.5 55.5c14 26 26.833 51.667 38.5 77s22.167 51.666 31.5 78.999zM244 1587.01h-86v-358h86v358zM244 1178.01h-86
v-359h86v359zM244 768.012h-86v-358h86v358zM158 358.012v-358h86v358h-86z" />
    <glyph glyph-name="OE" unicode="&#x152;" 
d="M70 -928v162l-86 -14v112l86 15v174h49v-164l111 18v224h49v-215l78 14v-111l-78 -14v-164l78 14v-116l-78 -13v-172h-49v164l-111 -20v-217h-49v207l-86 -15v117zM230 -899v162l-111 -19v-162z" />
    <glyph glyph-name="oe" unicode="&#x153;" 
d="M338 -662c0 -31.333 -10.5 -57.833 -31.5 -79.5s-47.167 -32.5 -78.5 -32.5s-58 10.833 -80 32.5s-33 48.167 -33 79.5c0 32 11 58.5 33 79.5s48.667 31.5 80 31.5s57.5 -10.5 78.5 -31.5s31.5 -47.5 31.5 -79.5z" />
    <glyph glyph-name="Scaron" unicode="&#x160;" 
d="M68 1229l-0.00292969 357.998h-150v51h150v334c0 4 0.333008 8.16699 1 12.5s1 8.5 1 12.5h-152v51h168c2.66699 6.66699 6.16699 13.167 10.5 19.5s8.5 12.833 12.5 19.5c28.667 36.667 65.5 65.334 110.5 86c45 20.667 88.833 31 131.5 31c38 0 72 -11 102 -33
c28.667 -23.333 43 -52.666 43 -87.999v-35h152v-51h-175c-2.66699 -5.33301 -5.66699 -10.5 -9 -15.5s-7 -9.5 -11 -13.5c-13.333 -14.667 -29.666 -30 -48.999 -46s-40.666 -31.333 -63.999 -46c-24.667 -10.667 -47.167 -19.167 -67.5 -25.5s-40.166 -9.5 -59.499 -9.5
c-20 0 -36.833 3.83301 -50.5 11.5s-28.167 16.834 -43.5 27.501v-242h531v-51h-531v-358h377v-51h-377v-359h377v-51h-512v51h84v359h-84v51h84zM495.997 409.998v-52h-512v52h512zM495.997 -51.002h-512v51h512v-51zM496.997 -410.002v-51h-512v51h512z" />
    <glyph glyph-name="scaron" unicode="&#x161;" horiz-adv-x="992" 
d="M86 1817c0 51.333 20.665 93.666 61.998 126.999c39.333 32.667 83.666 55 132.999 67c20.667 6.66699 44.334 11.834 71.001 15.501s51.334 5.5 74.001 5.5c68.667 0 119.334 -7 152.001 -21c53.333 -10.667 100.333 -33 141 -67c42.667 -30.667 64 -73 64 -127
c0 -48 -18.667 -88.333 -56 -121c-13.333 -11.333 -27.5 -22 -42.5 -32s-32.167 -18.667 -51.5 -26h375v-51h-1125v51h351c-15.333 7.33301 -30.5 15 -45.5 23s-28.5 17.667 -40.5 29c-41.333 32.667 -62 75 -62 127zM296.998 1853c0 -20 0.669922 -34.5 2.00293 -43.5
s5.66602 -23.167 12.999 -42.5l17 -33.5c6 -11.667 14 -22.834 24 -33.501c26 -35.333 56.667 -56 92 -62h45c27.333 4.66699 47.666 15.667 60.999 33c12.667 18 19 55 19 111c0 13.333 -1.33301 26.833 -4 40.5s-6.33398 26.834 -11.001 39.501
c-4 13.333 -9.66699 26.166 -17 38.499s-16 23.833 -26 34.5c-14.667 20.667 -31.5 35.167 -50.5 43.5s-41.5 12.5 -67.5 12.5c-32 -4 -56.167 -14.667 -72.5 -32s-24.5 -52.666 -24.5 -105.999zM1008 358h-1024v52h1024v-52zM1008 1178h-1125v51h1125v-51zM1008 768h-1024
v51h1024v-51zM1008 -51h-1024v51h1024v-51zM1008 -410v-51h-1023v51h1023zM1008 -820v-51h-1022v51h1022z" />
    <glyph glyph-name="Ydieresis" unicode="&#x178;" horiz-adv-x="1504" 
d="M942 1586l-0.00390625 52h152v332c0 4 0.333008 8.5 1 13.5s1 9.5 1 13.5h-154v51h170c3.33301 6.66699 7 12.834 11 18.5c4 5.66699 8 11.834 12 18.5c27.333 36.667 63.5 65.334 108.5 86c45 20.667 88.833 31 131.5 31c38 0 72 -11 102 -33
c28.667 -23.333 43 -52.666 43 -88c0 -20.667 -0.666992 -31.667 -2 -33h154v-51h-175c-2.66699 -5.33301 -5.66699 -10.5 -9 -15.5s-7 -10.167 -11 -15.5c-13.333 -14.667 -29.666 -30 -48.999 -46s-40.666 -31.333 -63.999 -46c-22.667 -10.667 -44.667 -18.5 -66 -23.5
s-41.666 -7.5 -60.999 -7.5c-40.667 0 -76.667 11.667 -108 35v-240h544v-52h-544v-357h391v-51h-391v-359h391v-51h-1536v51h276v359h-276v51h276v357h-150v52h150v332c0 4 0.5 8.5 1.5 13.5s1.5 9.5 1.5 13.5h-154v51h170c2.66699 6.66699 6 12.834 10 18.5
c4 5.66699 8 11.834 12 18.5c27.333 36.667 63.666 65.334 108.999 86c45.333 20.667 89 31 131 31c36.667 0 70 -11 100 -33s45 -51.333 45 -88c0 -20.667 -0.666992 -31.667 -2 -33h154v-51h-174c-2.66699 -5.33301 -5.66699 -10.5 -9 -15.5s-8 -10.167 -14 -15.5
c-27.333 -35.333 -64 -66 -110 -92c-24.667 -10.667 -47.167 -18.5 -67.5 -23.5s-40.166 -7.5 -59.499 -7.5c-41.333 0 -77.666 11.667 -108.999 35v-240h544v-52h-544v-357h799v357h-152zM294.996 1178v-222h799v222h-799zM1520 410v-52h-1536v52h1536zM1520 0v-51h-1536
v51h1536zM1520 -410v-51h-1535v51h1535z" />
    <glyph glyph-name="Zcaron" unicode="&#x17d;" 
d="M-16 -1100v860.001h45v-499c42.667 30 89 45 139 45c34.667 0 65.5 -9.66699 92.5 -29s40.5 -45.333 40.5 -78c0 -23.333 -10 -45 -30 -65c-8.66699 -12.667 -20.5 -25.167 -35.5 -37.5s-32.5 -25.833 -52.5 -40.5l-107 -78c-19.333 -12 -36.5 -24.833 -51.5 -38.5
s-28.5 -26.834 -40.5 -39.501zM29 -800.999l-0.000976562 -212.998l61 62l30.5 28.5c9 8.33301 16.167 16.5 21.5 24.5c27.333 31.333 41 62.666 41 93.999c0 11.333 -2.16699 20.666 -6.5 27.999s-9.16602 14.333 -14.499 21c-5.33301 4 -11.333 7.83301 -18 11.5
s-15.667 5.5 -27 5.5c-38 0 -67.333 -20.667 -88 -62z" />
    <glyph glyph-name="zcaron" unicode="&#x17e;" horiz-adv-x="1024" 
d="M295 1178v-359h799v359h-799zM840 1587l-545.001 -0.00292969v-358h799v358h-149v51h149v127c0 41.333 13.667 79.666 41 114.999c27.333 36.667 63.5 65.334 108.5 86.001s88.833 31 131.5 31c38 0 72 -11 102 -33c28.667 -23.333 43 -52.666 43 -87.999
c0 -39.333 -14.333 -77.666 -43 -114.999c-13.333 -14.667 -29.666 -29.834 -48.999 -45.501s-40.666 -31.167 -63.999 -46.5c-18.667 -10.667 -36.667 -18.167 -54 -22.5s-34 -7.16602 -50 -8.49902h402v-51h-533v-358h391v-51h-391v-359h391v-51h-391v-358h391v-52h-1536
v52h276v358h-276v51h276v359h-276v51h276v358h-151v51h151v127c0 41.333 13.667 79.666 41 114.999c27.333 36.667 63.666 65.334 108.999 86.001s89 31 131 31c36.667 0 70 -11 100 -33s45 -51.333 45 -88c0 -42.667 -15 -81 -45 -115c-27.333 -35.333 -64 -66 -110 -92
c-19.333 -10.667 -37.5 -18.167 -54.5 -22.5s-33.833 -7.16602 -50.5 -8.49902h414v-51zM1094 767.997h-799v-221h799v221zM-16.001 -0.00292969h1536v-51h-1536v51zM1129 1638l84 -0.000976562c-31.333 2.66699 -59.333 14.334 -84 35.001v-35zM294.999 1638
l84 -0.000976562c-31.333 2.66699 -59.333 14.334 -84 35.001v-35zM1520 -410.005v-51h-1535v51h1535z" />
    <glyph glyph-name="florin" unicode="&#x192;" 
d="M565 -51h-154.997v-359h155v-51h-155v-119c0 -42 -15 -82 -45 -120c-9.33301 -15.333 -22.666 -30.833 -39.999 -46.5s-38 -28.834 -62 -39.501c-42.667 -22 -87.334 -33 -134.001 -33c-42 0 -76 11 -102 33c-15.333 10.667 -26.333 24.5 -33 41.5s-10 35.833 -10 56.5
s3 40.834 9 60.501s16.667 38.5 32 56.5c13.333 16 28.666 31.5 45.999 46.5s37.333 28.167 60 39.5c15.333 9.33301 30.5 15.333 45.5 18s30.167 4.66699 45.5 6h-389v51h526v359h-526v51h526v358h-359v52h359v204h51c2.66699 -27.333 7.16699 -52.166 13.5 -74.499
s12.833 -43.166 19.5 -62.499c2.66699 -13.333 6.33398 -25.5 11.001 -36.5s9.66699 -21.167 15 -30.5h27v-37l27 -33l49 -59l90 -105c68 -88.667 102 -181.334 102 -278.001c0 -23.333 -2 -49 -6 -77s-12 -57 -24 -87c-10 -23.333 -18 -42.833 -24 -58.5
s-14.667 -33.167 -26 -52.5l-30 -2l35 90l12 37.5c4 12.333 7.33301 25.833 10 40.5l6 55l2 25v41c-2.66699 5.33301 -4.33398 10.666 -5.00098 15.999s-1.33398 9.5 -2.00098 12.5s-2.33398 8.5 -5.00098 16.5l-12 37c-14 42 -37.333 80 -70 114
c-30 38.667 -62.667 66.667 -98 84c-19.333 11.333 -39.5 20.333 -60.5 27s-39.833 10 -56.5 10v-227h155v-51zM496.003 1178h-512v51h512v-51zM496.003 768h-512v51h512v-51zM271.003 -461c18.667 -1.33301 35.168 -3.66797 49.501 -7.00098
s27.166 -9.66602 38.499 -18.999v26h-88zM496.004 1587h-512v51h512v-51zM496.004 1997h-512v51h512v-51z" />
    <glyph glyph-name="circumflex" unicode="&#x2c6;" 
d="M496 358l-83.998 0.00195312v-358h153v-51h-153v-359h152v-51h-152v-125c0 -36.667 -13.667 -74.667 -41 -114c-28.667 -37.333 -65.167 -66.5 -109.5 -87.5s-87.833 -31.5 -130.5 -31.5c-38 0 -72.667 11.667 -104 35c-28.667 21.333 -43 50.666 -43 87.999
c0 39.333 14.333 77.333 43 114c13.333 15.333 29.666 30.833 48.999 46.5s40.666 31.167 63.999 46.5c14.667 10.667 28.5 17.667 41.5 21s27.167 5.66602 42.5 6.99902h-390v51h527v359h-527v51h527v358h-377v52h377v204h51v-204h84v-52zM496.002 768.002h-512v51h512v-51
zM496.002 1587h-512v51h512v-51zM496.002 1178h-512v51h512v-51zM283.002 -460.998c23.333 -1.33301 49.333 -12.333 78 -33v33h-78zM496.002 1997h-512v51h512v-51z" />
    <glyph glyph-name="tilde" unicode="&#x2dc;" horiz-adv-x="992" 
d="M86 1817c0 51.333 20.665 93.666 61.998 126.999c39.333 32.667 83.666 55 132.999 67c20.667 6.66699 44.334 11.834 71.001 15.501s51.334 5.5 74.001 5.5c68.667 0 119.334 -7 152.001 -21c53.333 -10.667 100.333 -33 141 -67c42.667 -30.667 64 -73 64 -127
c0 -48 -18.667 -88.333 -56 -121c-13.333 -11.333 -27.5 -22 -42.5 -32s-32.167 -18.667 -51.5 -26h375v-51h-1125v51h351c-15.333 7.33301 -30.5 15 -45.5 23s-28.5 17.667 -40.5 29c-41.333 32.667 -62 75 -62 127zM296.998 1853c0 -20 0.669922 -34.5 2.00293 -43.5
s5.66602 -23.167 12.999 -42.5l17 -33.5c6 -11.667 14 -22.834 24 -33.501c26 -35.333 56.667 -56 92 -62h45c27.333 4.66699 47.666 15.667 60.999 33c12.667 18 19 55 19 111c0 13.333 -1.33301 26.833 -4 40.5s-6.33398 26.834 -11.001 39.501
c-4 13.333 -9.66699 26.166 -17 38.499s-16 23.833 -26 34.5c-14.667 20.667 -31.5 35.167 -50.5 43.5s-41.5 12.5 -67.5 12.5c-32 -4 -56.167 -14.667 -72.5 -32s-24.5 -52.666 -24.5 -105.999zM1008 358h-1024v52h1024v-52zM1008 1178h-1024v51h1024v-51zM1008 768h-1024
v51h1024v-51zM1008 -51h-1024v51h1024v-51zM1008 -410v-51h-1023v51h1023z" />
    <glyph glyph-name="endash" unicode="&#x2013;" horiz-adv-x="992" 
d="M1008 -870l-227.002 -0.000976562c-7.33301 -38.667 -25.333 -69 -54 -91c-35.333 -31.333 -80.333 -55 -135 -71c-27.333 -8 -54 -13.833 -80 -17.5s-50.333 -5.5 -73 -5.5c-48 0 -98.667 6.5 -152 19.5s-99.666 35.833 -138.999 68.5c-34 28.667 -54.667 61 -62 97
h-204v51h204c7.33301 44.667 28 80 62 106c39.333 32.667 83.666 55.334 132.999 68.001c20.667 6.66699 44.334 11.667 71.001 15s51.334 5 74.001 5c72.667 0 123.334 -6.66699 152.001 -20c53.333 -11.333 100.333 -34 141 -68c35.333 -26 56.666 -61.333 63.999 -106
h225v-51zM1008 -461.001h-1126v51h1126v-51zM1008 767.999h-1024v51h1024v-51zM1008 -51.001h-1125v51h1125v-51zM1008 1178h-1024v51h1024v-51zM1008 1587h-1024v51h1024v-51zM1008 357.999h-1024v52h1024v-52zM296.998 -819.001l267 -0.000976562l-9 24
c-4 14 -9.66699 27.167 -17 39.5s-16 23.833 -26 34.5c-14.667 20.667 -31.5 34.667 -50.5 42s-41.5 11 -67.5 11c-32 -4 -56.167 -14.167 -72.5 -30.5s-24.5 -51.166 -24.5 -104.499v-16zM302.998 -870.002c2 -2.66699 3.33203 -5.16699 3.99902 -7.5
s2.33398 -6.16602 5.00098 -11.499l17 -33.5c6 -11.667 14 -22.834 24 -33.501c16 -22 34 -36.833 54 -44.5s41.333 -11.5 64 -11.5c40 4 66.667 15 80 33c12.667 18 19 53 19 105v4h-267zM1008 1997h-1024v51h1024v-51z" />
    <glyph glyph-name="emdash" unicode="&#x2014;" horiz-adv-x="992" 
d="M1008 -412l-0.000976562 -49h-379c32.667 -12 62.667 -29.667 90 -53c42.667 -30 64 -72.333 64 -127c0 -48 -18.667 -88.333 -56 -121c-35.333 -31.333 -80.333 -55.333 -135 -72c-27.333 -8 -54 -13.667 -80 -17s-50.333 -5 -73 -5c-48 0 -98.667 6.5 -152 19.5
s-99.666 35.833 -138.999 68.5c-41.333 32.667 -62 75 -62 127s20.667 94.333 62 127c30 26 59.333 43.667 88 53h-354v49h1126zM296.999 -604c0 -20.667 0.666992 -35.502 2 -44.502s5.66602 -22.833 12.999 -41.5c5.33301 -11.333 11 -22.666 17 -33.999
s14 -22.666 24 -33.999c16 -22 34.333 -36.667 55 -44s42.334 -11 65.001 -11c38.667 4 64 14.333 76 31c6.66699 9.33301 11.834 22.5 15.501 39.5s5.5 39.167 5.5 66.5c0 14 -1.33301 27.833 -4 41.5s-6.33398 26.5 -11.001 38.5c-4 14 -9.66699 27 -17 39
s-16 23.667 -26 35c-31.333 40.667 -72 61 -122 61c-32 -4 -55.5 -15.5 -70.5 -34.5s-22.5 -55.167 -22.5 -108.5zM1008 409.998v-52h-1024v52h1024zM1008 1638v-51h-1024v51h1024zM1008 1229v-51h-1024v51h1024zM1008 818.998v-51h-1024v51h1024zM1008 -0.00195312v-51
h-1126v51h1126zM1008 1997h-1024v51h1024v-51z" />
    <glyph glyph-name="quoteleft" unicode="&#x2018;" 
d="M496 358l-92 -0.00195312v-358h159v-51h-159v-359h160v-51h-160v-358h160v-51h-177c-2.66699 -7.33301 -6.33398 -14.666 -11.001 -21.999l-17 -28c-30 -34 -65 -61 -105 -81c-43.333 -23.333 -82 -35 -116 -35c-37.333 0 -66 4 -86 12c-24.667 8 -42 24.333 -52 49
l-12 41c0 4 -0.333008 11.5 -1 22.5s-1.33398 20.333 -2.00098 28s-1 12.167 -1 13.5h-150v51h160c10 22 21 39.667 33 53c28.667 32.667 64.834 59.334 108.501 80.001s87.5 31 131.5 31c18.667 0 33.834 -2.5 45.501 -7.5s25.167 -12.833 40.5 -23.5v225h-519v51h519v359
h-519v51h519v358h-369v52h512v-52zM496 767.998h-512v51h512v-51zM496 1178h-512v51h512v-51zM496 1587h-512v51h512v-51zM60 -870.002c-1.33301 0 -1.99902 -0.667969 -1.99902 -2.00098c-24.667 -32 -37 -55.333 -37 -70c4 -16.667 17 -29 39 -37c26 0 52 7 78 21
c30 9.33301 63.333 29 100 59c5.33301 2.66699 11.166 6.33398 17.499 11.001s12.833 10.667 19.5 18h-215zM115.001 -815.003c-1.33301 0 -3.33301 -1.33301 -6 -4h197c25.333 30 38 54.667 38 74c0 16 -10 27.333 -30 34c-26 0 -54 -8.5 -84 -25.5
s-68.333 -43.167 -115 -78.5zM496.001 1997h-512v51h512v-51z" />
    <glyph glyph-name="quoteright" unicode="&#x2019;" 
d="M564 -51l-160.004 -0.000976562v-359h160v-51h-160v-137c0 -16.667 -0.666992 -26.334 -2 -29.001s-4.66602 -10.667 -9.99902 -24c-3.33301 -8.66699 -8 -17.334 -14 -26.001s-12.333 -18.667 -19 -30c-30 -34 -65 -61 -105 -81
c-21.333 -11.333 -41.666 -20.333 -60.999 -27s-37.666 -10 -54.999 -10c-37.333 0 -66 4 -86 12c-23.333 8 -40.666 25 -51.999 51l-12 41c-1.33301 6.66699 -2.33301 14.834 -3 24.501s-1 19.834 -1 30.501c0 40 14.333 77.667 43 113
c23.333 24.667 48.333 43.834 75 57.501s55.667 25.167 87 34.5h-355v51h519v359l-519 -2v51l519 2v358h-369v52h369v192h51v-192h92v-52h-92v-358h160v-51zM114.996 -602.001c-13.333 -9.33301 -32.333 -28.335 -57 -57.002c-24.667 -32 -37 -55.333 -37 -70
c4 -16.667 17 -29 39 -37c26 0 52 7 78 21c30 9.33301 63.333 29 100 59c10.667 5.33301 22.167 13.833 34.5 25.5s26 26.334 41 44.001s23.833 33.334 26.5 47.001s4 26.167 4 37.5c0 16 -10 27.333 -30 34c-26 0 -54 -8.5 -84 -25.5s-68.333 -43.167 -115 -78.5z
M495.996 1587h-512v51h512v-51zM495.996 1178h-512v51h512v-51zM495.996 767.997h-512v51h512v-51zM352.996 -461.003l-41.001 0.000976562c6.66699 -2.66699 13.334 -4.33398 20.001 -5.00098s13.667 -3 21 -7v12zM495.995 1997h-512v51h512v-51z" />
    <glyph glyph-name="quotesinglbase" unicode="&#x201a;" 
d="M496 358l-79.999 -0.000976562c2.66699 -17.333 6.5 -33.166 11.5 -47.499l15.5 -42.5c9.33301 -34 24.333 -65.333 45 -94l35 -43l49 -59l90 -90c68 -89.333 102 -182.333 102 -279c0 -23.333 -2 -49 -6 -77s-12 -57 -24 -87c-10 -23.333 -18 -42.833 -24 -58.5
s-14.667 -32.834 -26 -51.501l-30 -2l35 90l12 36.5c4 12.333 7.33301 25.833 10 40.5l6 56l2 24v41l-8 33l-16 49c-14 42.667 -37.333 81 -70 115c-30 34 -50 53.667 -60 59v-22h-155v-359h152v-51h-152v-325c0 -18 -2 -29 -6 -33h158v-51h-175
c-4 -7.33301 -7 -13.666 -9 -18.999s-6.33301 -12 -13 -20c-9.33301 -15.333 -22.666 -30.5 -39.999 -45.5s-38 -27.833 -62 -38.5c-22 -11.333 -44.333 -19.333 -67 -24s-45.667 -7 -69 -7c-42 0 -75.333 10.333 -100 31c-28.667 20 -43 52 -43 96v27h-150v51h162
c2.66699 6.66699 7.16699 14.167 13.5 22.5s11.5 14.5 15.5 18.5c13.333 16 28.666 30.833 45.999 44.5s37.333 26.167 60 37.5c45.333 20 86.333 30 123 30c30 0 52.167 -3 66.5 -9s27.166 -14.333 38.499 -25v239h-525v51h525v359h-526v51h526v358h-375v52h512v-52z
M496.001 1178h-512v51h512v-51zM496.001 767.999h-512v51h512v-51zM496.001 1587h-512v51h512v-51zM490.001 -0.000976562c-15.333 5.33301 -29.832 9.66699 -43.499 13s-25.834 5 -36.501 5v-18h80zM496.002 1997h-512v51h512v-51z" />
    <glyph glyph-name="quotedblleft" unicode="&#x201c;" 
d="M76 1229v357.998h-243v51h243v144c0 16 0.666992 25.5 2 28.5s4.66602 11.167 9.99902 24.5c3.33301 8 8 16.5 14 25.5l19 29.5c30 34.667 65 62 105 82c43.333 23.333 82 35 116 35c37.333 0 66 -4 86 -12c24.667 -8.66699 42 -25 52 -49l12 -41
c1.33301 -7.33301 2.33301 -15.666 3 -24.999s1 -19.666 1 -30.999c0 -40.667 -14.333 -78 -43 -112c-19.333 -23.333 -42.666 -43.5 -69.999 -60.5s-56 -29.833 -86 -38.5h268v-51h-438v-358h369v-51h-369v-359h369v-51h-369v-195h-51v195h-92v51h92v359h-92v51h92z
M365 1786c13.333 9.33301 32.333 28.3359 57 57.0029c24.667 30 37 53.333 37 70c-4 16 -17 28.333 -39 37c-26 0 -52 -7 -78 -21c-30 -9.33301 -63.333 -29 -100 -59c-10.667 -5.33301 -22.167 -13.833 -34.5 -25.5s-26 -26.334 -41 -44.001s-23.833 -33.334 -26.5 -47.001
s-4 -26.167 -4 -37.5c0 -17.333 10 -29 30 -35c26 0 54 8.66699 84 26s68.333 43.666 115 78.999zM496 -50.999h-512v51h512v-51zM496 410.001v-52h-512v52h512zM127 1638h37c-12 4.66699 -24.333 11 -37 19v-19zM497 -409.999v-51h-512v51h512z" />
    <glyph glyph-name="quotedblright" unicode="&#x201d;" 
d="M76 1229l0.00195312 358h-152v51h152v359h-151v51h168c4 6.66699 8 13.834 12 21.5c4 7.66699 9.33301 16.167 16 25.5c30 34 65 61.333 105 82c43.333 23.333 82 35 116 35c37.333 0 66 -4 86 -12c23.333 -8.66699 40.666 -25.334 51.999 -50.001l12 -41
c0 -4 0.333008 -11 1 -21s1.33398 -18.833 2.00098 -26.5s1 -12.167 1 -13.5h152v-51h-162c-2.66699 -10 -7.16699 -19.333 -13.5 -28l-19.5 -27c-28.667 -33.333 -64.834 -60.166 -108.501 -80.499s-87.5 -30.5 -131.5 -30.5c-18.667 0 -33.834 2.33301 -45.501 7
s-25.167 12.667 -40.5 24v-224h521v-51h-521v-358h369v-51h-369v-359h369v-51h-512v51h92v359h-92v51h92zM496.002 410v-52h-512v52h512zM496.002 -51h-512v51h512v-51zM422.002 2048c24.667 30 37.001 53.333 37.001 70c-4 16 -17 28 -39 36c-26 0 -52 -6.66699 -78 -20
c-32.667 -10.667 -66 -30.334 -100 -59c-5.33301 -2.66699 -10.833 -6.16699 -16.5 -10.5s-11.834 -9.83301 -18.501 -16.5h215zM365.003 1991c1.33301 1.33301 2.66699 2.33301 4 3s2.66602 1.66699 3.99902 3h-213c-13.333 -15.333 -20.666 -29.5 -21.999 -42.5
s-2 -24.167 -2 -33.5c0 -18 10 -29.667 30 -35c26 0 54 8.5 84 25.5s68.333 43.5 115 79.5zM497.004 -410v-51h-512v51h512z" />
    <glyph glyph-name="quotedblbase" unicode="&#x201e;" 
d="M70 1229v358.004h-237v51h237v123c0 42.667 15 83 45 121c9.33301 15.333 21.166 29.833 35.499 43.5s34.5 26.5 60.5 38.5c46.667 22 93.334 33 140.001 33c39.333 0 73.333 -12.333 102 -37c28.667 -20.667 43 -50.667 43 -90c0 -20.667 -3 -40.834 -9 -60.501
s-16.667 -38.5 -32 -56.5c-13.333 -16 -28.666 -31.667 -45.999 -47s-37.333 -28.333 -60 -39c-28.667 -14.667 -56.667 -24.334 -84 -29.001h300v-51h-444v-358h283c2.66699 6.66699 4.66699 12 6 16s2.66602 11 3.99902 21v41l-2 24l-6 55
c-2.66699 15.333 -6 29.166 -10 41.499s-8.33301 24.5 -13 36.5l-34 90l30 -2c11.333 -18.667 20 -35.834 26 -51.501l23 -58.5c12.667 -30 21 -59 25 -87s6 -53.667 6 -77v-25c0 -14.667 -0.666992 -22.667 -2 -24h39v-51h-49c-15.333 -62 -45.333 -121.667 -90 -179
l-90 -104l-50 -59l-12 -17h291v-51h-328c-5.33301 -10.667 -10.333 -22.167 -15 -34.5s-9.66699 -24.166 -15 -35.499c-7.33301 -18.667 -12 -39.334 -14 -62.001s-3 -47.667 -3 -75h-51v207h-86v51h86v359h-86v51h86zM121 948.004c16.667 0 32.833 3.50098 48.5 10.501
s33.167 15.833 52.5 26.5c36.667 19.333 69.334 47.333 98.001 84c31.333 35.333 53.666 71.666 66.999 108.999h-266v-230zM495.999 0.00488281v-51h-512v51h512zM495.999 410.005v-52h-512v52h512zM120.999 1638h68.001c-28.667 4.66699 -51.334 15 -68.001 31v-31z
M497 -409.995v-51h-512v51h512z" />
    <glyph glyph-name="dagger" unicode="&#x2020;" 
d="M70 1229v358.004h-237v51h237v123c0 42.667 15 83 45 121c9.33301 15.333 21.166 29.833 35.499 43.5s34.5 26.5 60.5 38.5c46.667 22 93.334 33 140.001 33c39.333 0 73.333 -12.333 102 -37c28.667 -20.667 43 -50.667 43 -90c0 -20.667 -3 -40.834 -9 -60.501
s-16.667 -38.5 -32 -56.5c-13.333 -16 -28.666 -31.667 -45.999 -47s-37.333 -28.333 -60 -39c-28.667 -14.667 -56.667 -24.334 -84 -29.001h300v-51h-444v-358h283c2.66699 6.66699 4.66699 12 6 16s2.66602 11 3.99902 21v41l-2 24l-6 55
c-2.66699 15.333 -6 29.166 -10 41.499s-8.33301 24.5 -13 36.5l-34 90l30 -2c11.333 -18.667 20 -35.834 26 -51.501l23 -58.5c12.667 -30 21 -59 25 -87s6 -53.667 6 -77v-25c0 -14.667 -0.666992 -22.667 -2 -24l107 -1v-51l-117 1
c-15.333 -62 -45.333 -121.667 -90 -179l-90 -104l-50 -59l-12 -17h291v-51h-328c-5.33301 -10.667 -10.333 -22.167 -15 -34.5s-9.66699 -24.166 -15 -35.499c-7.33301 -18.667 -12 -39.334 -14 -62.001s-3 -47.667 -3 -75h-51v207h-86v51h86v359l-238 -1v51zM121 948.004
c16.667 0 32.833 3.50098 48.5 10.501s33.167 15.833 52.5 26.5c36.667 19.333 69.334 47.333 98.001 84c31.333 35.333 53.666 71.666 66.999 108.999h-266v-230zM495.999 0.00488281v-51h-512v51h512zM495.999 410.005v-52h-512v52h512zM120.999 1638h68.001
c-28.667 4.66699 -51.334 15 -68.001 31v-31zM497 -409.995v-51h-512v51h512zM498 -819.995v-51h-512v51h512z" />
    <glyph glyph-name="daggerdbl" unicode="&#x2021;" 
d="M496 358l-83.9971 -0.00390625v-358h151v-51h-151v-359h152v-51h-152v-332c0 -16 -0.666992 -24.667 -2 -26h154v-51h-172c-3.33301 -7.33301 -6.66602 -13.666 -9.99902 -18.999l-11 -18c-28.667 -37.333 -64.834 -66.166 -108.501 -86.499s-86.5 -30.5 -128.5 -30.5
c-41.333 0 -77 11 -107 33c-28.667 22 -43 51.333 -43 88v33h-150v51h173c2.66699 5.33301 5.66699 10.333 9 15l11 16c13.333 14.667 29.666 29.834 48.999 45.501s40.666 31.167 63.999 46.5c24.667 10.667 47.167 18.334 67.5 23.001s40.166 7 59.499 7
c20 0 36.833 -2.66699 50.5 -8s28.167 -13.333 43.5 -24v237h-527v51h527v359h-527v51h527v358h-377v52h512v-52zM496.003 1178h-512v51h512v-51zM496.003 1587h-512v51h512v-51zM496.003 767.996h-512v51h512v-51zM496.003 1997h-512v51h512v-51z" />
    <glyph glyph-name="bullet" unicode="&#x2022;" 
d="M76 1229v357.998h-243v51h243v144c0 16 0.666992 25.5 2 28.5s4.66602 11.167 9.99902 24.5c3.33301 8 8 16.5 14 25.5l19 29.5c30 34.667 65 62 105 82c43.333 23.333 82 35 116 35c37.333 0 66 -4 86 -12c24.667 -8.66699 42 -25 52 -49l12 -41
c1.33301 -7.33301 2.33301 -15.666 3 -24.999s1 -19.666 1 -30.999c0 -40.667 -14.333 -78 -43 -112c-19.333 -23.333 -42.666 -43.5 -69.999 -60.5s-56 -29.833 -86 -38.5h268v-51h-438v-358h438v-51h-438v-359h369v-51h-369v-195h-51v195h-92v51h92v359h-243v51h243z
M365 1786c13.333 9.33301 32.333 28.3359 57 57.0029c24.667 30 37 53.333 37 70c-4 16 -17 28.333 -39 37c-26 0 -52 -7 -78 -21c-30 -9.33301 -63.333 -29 -100 -59c-10.667 -5.33301 -22.167 -13.833 -34.5 -25.5s-26 -26.334 -41 -44.001s-23.833 -33.334 -26.5 -47.001
s-4 -26.167 -4 -37.5c0 -17.333 10 -29 30 -35c26 0 54 8.66699 84 26s68.333 43.666 115 78.999zM496 -50.999h-512v51h512v-51zM496 410.001v-52h-512v52h512zM127 1638h37c-12 4.66699 -24.333 11 -37 19v-19zM497 -409.999v-51h-512v51h512zM498 -819.999v-51h-512v51
h512z" />
    <glyph glyph-name="ellipsis" unicode="&#x2026;" 
d="M70 1229l0.000976562 357.999h-149v51h149v328c0 19.333 0.666992 29.666 2 30.999h-151v51h169c3.33301 5.33301 6.33301 11.166 9 17.499s6.66699 13.5 12 21.5c20.667 32.667 54 60 100 82c42.667 22 87.667 33 135 33c40 0 74.333 -12.333 103 -37
c31.333 -22 47 -61 47 -117h152v-51h-166c-7.33301 -19.333 -15 -33.666 -23 -42.999c-10.667 -15.333 -26 -30.166 -46 -44.499s-41.333 -26.833 -64 -37.5c-42.667 -19.333 -83.667 -29 -123 -29c-30 0 -52.167 2.5 -66.5 7.5s-27.166 12.833 -38.499 23.5v-236h273
c-1.33301 2.66699 -2.83301 6.83398 -4.5 12.501s-3.83398 11.834 -6.50098 18.501l-34 90l30 -2c11.333 -18.667 20 -36 26 -52s13.667 -35.333 23 -58c1.33301 -3.33301 2.66602 -6.33301 3.99902 -9h217v-51h-200c4 -18.667 6.66699 -37 8 -55s2 -34.333 2 -49
c0 -88.667 -28 -173.334 -84 -254.001h121v-51h-162l-67 -78l-50 -60l-34 -43c-20.667 -28.667 -35.667 -60 -45 -94c-4.66699 -13.333 -8.66699 -27.5 -12 -42.5s-5 -28.833 -5 -41.5h375v-51h-512v51h86v359h-86v51h86zM121.001 1587l-0.000976562 -358h158
c6.66699 5.33301 13.5 11.833 20.5 19.5s13.833 16.167 20.5 25.5c32.667 34 56 72.333 70 115l12 36.5c2.66699 8.33301 4.33398 13.833 5.00098 16.5l7 28v41l-2 25l-6 51h-285zM496 409.999v-52h-512v52h512zM496 -0.000976562v-51h-512v51h512zM121 1153
c30 0 61.333 8.33301 94 25h-94v-25zM497 -410.001v-51h-512v51h512z" />
    <glyph glyph-name="perthousand" unicode="&#x2030;" 
d="M-16 1229l83.998 -0.000976562v358h-235v51h235v129c0 37.333 13.667 75.666 41 114.999c28.667 36.667 65.5 65.334 110.5 86.001s88.833 31 131.5 31c38 0 72 -11 102 -33c28.667 -23.333 43 -52.666 43 -87.999c0 -39.333 -14.333 -77.666 -43 -114.999
c-13.333 -14.667 -29.666 -29.834 -48.999 -45.501s-40.666 -31.167 -63.999 -46.5c-24.667 -17.333 -56 -28.333 -94 -33h319v-51h-446v-358h377v-51h-377v-359h377v-51h-377v-203h-51v203h-84v51h84v359h-84v51zM-16.002 409.999h512v-52h-512v52zM495.998 -0.000976562
v-51h-512v51h512zM118.998 1638h80c-31.333 6 -58 18.333 -80 37v-37zM496.998 -410.001v-51h-512v51h512z" />
    <glyph glyph-name="guilsinglleft" unicode="&#x2039;" 
d="M-167 1229l234.998 -0.000976562v358h-235v51h235v129c0 37.333 13.667 75.666 41 114.999c28.667 36.667 65.5 65.334 110.5 86.001s88.833 31 131.5 31c38 0 72 -11 102 -33c28.667 -23.333 43 -52.666 43 -87.999c0 -39.333 -14.333 -77.666 -43 -114.999
c-13.333 -14.667 -29.666 -29.834 -48.999 -45.501s-40.666 -31.167 -63.999 -46.5c-24.667 -17.333 -56 -28.333 -94 -33h319v-51h-446v-358h446v-51h-446v-359h377v-51h-377v-203h-51v203h-84v51h84v359h-235v51zM-16.002 409.999h512v-52h-512v52zM495.998 -0.000976562
v-51h-512v51h512zM118.998 1638h80c-31.333 6 -58 18.333 -80 37v-37zM496.998 -410.001v-51h-512v51h512zM497.998 -820.001v-51h-512v51h512z" />
    <glyph glyph-name="guilsinglright" unicode="&#x203a;" 
d="M-16 -1047v613h45v-242l205 49v-600h-45v228zM29 -784v-142l160 37v144z" />
    <glyph glyph-name="Euro" unicode="&#x20ac;" horiz-adv-x="2528" 
d="M2544 768l-1047 0.00292969v-283c42.667 30 89.334 45 140.001 45c34 0 64.667 -9.5 92 -28.5s41 -44.833 41 -77.5c0 -8 -0.666992 -12.667 -2 -14h776v-52h-805c-8 -12 -19.5 -24.167 -34.5 -36.5s-32.833 -25.833 -53.5 -40.5l-106 -78
c-19.333 -12.667 -37.5 -25.834 -54.5 -39.501s-31.833 -26.5 -44.5 -38.5v233h-1462v52h756v358h-461l-6 -6c-8.66699 -12.667 -20.5 -25 -35.5 -37l-52.5 -41l-107 -78c-18.667 -12 -36 -24.833 -52 -38.5s-30 -26.834 -42 -39.501v861h51v-160h326v358h-377v51h377v410
h51v-410h682v164h51v-164h1399v-51h-666v-358h666v-51h-502c28.667 -6 54 -17.833 76 -35.5s33 -40.834 33 -69.501c0 -23.333 -10.333 -45 -31 -65c-8 -12.667 -19.5 -25.167 -34.5 -37.5s-32.833 -25.833 -53.5 -40.5l-106 -78c-7.33301 -5.33301 -15 -10.5 -23 -15.5
s-15.667 -10.833 -23 -17.5h664v-51zM1094 1178h-303v-359h655v166h51v-166h330v359h-438l-2 -2c-8 -12.667 -19.5 -25.167 -34.5 -37.5s-32.833 -25.833 -53.5 -40.5l-107 -78c-18.667 -12.667 -36.667 -25.667 -54 -39s-32 -26.333 -44 -39v236zM34.999 889.003
c42.667 30 87.667 45 135 45c34.667 0 65.5 -9.5 92.5 -28.5s40.5 -45.167 40.5 -78.5v-8h437v359h-705v-289zM1145 1303c42.667 30 89 45 139 45c34.667 0 65.667 -9.66699 93 -29s41 -45.333 41 -78c0 -6.66699 -0.666992 -10.667 -2 -12h411v358h-682v-284zM597.999 1587
c24.667 -6.66699 45.5 -18.5 62.5 -35.5s25.5 -38.5 25.5 -64.5c0 -23.333 -10 -45.333 -30 -66c-8.66699 -12 -20.5 -24.167 -35.5 -36.5l-52.5 -41.5l-107 -77c-18.667 -12.667 -35 -25 -49 -37h682v358h-496zM964.999 768.003
c27.333 -6.66699 50.501 -18.501 69.501 -35.501s28.5 -39.167 28.5 -66.5c0 -23.333 -10 -45.333 -30 -66c-8.66699 -12 -20.5 -24.167 -35.5 -36.5l-52.5 -41.5l-107 -78l-25.5 -18c-7.66699 -5.33301 -14.834 -10.666 -21.501 -15.999h655v358h-481zM2544 -50.998h-2560
v51h2560v-51zM791 453.002l60.999 61.001l30 28.5c8.66699 8.33301 16 16.5 22 24.5c27.333 31.333 41 63 41 95c0 10.667 -2.16699 19.667 -6.5 27s-9.16602 14.666 -14.499 21.999c-5.33301 4 -11.5 7.66699 -18.5 11s-15.833 5 -26.5 5c-38 0 -67.333 -20.333 -88 -61
v-213zM413.999 1274l61.999 60.999c10.667 11.333 20.5 21 29.5 29s16.167 16.333 21.5 25c27.333 31.333 41 62.666 41 93.999c0 10.667 -2.16699 19.834 -6.5 27.501s-9.16602 14.834 -14.499 21.501c-5.33301 4 -11.333 7.66699 -18 11s-15.667 5 -27 5
c-38 0 -67.333 -20.333 -88 -61v-213zM1878 860.002l62 61.999l29.5 28.5c9 8.33301 16.167 16.5 21.5 24.5c27.333 31.333 41 62.666 41 93.999c0 10.667 -2 19.834 -6 27.501s-8.66699 14.834 -14 21.501c-6 4 -12.333 7.83301 -19 11.5s-15.667 5.5 -27 5.5
c-38 0 -67.333 -20.667 -88 -62v-213zM34.998 614.001l58 62l29.5 28.5c9 8.33301 16.167 16.5 21.5 24.5c5.33301 5.33301 10 11.5 14 18.5l12 20.5h-135v-154zM1145 1028l62 61.999c10.667 10.667 20.5 20 29.5 28s16.167 16.333 21.5 25
c10.667 10.667 18.667 22.334 24 35.001h-137v-150zM1497 211l62 60.999c10.667 11.333 20.5 21 29.5 29s16.167 16.333 21.5 25c4 5.33301 8.16699 10.333 12.5 15s7.83301 10.334 10.5 17.001h-136v-147zM1497 409.999l154.002 -0.00195312v10
c0 10.667 -2 19.834 -6 27.501s-8.66699 14.834 -14 21.501c-6 4 -12.333 7.66699 -19 11s-15.334 5 -26.001 5c-38.667 0 -68.334 -20.333 -89.001 -61v-14zM1145 1229l154 -0.00195312v8c0 10.667 -2 19.834 -6 27.501s-9 14.834 -15 21.501
c-5.33301 4 -11.333 7.83301 -18 11.5s-15.667 5.5 -27 5.5c-38 0 -67.333 -20.667 -88 -62v-12zM35 818.995l149.999 0.000976562v4c0 11.333 -2.16699 20.666 -6.5 27.999s-9.16602 14.333 -14.499 21c-5.33301 4.66699 -11.333 8.66699 -18 12s-15.667 5 -27 5
c-35.333 0 -63.333 -20.667 -84 -62v-8zM1878 1135c14 9.33301 29.167 18.167 45.5 26.5s32.833 13.833 49.5 16.5h-95v-43zM790.999 726.997c10.667 9.33301 23.5 17.832 38.5 25.499s30.833 12.834 47.5 15.501h-86v-41zM413.999 1548c26 18 54 31 84 39h-84v-39z" />
    <glyph glyph-name="trademark" unicode="&#x2122;" horiz-adv-x="992" 
d="M1008 1997h-227.003c-7.33301 -40 -25.333 -72 -54 -96c-35.333 -32 -80.333 -56 -135 -72c-27.333 -8 -54 -13.833 -80 -17.5s-50.333 -5.5 -73 -5.5c-48 0 -98.667 6.5 -152 19.5s-99.666 35.833 -138.999 68.5c-34 26 -54.667 60.333 -62 103h-204v51h206
c7.33301 44 27.333 77.333 60 100c38 33.333 82.333 56 133 68c20.667 6.66699 44.334 11.667 71.001 15s51.334 5 74.001 5c70 0 120.667 -6.66699 152 -20c53.333 -10.667 100.333 -33.334 141 -68c35.333 -27.333 56 -60.666 62 -100h227v-51zM1008 1587h-1126v51h1126
v-51zM1008 1178h-1024v51h1024v-51zM1008 -51h-1024v51h1024v-51zM1008 358h-1024v52h1024v-52zM1008 768h-1024v51h1024v-51zM300.997 1997c3.33301 -8 9.66699 -21.667 19 -41s20.333 -36.333 33 -51c32.667 -42.667 72.667 -64 120 -64c37.333 4 63.333 15.667 78 35
c12.667 18 19 55 19 111v10h-269zM296.998 2048h265l-7 18c-4 14 -9.66699 27.167 -17 39.5s-16 23.833 -26 34.5c-14.667 20.667 -31.5 35 -50.5 43s-41.5 12 -67.5 12c-32 -4 -56.167 -14.5 -72.5 -31.5s-24.5 -52.167 -24.5 -105.5v-10zM1008 -410v-51h-1023v51h1023z
" />
  </font>
</defs>
</svg>
